<svg width="24" height="29" viewBox="0 0 24 29" fill="none" xmlns="http://www.w3.org/2000/svg">
<path fill-rule="evenodd" clip-rule="evenodd" d="M19.3112 15.608C19.2761 12.0187 22.2494 10.2711 22.3867 10.1903C20.7035 7.73461 18.0939 7.4007 17.1755 7.37375C14.986 7.14489 12.861 8.68781 11.7461 8.68781C10.6069 8.68781 8.88595 7.39802 7.03575 7.43572C4.64964 7.47343 2.4197 8.85478 1.19702 10.9954C-1.32382 15.3657 0.556041 21.785 2.97449 25.3179C4.1864 27.0466 5.59763 28.9799 7.44783 28.9099C9.25764 28.8345 9.93357 27.7574 12.1177 27.7574C14.283 27.7574 14.9186 28.9099 16.8065 28.8668C18.7483 28.8345 19.971 27.13 21.1371 25.3824C22.5376 23.4006 23.0977 21.4485 23.1193 21.3489C23.0735 21.3327 19.3489 19.9109 19.3112 15.608" fill="white"/>
<path fill-rule="evenodd" clip-rule="evenodd" d="M15.7417 5.05997C16.714 3.84265 17.3846 2.18367 17.1961 0.503071C15.7875 0.567705 14.0261 1.478 13.0107 2.66843C12.1138 3.71876 11.3084 5.43973 11.5185 7.05569C13.1022 7.17414 14.7263 6.25846 15.7417 5.05996" fill="white"/>
</svg>
