<svg width="24" height="25" viewBox="0 0 24 25" fill="none" xmlns="http://www.w3.org/2000/svg">
<path fill-rule="evenodd" clip-rule="evenodd" d="M19.2533 13.2614C19.2188 10.1108 22.1477 8.57691 22.283 8.50599C20.6249 6.35041 18.0542 6.05732 17.1496 6.03366C14.9927 5.83278 12.8995 7.18711 11.8012 7.18711C10.679 7.18711 8.98375 6.05496 7.16118 6.08806C4.81069 6.12116 2.61404 7.33367 1.40962 9.21266C-1.07358 13.0488 0.778208 18.6835 3.16055 21.7845C4.35436 23.3019 5.74453 24.999 7.56711 24.9375C9.34989 24.8713 10.0157 23.9259 12.1673 23.9259C14.3002 23.9259 14.9264 24.9375 16.7861 24.8997C18.6988 24.8713 19.9033 23.3752 21.052 21.8412C22.4315 20.1016 22.9834 18.3881 23.0046 18.3006C22.9595 18.2864 19.2905 17.0385 19.2533 13.2615" fill="#60A297"/>
<path fill-rule="evenodd" clip-rule="evenodd" d="M15.7368 4.00263C16.6946 2.93409 17.3552 1.47788 17.1695 0.00269537C15.7819 0.0594298 14.0468 0.858462 13.0465 1.90339C12.163 2.82535 11.3697 4.33596 11.5767 5.75441C13.1367 5.85838 14.7366 5.05463 15.7368 4.00262" fill="#60A297"/>
</svg>
