<svg width="90" height="90" viewBox="0 0 90 90" fill="none" xmlns="http://www.w3.org/2000/svg">
<path d="M61.6395 56.0488L61.6395 56.0488L61.6457 56.0509C65.8562 57.4164 70.3707 58.1752 75.0375 58.1752C76.7864 58.1752 78.25 59.6389 78.25 61.3877V74.3252C78.25 75.2824 78.0046 76.2805 77.4829 77.024C76.9755 77.7471 76.1962 78.2502 75.0375 78.2502C40.5135 78.2502 11.75 49.5239 11.75 14.9627C11.75 13.728 12.2722 12.9538 12.9997 12.4675C13.7536 11.9635 14.7615 11.7502 15.7125 11.7502H28.6875C30.4364 11.7502 31.9 13.2139 31.9 14.9627C31.9 19.6252 32.62 24.1398 34.0243 28.3541C34.3797 29.4899 34.1234 30.7496 33.2565 31.661L25.9634 37.8695L25.6697 38.1195L25.837 38.4671C31.1759 49.5615 41.1987 59.2045 51.9097 64.314L52.2684 64.4851L52.516 64.1744L58.3866 56.8081C58.8009 56.3938 59.3221 56.1025 59.8924 55.967C60.4709 55.8296 61.0764 55.8579 61.6395 56.0488Z" fill="#F64E1F" stroke="white"/>
</svg>
