<svg width="68" height="68" viewBox="0 0 68 68" fill="none" xmlns="http://www.w3.org/2000/svg">
<circle cx="34" cy="34" r="34" fill="#03A5F0" fill-opacity="0.13"/>
<path d="M35.2376 22.4375C36.3136 22.4375 36.7899 22.4384 37.1827 22.4736C41.5493 22.8646 45.0099 26.3252 45.4009 30.6918C45.4361 31.0846 45.437 31.5609 45.437 32.6369V33.8744C45.437 34.3921 45.8567 34.8119 46.3745 34.8119C46.8923 34.8119 47.312 34.3921 47.312 33.8744V32.5739C47.312 31.5778 47.312 31.0117 47.2684 30.5246C46.7966 25.2546 42.6199 21.0779 37.3499 20.6061C36.8628 20.5625 36.2967 20.5625 35.3005 20.5625H34.0001C33.4824 20.5625 33.0626 20.9822 33.0626 21.5C33.0626 22.0178 33.4824 22.4375 34.0001 22.4375L35.2376 22.4375Z" fill="#03A5F0"/>
<path d="M27.8898 24.0316C26.5747 22.8232 24.5532 22.8232 23.2381 24.0316C23.1843 24.0811 23.1268 24.1386 23.0521 24.2133L21.9302 25.3352C20.8014 26.4641 20.3275 28.0915 20.6738 29.6499C22.6387 38.4923 29.5444 45.3979 38.3867 47.3629C39.9452 47.7092 41.5726 47.2353 42.7015 46.1064L43.8233 44.9847C43.898 44.91 43.9555 44.8524 44.005 44.7985C45.2135 43.4834 45.2135 41.462 44.005 40.1469C43.9555 40.093 43.898 40.0355 43.8233 39.9608L41.9867 38.1242C40.7116 36.8491 38.7859 36.4844 37.1328 37.2049C36.1864 37.6175 35.084 37.4087 34.354 36.6787L31.358 33.6827C30.628 32.9527 30.4192 31.8502 30.8317 30.9039C31.5523 29.2508 31.1876 27.3251 29.9125 26.05L28.0758 24.2133C28.0012 24.1386 27.9437 24.0811 27.8898 24.0316Z" fill="#03A5F0"/>
<path d="M34.8839 24.9819C34.3661 24.9819 33.9464 25.4017 33.9464 25.9194C33.9464 26.4372 34.3661 26.8569 34.8839 26.8569H35.591C35.7 26.8569 35.7447 26.8569 35.781 26.8575C38.6555 26.8986 40.9757 29.2189 41.0169 32.0933C41.0174 32.1297 41.0174 32.1743 41.0174 32.2834V32.9905C41.0174 33.5083 41.4372 33.928 41.9549 33.928C42.4727 33.928 42.8924 33.5083 42.8924 32.9905V32.2743C42.8924 32.1772 42.8924 32.1181 42.8917 32.0665C42.836 28.1775 39.6969 25.0384 35.8079 24.9827C35.7563 24.9819 35.6972 24.9819 35.6 24.9819H34.8839Z" fill="#03A5F0"/>
</svg>
