<svg width="50" height="50" viewBox="0 0 50 50" fill="none" xmlns="http://www.w3.org/2000/svg">
<g clip-path="url(#clip0_678_53)">
<path d="M27.0833 27.5834H27.5833V27.0834V25V24.5H27.0833H14.5833H14.0833V25V27.0834V27.5834H14.5833H27.0833ZM27.0833 42.1667H27.5833V41.6667V39.5834V39.0834H27.0833H14.5833H14.0833V39.5834V41.6667V42.1667H14.5833H27.0833ZM13 30.75V21.3334H37V30.75H13ZM30.7983 39.2007L30.607 39.6627L30.7983 39.2007C30.5166 39.084 30.2066 39.0535 29.9076 39.113C29.6085 39.1725 29.3338 39.3193 29.1182 39.5349C28.9026 39.7505 28.7558 40.0252 28.6963 40.3243C28.6368 40.6233 28.6673 40.9333 28.784 41.215C28.9007 41.4967 29.0983 41.7375 29.3518 41.9069C29.6054 42.0763 29.9034 42.1667 30.2083 42.1667C30.6172 42.1667 31.0093 42.0043 31.2985 41.7152C31.5876 41.426 31.75 41.0339 31.75 40.625C31.75 40.3201 31.6596 40.0221 31.4902 39.7685C31.3208 39.515 31.08 39.3174 30.7983 39.2007ZM29.3518 27.3236C29.6054 27.493 29.9034 27.5834 30.2083 27.5834C30.6172 27.5834 31.0093 27.421 31.2985 27.1318C31.5876 26.8427 31.75 26.4506 31.75 26.0417C31.75 25.7368 31.6596 25.4387 31.4902 25.1852C31.3208 24.9317 31.08 24.7341 30.7983 24.6174C30.5166 24.5007 30.2066 24.4702 29.9076 24.5297C29.6085 24.5891 29.3338 24.736 29.1182 24.9516C28.9026 25.1672 28.7558 25.4419 28.6963 25.7409C28.6368 26.04 28.6673 26.35 28.784 26.6317C28.9007 26.9134 29.0983 27.1542 29.3518 27.3236ZM33.5185 27.3236C33.772 27.493 34.0701 27.5834 34.375 27.5834C34.7839 27.5834 35.176 27.421 35.4651 27.1318C35.7542 26.8427 35.9167 26.4506 35.9167 26.0417C35.9167 25.7368 35.8263 25.4387 35.6568 25.1852C35.4874 24.9317 35.2467 24.7341 34.965 24.6174C34.6833 24.5007 34.3733 24.4702 34.0742 24.5297C33.7752 24.5891 33.5005 24.736 33.2849 24.9516C33.0693 25.1672 32.9224 25.4419 32.863 25.7409C32.8035 26.04 32.834 26.35 32.9507 26.6317C33.0674 26.9134 33.265 27.1542 33.5185 27.3236ZM13 45.3334V35.9167H37V45.3334H13ZM33.5185 41.9069C33.772 42.0763 34.0701 42.1667 34.375 42.1667C34.7839 42.1667 35.176 42.0043 35.4651 41.7152C35.7542 41.426 35.9167 41.0339 35.9167 40.625C35.9167 40.3201 35.8263 40.0221 35.6568 39.7685C35.4874 39.515 35.2467 39.3174 34.965 39.2007C34.6833 39.084 34.3733 39.0535 34.0742 39.113C33.7752 39.1725 33.5005 39.3193 33.2849 39.5349C33.0693 39.7505 32.9224 40.0252 32.863 40.3243C32.8035 40.6233 32.834 40.9333 32.9507 41.215C33.0674 41.4967 33.265 41.7375 33.5185 41.9069Z" fill="#F64E1F" stroke="#F64E1F"/>
<path d="M39.8208 12.6802L39.8924 13.0429L40.2603 13.0807C41.6573 13.2242 43.0121 13.6427 44.2466 14.3121C45.4798 14.9807 46.5687 15.8864 47.4507 16.9773C48.7718 18.676 49.4921 20.7649 49.4988 22.9169C49.4981 25.2026 48.7083 27.418 47.2628 29.1887C45.9477 30.7997 44.1632 31.9527 42.1655 32.4928V16.6667V16.1667H41.6655H8.33218H7.83218V16.6667V31.8762C5.77599 31.0136 3.99713 29.591 2.70222 27.7642C1.26952 25.7429 0.5 23.3265 0.5 20.849C0.5 18.3714 1.26952 15.955 2.70222 13.9338C4.13492 11.9125 6.16006 10.3861 8.49778 9.56553L8.4978 9.56559L8.50556 9.56272C9.37627 9.24082 10.2819 9.0228 11.2037 8.91316L11.4666 8.88191L11.5885 8.64698C13.0312 5.86691 15.3023 3.60395 18.0876 2.17123C20.8728 0.738503 24.0345 0.206835 27.1352 0.649787C30.2358 1.09274 33.1222 2.48841 35.3949 4.6437C37.6675 6.79898 39.2142 9.60733 39.8208 12.6802Z" fill="#F64E1F" stroke="#F64E1F"/>
</g>
<defs>
<clipPath id="clip0_678_53">
<rect width="50" height="50" fill="white"/>
</clipPath>
</defs>
</svg>
