<svg width="50" height="50" viewBox="0 0 50 50" fill="none" xmlns="http://www.w3.org/2000/svg">
<path d="M33.3341 25.0001C39.0841 25.0001 43.7508 20.3334 43.7508 14.5834C43.7508 8.83342 39.0841 4.16675 33.3341 4.16675C27.5841 4.16675 22.9174 8.83342 22.9174 14.5834C22.9174 20.3334 27.5841 25.0001 33.3341 25.0001ZM44.6883 36.6668C43.8758 35.8334 42.855 35.4167 41.6675 35.4167H27.0841L22.7508 33.8959L23.4383 31.9376L27.0841 33.3334H32.9174C33.6466 33.3334 34.2299 33.0417 34.7091 32.5626C35.1883 32.0834 35.4175 31.5001 35.4175 30.8543C35.4175 29.7292 34.8758 28.9584 33.7924 28.5209L18.6466 22.9167H14.5841V41.6668L29.1674 45.8334L45.8966 39.5834C45.9175 38.4793 45.5008 37.5001 44.6883 36.6668ZM10.4174 22.9167H2.05078V45.8334H10.4174V22.9167Z" fill="#F64E1F"/>
</svg>
