<svg width="50" height="50" viewBox="0 0 50 50" fill="none" xmlns="http://www.w3.org/2000/svg">
<path d="M41.666 8.33337H8.33268C7.22761 8.33337 6.16781 8.77236 5.3864 9.55376C4.605 10.3352 4.16602 11.395 4.16602 12.5V37.5C4.16602 38.6051 4.605 39.6649 5.3864 40.4463C6.16781 41.2277 7.22761 41.6667 8.33268 41.6667H41.666C42.7711 41.6667 43.8309 41.2277 44.6123 40.4463C45.3937 39.6649 45.8327 38.6051 45.8327 37.5V12.5C45.8327 11.395 45.3937 10.3352 44.6123 9.55376C43.8309 8.77236 42.7711 8.33337 41.666 8.33337ZM43.7494 22.9167H6.24935V16.6667H43.7494V22.9167Z" fill="#EB4D23"/>
</svg>
