<svg width="90" height="90" viewBox="0 0 90 90" fill="none" xmlns="http://www.w3.org/2000/svg">
<path d="M78.75 41.7502H79.25V41.2502V30.0002V29.5002H78.75H11.25H10.75V30.0002V41.2502V41.7502H11.25H78.75ZM15 15.5002H75C76.8565 15.5002 78.637 16.2377 79.9497 17.5505C81.2625 18.8633 82 20.6437 82 22.5002V67.5002C82 69.3568 81.2625 71.1372 79.9497 72.45C78.637 73.7627 76.8565 74.5002 75 74.5002H15C13.1435 74.5002 11.363 73.7627 10.0503 72.45C8.7375 71.1372 8 69.3568 8 67.5002V22.5002C8 20.6437 8.7375 18.8633 10.0503 17.5505C11.363 16.2377 13.1435 15.5002 15 15.5002Z" fill="#F64E1F" stroke="white"/>
</svg>
