<svg width="20" height="20" viewBox="0 0 20 20" fill="none" xmlns="http://www.w3.org/2000/svg">
<path d="M18.332 11.6667H17.4987C17.4987 8.44166 14.8904 5.83333 11.6654 5.83333H10.832V4.775C11.0855 4.62868 11.2959 4.41822 11.4422 4.16477C11.5885 3.91132 11.6654 3.62383 11.6654 3.33119C11.6653 3.03856 11.5882 2.7511 11.4418 2.49773C11.2953 2.24436 11.0848 2.03401 10.8313 1.88782C10.5778 1.74163 10.2903 1.66477 9.99763 1.66496C9.705 1.66514 9.41757 1.74238 9.16426 1.88889C8.91094 2.0354 8.70066 2.24602 8.55457 2.49958C8.40849 2.75314 8.33173 3.0407 8.33203 3.33333C8.33203 3.95 8.66536 4.49166 9.16537 4.775V5.83333H8.33203C5.10703 5.83333 2.4987 8.44166 2.4987 11.6667H1.66536C1.20703 11.6667 0.832031 12.0417 0.832031 12.5V15C0.832031 15.4583 1.20703 15.8333 1.66536 15.8333H2.4987V16.6667C2.4987 17.1087 2.67429 17.5326 2.98685 17.8452C3.29941 18.1577 3.72334 18.3333 4.16536 18.3333H15.832C16.757 18.3333 17.4987 17.5917 17.4987 16.6667V15.8333H18.332C18.7904 15.8333 19.1654 15.4583 19.1654 15V12.5C19.1654 12.0417 18.7904 11.6667 18.332 11.6667ZM6.2487 15C5.69616 15 5.16626 14.7805 4.77556 14.3898C4.38486 13.9991 4.16536 13.4692 4.16536 12.9167C4.16536 12.2333 4.4987 11.6333 4.9987 11.25L8.19036 13.65C7.91536 14.4333 7.14037 15 6.2487 15ZM13.7487 15C12.857 15 12.082 14.4333 11.807 13.65L14.9987 11.25C15.4987 11.6333 15.832 12.2333 15.832 12.9167C15.832 13.4692 15.6125 13.9991 15.2218 14.3898C14.8311 14.7805 14.3012 15 13.7487 15Z" fill="#97AAB6"/>
</svg>
