<svg width="18" height="16" viewBox="0 0 18 16" fill="none" xmlns="http://www.w3.org/2000/svg">
<path d="M16.64 0.148422C14.9759 0.148422 13.1009 1.0703 11.0853 2.87498C9.67122 4.14061 8.46028 5.58592 7.62435 6.67967C6.92318 6.46626 6.1818 6.41995 5.45953 6.54446C4.73726 6.66896 4.05417 6.96082 3.46493 7.39668C2.87569 7.83253 2.39667 8.40028 2.06621 9.05447C1.73574 9.70866 1.56301 10.4311 1.56185 11.164C1.56185 13.6015 0.296221 14.6875 0.233721 14.7422C0.13194 14.8208 0.0580505 14.93 0.0228983 15.0538C-0.0122538 15.1775 -0.00681779 15.3093 0.0384085 15.4297C0.078366 15.5533 0.156765 15.6608 0.262169 15.7367C0.367574 15.8126 0.49447 15.8529 0.624346 15.8515H6.24935C6.98227 15.8504 7.70473 15.6777 8.35893 15.3472C9.01312 15.0167 9.58086 14.5377 10.0167 13.9485C10.4526 13.3592 10.7444 12.6761 10.8689 11.9539C10.9934 11.2316 10.9471 10.4902 10.7337 9.78905C11.8275 8.95311 13.2728 7.74217 14.5384 6.32811C16.3431 4.31248 17.265 2.43748 17.265 0.773422C17.265 0.607662 17.1991 0.448691 17.0819 0.33148C16.9647 0.21427 16.8057 0.148422 16.64 0.148422ZM8.7806 7.22655C9.00716 6.93748 9.27278 6.60936 9.57747 6.24998C10.2028 6.67218 10.7412 7.21059 11.1634 7.83592C10.804 8.14061 10.4759 8.40623 10.1868 8.6328C9.82522 8.06793 9.34546 7.58817 8.7806 7.22655ZM12.1087 6.99998C11.6413 6.34499 11.0684 5.77211 10.4134 5.30467C11.9447 3.64842 14.0072 1.83592 15.9447 1.46873C15.5775 3.40623 13.765 5.46873 12.1087 6.99998Z" fill="#97AAB6"/>
</svg>
