<svg width="20" height="20" viewBox="0 0 20 20" fill="none" xmlns="http://www.w3.org/2000/svg">
<path d="M18.8709 9.58516C18.0424 5.83945 16.7955 3.84023 14.9459 3.29414C14.5571 3.1801 14.1538 3.12312 13.7487 3.125C13.2131 3.125 12.7467 3.25547 12.2533 3.39375C11.6588 3.56055 10.9834 3.75 9.99866 3.75C9.01389 3.75 8.33811 3.56094 7.74241 3.39414C7.24866 3.25547 6.78264 3.125 6.24866 3.125C5.82968 3.12355 5.41254 3.18034 5.0092 3.29375C3.16936 3.8375 1.92327 5.83594 1.08264 9.58281C0.178734 13.6148 0.623656 16.1605 2.3303 16.7512C2.56423 16.8336 2.81038 16.8762 3.05842 16.877C4.22756 16.877 5.16506 15.9031 5.80569 15.1059C6.52952 14.2035 7.37678 13.7457 9.99866 13.7457C12.3405 13.7457 13.3096 14.0633 14.1467 15.1059C14.6729 15.7613 15.1701 16.2199 15.6662 16.5086C16.326 16.8922 16.9854 16.9773 17.6256 16.7574C18.6342 16.4133 19.2123 15.5035 19.3444 14.0527C19.4447 12.9402 19.2901 11.4789 18.8709 9.58516ZM8.12366 9.375H6.87366V10.625C6.87366 10.7908 6.80781 10.9497 6.6906 11.0669C6.57339 11.1842 6.41442 11.25 6.24866 11.25C6.0829 11.25 5.92392 11.1842 5.80671 11.0669C5.6895 10.9497 5.62366 10.7908 5.62366 10.625V9.375H4.37366C4.2079 9.375 4.04892 9.30915 3.93171 9.19194C3.8145 9.07473 3.74866 8.91576 3.74866 8.75C3.74866 8.58424 3.8145 8.42527 3.93171 8.30806C4.04892 8.19085 4.2079 8.125 4.37366 8.125H5.62366V6.875C5.62366 6.70924 5.6895 6.55027 5.80671 6.43306C5.92392 6.31585 6.0829 6.25 6.24866 6.25C6.41442 6.25 6.57339 6.31585 6.6906 6.43306C6.80781 6.55027 6.87366 6.70924 6.87366 6.875V8.125H8.12366C8.28942 8.125 8.44839 8.19085 8.5656 8.30806C8.68281 8.42527 8.74866 8.58424 8.74866 8.75C8.74866 8.91576 8.68281 9.07473 8.5656 9.19194C8.44839 9.30915 8.28942 9.375 8.12366 9.375ZM11.4049 9.53125C11.2504 9.53125 11.0993 9.48543 10.9709 9.39958C10.8424 9.31374 10.7423 9.19173 10.6831 9.04897C10.624 8.90622 10.6085 8.74913 10.6387 8.59758C10.6688 8.44604 10.7432 8.30683 10.8525 8.19757C10.9617 8.08831 11.1009 8.01391 11.2525 7.98376C11.404 7.95362 11.5611 7.96909 11.7039 8.02822C11.8466 8.08735 11.9686 8.18748 12.0545 8.31596C12.1403 8.44444 12.1862 8.59548 12.1862 8.75C12.1862 8.9572 12.1038 9.15591 11.9573 9.30243C11.8108 9.44894 11.6121 9.53125 11.4049 9.53125ZM13.1237 11.25C12.9691 11.25 12.8179 11.2041 12.6894 11.1182C12.5609 11.0323 12.4608 10.9101 12.4017 10.7673C12.3426 10.6244 12.3273 10.4672 12.3576 10.3156C12.3879 10.164 12.4625 10.0248 12.5719 9.91563C12.6814 9.80645 12.8208 9.7322 12.9724 9.70227C13.1241 9.67235 13.2813 9.6881 13.424 9.74753C13.5667 9.80696 13.6886 9.9074 13.7742 10.0361C13.8598 10.1649 13.9053 10.3161 13.9049 10.4707C13.9044 10.6776 13.8219 10.8758 13.6754 11.0219C13.5289 11.168 13.3305 11.25 13.1237 11.25ZM13.1237 7.8125C12.9691 7.8125 12.8181 7.76668 12.6896 7.68083C12.5611 7.59499 12.461 7.47298 12.4019 7.33022C12.3427 7.18747 12.3273 7.03038 12.3574 6.87883C12.3876 6.72729 12.462 6.58808 12.5712 6.47882C12.6805 6.36956 12.8197 6.29516 12.9712 6.26501C13.1228 6.23487 13.2799 6.25034 13.4226 6.30947C13.5654 6.3686 13.6874 6.46873 13.7732 6.59721C13.8591 6.72569 13.9049 6.87673 13.9049 7.03125C13.9049 7.23845 13.8226 7.43716 13.6761 7.58368C13.5296 7.73019 13.3309 7.8125 13.1237 7.8125ZM14.8424 9.53125C14.6879 9.53125 14.5368 9.48543 14.4084 9.39958C14.2799 9.31374 14.1798 9.19173 14.1206 9.04897C14.0615 8.90622 14.046 8.74913 14.0762 8.59758C14.1063 8.44604 14.1807 8.30683 14.29 8.19757C14.3992 8.08831 14.5384 8.01391 14.69 7.98376C14.8415 7.95362 14.9986 7.96909 15.1414 8.02822C15.2841 8.08735 15.4061 8.18748 15.492 8.31596C15.5778 8.44444 15.6237 8.59548 15.6237 8.75C15.6237 8.9572 15.5413 9.15591 15.3948 9.30243C15.2483 9.44894 15.0496 9.53125 14.8424 9.53125Z" fill="#97AAB6"/>
</svg>
