<svg width="90" height="90" viewBox="0 0 90 90" fill="none" xmlns="http://www.w3.org/2000/svg">
<path d="M25.3125 38.875H25.3124C24.27 38.8752 23.2377 38.6701 22.2746 38.2713C21.3115 37.8725 20.4364 37.2878 19.6993 36.5507C18.9622 35.8136 18.3775 34.9385 17.9787 33.9754C17.5799 33.0123 17.3748 31.98 17.375 30.9376V30.9375C17.375 26.5524 20.9274 23 25.3125 23C29.6976 23 33.25 26.5524 33.25 30.9375C33.25 33.0427 32.4137 35.0616 30.9252 36.5502C29.4366 38.0387 27.4177 38.875 25.3125 38.875ZM64.6875 38.875H64.6874C63.645 38.8752 62.6127 38.6701 61.6496 38.2713C60.6865 37.8725 59.8114 37.2878 59.0743 36.5507C58.3372 35.8136 57.7525 34.9385 57.3537 33.9754C56.9549 33.0123 56.7498 31.98 56.75 30.9376V30.9375C56.75 26.5524 60.3024 23 64.6875 23C69.0726 23 72.625 26.5524 72.625 30.9375C72.625 33.0427 71.7887 35.0616 70.3002 36.5502C68.8116 38.0387 66.7927 38.875 64.6875 38.875ZM8 53.1244C8 51.6247 8.66571 50.2869 9.80713 49.1043C10.9533 47.9167 12.5613 46.9065 14.3824 46.0874C18.0281 44.4477 22.4113 43.625 25.3125 43.625C28.2137 43.625 32.5969 44.4477 36.2426 46.0874C38.0637 46.9065 39.6717 47.9167 40.8179 49.1043C41.9593 50.2869 42.625 51.6247 42.625 53.1244V67H8V53.1244ZM50.125 28.125C50.125 29.4842 49.585 30.7878 48.6239 31.7489C47.6628 32.71 46.3592 33.25 45 33.25C43.6408 33.25 42.3372 32.71 41.3761 31.7489C40.415 30.7878 39.875 29.4842 39.875 28.125C39.875 26.7658 40.415 25.4622 41.3761 24.5011C42.3372 23.54 43.6408 23 45 23C46.3592 23 47.6628 23.54 48.6239 24.5011C49.585 25.4622 50.125 26.7658 50.125 28.125ZM47.375 53.1244C47.375 51.6247 48.0407 50.2869 49.1821 49.1043C50.3283 47.9167 51.9363 46.9065 53.7574 46.0874C57.4031 44.4477 61.7863 43.625 64.6875 43.625C67.5887 43.625 71.9719 44.4477 75.6176 46.0874C77.4387 46.9065 79.0467 47.9167 80.1929 49.1043C81.3343 50.2869 82 51.6247 82 53.1244V67H47.375V53.1244Z" fill="#F64E1F" stroke="white"/>
<path d="M45.943 45.7273L45.9423 45.728C45.6159 46.0505 45.299 46.3942 44.9995 46.7605C44.7046 46.399 44.3898 46.054 44.0566 45.7271C42.2732 43.9728 39.9958 42.6754 37.7658 41.724C37.6296 41.6658 37.4931 41.6086 37.3562 41.5523C39.9469 40.4366 42.9708 39.875 44.9999 39.875C47.0289 39.875 50.0522 40.4365 52.6415 41.5519C52.5042 41.6083 52.3675 41.6657 52.2316 41.7242C50.0056 42.6755 47.7264 43.973 45.943 45.7273Z" fill="#F64E1F" stroke="white"/>
</svg>
