<svg width="20" height="20" viewBox="0 0 20 20" fill="none" xmlns="http://www.w3.org/2000/svg">
<path d="M6.66797 10.8341H8.33464V12.5008H6.66797V10.8341Z" fill="#97AAB6"/>
<path d="M17.3148 1.66672H9.90741C9.41627 1.66672 8.94524 1.85109 8.59795 2.17928C8.25066 2.50747 8.05556 2.95259 8.05556 3.41672V8.66672H4.35185C3.33056 8.66672 2.5 9.45159 2.5 10.4167V18.2917C2.5 18.5238 2.59755 18.7463 2.7712 18.9104C2.94484 19.0745 3.18036 19.1667 3.42593 19.1667H18.2407C18.4863 19.1667 18.7218 19.0745 18.8955 18.9104C19.0691 18.7463 19.1667 18.5238 19.1667 18.2917V3.41672C19.1667 2.95259 18.9716 2.50747 18.6243 2.17928C18.277 1.85109 17.806 1.66672 17.3148 1.66672ZM4.35185 17.4167V10.4167H9.90741V17.4167H4.35185ZM12.6852 6.91672H10.8333V5.16672H12.6852V6.91672ZM16.3889 13.9167H14.537V12.1667H16.3889V13.9167ZM16.3889 10.4167H14.537V8.66672H16.3889V10.4167ZM16.3889 6.91672H14.537V5.16672H16.3889V6.91672Z" fill="#97AAB6"/>
<path d="M2.78045 5.92922L3.67148 6.15281C3.45672 3.88006 5.07802 2.48769 7.29225 3.04331L7.20582 2.12872C4.50152 1.45013 2.52016 3.15172 2.78045 5.92922ZM6.3446 6.82358L7.68116 7.15896L7.55152 5.78708C7.37591 5.74278 7.20535 5.73446 7.04959 5.7626C6.89383 5.79074 6.75594 5.85479 6.64383 5.95107C6.53171 6.04736 6.44757 6.17399 6.39623 6.32371C6.34488 6.47343 6.32734 6.64329 6.3446 6.82358ZM4.56252 6.3764L5.45356 6.59999C5.39651 5.99372 5.57634 5.4712 5.95353 5.14727C6.33072 4.82335 6.8744 4.72451 7.4651 4.87249L7.37867 3.9579C5.65897 3.52637 4.39773 4.60952 4.56252 6.3764Z" fill="#97AAB6"/>
</svg>
