<svg width="50" height="50" viewBox="0 0 50 50" fill="none" xmlns="http://www.w3.org/2000/svg">
<path d="M27.0827 6.25C19.2286 6.25 12.8952 12.3958 12.4994 20.125L8.49941 25.3958C7.99941 26.0417 8.49941 27.0833 9.37441 27.0833H12.4994V33.3333C12.4994 35.6458 14.3536 37.5 16.6661 37.5H18.7494V43.75H33.3327V33.9792C38.2702 31.6458 41.6661 26.6667 41.6661 20.8333C41.6661 12.7917 35.1661 6.25 27.0827 6.25ZM29.1661 29.1667H24.9994V27.0833H29.1661V29.1667ZM32.4994 19.7917C31.9445 20.7285 31.1546 21.5041 30.2077 22.0417V25H23.9577V22.0417C20.9786 20.3125 19.9369 16.5 21.6661 13.5417C23.3952 10.5833 27.2286 9.5 30.2077 11.2083C33.1869 12.9167 34.2286 16.7708 32.4994 19.7917Z" fill="#F64E1F"/>
</svg>
