<svg width="68" height="68" viewBox="0 0 68 68" fill="none" xmlns="http://www.w3.org/2000/svg">
<circle cx="34" cy="34" r="34" fill="#03A5F0" fill-opacity="0.15"/>
<path d="M33.925 21.7625L30.9125 28.775H27.9C27.4 28.775 26.9125 28.8125 26.4375 28.9125L27.6875 25.9125L27.7375 25.8L27.8125 25.6C27.85 25.5125 27.875 25.4375 27.9125 25.375C29.3625 22.0125 30.9875 20.9625 33.925 21.7625Z" fill="#03A5F0"/>
<path d="M42.4109 29.1124L42.3859 29.0999C41.6359 28.8874 40.8734 28.7749 40.0984 28.7749H32.2734L35.0859 22.2374L35.1234 22.1499C35.2984 22.2124 35.4859 22.2999 35.6734 22.3624L38.4359 23.5249C39.9734 24.1624 41.0484 24.8249 41.7109 25.6249C41.8234 25.7749 41.9234 25.9124 42.0234 26.0749C42.1359 26.2499 42.2234 26.4249 42.2734 26.6124C42.3234 26.7249 42.3609 26.8249 42.3859 26.9374C42.5734 27.5749 42.5859 28.2999 42.4109 29.1124Z" fill="#03A5F0"/>
<path d="M41.8633 30.8999C41.3008 30.7374 40.7133 30.6499 40.1008 30.6499H27.9008C27.0508 30.6499 26.2508 30.8124 25.5008 31.1374C23.3258 32.0749 21.8008 34.2374 21.8008 36.7499V39.1874C21.8008 39.4874 21.8258 39.7749 21.8633 40.0749C22.1383 44.0499 24.2633 46.1749 28.2383 46.4374C28.5258 46.4749 28.8133 46.4999 29.1258 46.4999H38.8758C43.5008 46.4999 45.9383 44.2999 46.1758 39.9249C46.1883 39.6874 46.2008 39.4374 46.2008 39.1874V36.7499C46.2008 33.9874 44.3633 31.6624 41.8633 30.8999ZM37.1258 39.9374H30.8758C30.3633 39.9374 29.9383 39.5124 29.9383 38.9999C29.9383 38.4874 30.3633 38.0624 30.8758 38.0624H37.1258C37.6383 38.0624 38.0633 38.4874 38.0633 38.9999C38.0633 39.5124 37.6383 39.9374 37.1258 39.9374Z" fill="#03A5F0"/>
</svg>
