<svg width="50" height="50" viewBox="0 0 50 50" fill="none" xmlns="http://www.w3.org/2000/svg">
<path d="M39.3976 2.25391C39.3976 2.25391 32.474 7.79658 27.8663 9.13994C23.2587 10.4833 20.9677 7.6293 20.9677 7.6293C20.9677 7.6293 22.3983 10.997 19.0313 14.4158C15.664 17.8348 7.49697 21.3036 7.49697 21.3036L7.26592 22.664L7.896 23.457L2.8665 36.7779C2.80791 36.8854 2.80859 36.9834 2.80859 37.1015C2.80859 38.9469 3.61445 40.4455 4.79522 41.3983C5.97588 42.3513 7.48701 42.7958 8.98838 42.796C10.4899 42.7963 12.0037 42.3512 13.1846 41.3983C14.3654 40.4456 15.1712 38.9478 15.1712 37.1015C15.1905 36.9694 15.1524 36.8753 15.1041 36.7566L9.73906 23.6094C9.74482 23.4753 9.7624 23.3315 9.89053 23.0232C11.8765 21.4957 16.6773 17.9992 20.2719 16.9982C22.1222 16.4833 23.7462 17.05 23.6913 17.6756L21.0804 36.0915L23.1708 39.0515C21.4374 39.8083 19.9879 41.4772 19.5026 44.0655C14.0265 44.6705 10.1795 46.0911 10.1795 47.7462H40.636C40.636 46.0912 36.7892 44.6705 31.3131 44.0655C30.8336 41.4679 29.402 39.7577 27.6815 38.9966L29.7323 36.0913L26.7307 17.0878C27.1379 15.2166 28.4989 12.9202 29.5505 11.4575C31.1355 9.26855 40.1192 5.04619 40.2594 5.19814L34.8943 18.3453C34.846 18.4641 34.8079 18.5582 34.8272 18.6902C34.8272 20.5365 35.633 22.0344 36.8139 22.9871C37.9947 23.9399 39.5087 24.3851 41.0103 24.3848C42.5116 24.3845 44.0226 23.94 45.2032 22.9871C46.3839 22.0343 47.19 20.5356 47.19 18.6902C47.19 18.5721 47.1904 18.4742 47.1319 18.3667L42.0692 4.95732C42.164 4.48193 42.4589 4.12129 42.762 3.78213L41.6064 2.33818L39.3976 2.25391ZM41.1812 7.77402L45.1788 18.3575H36.8629L41.1812 7.77402ZM8.81729 26.1854L13.1356 36.7688H4.81963L8.81729 26.1854Z" fill="#F64E1F"/>
</svg>
