<svg width="20" height="20" viewBox="0 0 20 20" fill="none" xmlns="http://www.w3.org/2000/svg">
<path d="M8.33464 3.33333C10.168 3.33333 11.668 4.83333 11.668 6.66666C11.668 8.49999 10.168 9.99999 8.33464 9.99999C6.5013 9.99999 5.0013 8.49999 5.0013 6.66666C5.0013 4.83333 6.5013 3.33333 8.33464 3.33333ZM14.168 17.5L15.668 18.975C16.0846 19.3917 16.668 19.0583 16.668 18.5667V15L19.0013 12.1667C19.0942 12.0429 19.1507 11.8956 19.1646 11.7415C19.1785 11.5874 19.1492 11.4324 19.08 11.294C19.0108 11.1556 18.9044 11.0391 18.7727 10.9578C18.6411 10.8764 18.4894 10.8333 18.3346 10.8333H12.5013C11.8346 10.8333 11.418 11.6667 11.8346 12.1667L14.168 15V17.5ZM12.5013 15.5833L10.5846 13.25C10.2513 12.8333 10.0846 12.3333 10.0846 11.8333C9.5013 11.6667 8.91797 11.6667 8.33464 11.6667C4.66797 11.6667 1.66797 13.1667 1.66797 15V16.6667H12.5013V15.5833Z" fill="#97AAB6"/>
</svg>
