<svg width="50" height="50" viewBox="0 0 50 50" fill="none" xmlns="http://www.w3.org/2000/svg">
<path d="M25.2656 8.32031L17.7031 15.9766C16.4453 17.2461 16.2031 19.5312 17.1562 21.1621C18.1641 22.9004 20.125 23.2422 21.4766 21.9238L29.2344 14.3848C29.7812 13.8574 30.5625 13.9746 30.9922 14.6582C31.4219 15.3418 31.3203 16.3184 30.7734 16.8555L29.1406 18.4375L42.9844 34.375H46.25C48.3203 34.375 50 32.2754 50 29.6875V17.1875C50 14.5996 48.3203 12.5 46.25 12.5H39.9453L39.6406 12.2559L33.9688 7.71484C32.7734 6.75781 31.375 6.25 29.9531 6.25C28.25 6.25 26.5938 6.98242 25.2656 8.32031ZM27.0469 20.4688L23.0078 24.3945C20.5469 26.7969 16.9766 26.1719 15.1328 23.0078C13.3984 20.0293 13.8359 15.8691 16.125 13.5547L22.625 6.98242C21.7188 6.50391 20.7422 6.25977 19.75 6.25977C18.2812 6.25 16.8516 6.79688 15.625 7.8125L10 12.5H3.75C1.67969 12.5 0 14.5996 0 17.1875V29.6875C0 32.2754 1.67969 34.375 3.75 34.375H12.2031L19.3438 42.5195C20.875 44.2676 23.2422 44.1309 24.6406 42.2168C25.0703 41.6211 25.3594 40.9277 25.5078 40.2051L26.8359 41.7285C28.3594 43.4766 30.7344 43.3496 32.1328 41.4453C32.4844 40.9668 32.7422 40.4102 32.9062 39.834C34.4219 41.1035 36.4844 40.8398 37.7578 39.1016C39.1562 37.1973 39.0547 34.2285 37.5312 32.4805L27.0469 20.4688Z" fill="#F64E1F"/>
</svg>
