<svg width="29" height="31" viewBox="0 0 29 31" fill="none" xmlns="http://www.w3.org/2000/svg">
<path d="M26.2608 13.8764C27.3523 14.5653 27.3523 16.1568 26.2608 16.8457L10.2265 26.9649C9.05754 27.7026 7.53404 26.8626 7.53404 25.4803L7.53404 5.24183C7.53404 3.85951 9.05754 3.01947 10.2265 3.75721L26.2608 13.8764Z" fill="#60A297"/>
<path d="M24.4336 17.9943L10.2249 26.9641C9.05594 27.7021 7.53222 26.862 7.53222 25.4796L7.53222 5.43634C7.53222 3.87552 9.41657 3.0908 10.5244 4.19027L24.4336 17.9943Z" fill="#60A297"/>
<path d="M24.4336 12.7278L10.5254 26.5523C9.41792 27.6531 7.53222 26.8687 7.53222 25.3072L7.53222 5.23365C7.53222 3.85087 9.05663 3.0109 10.2256 3.74957L24.4336 12.7278Z" fill="#60A297"/>
<line y1="-0.438887" x2="24.3667" y2="-0.438887" transform="matrix(0.707669 0.706544 -0.598821 0.800883 9.07812 3.35718)" stroke="white" stroke-width="0.877774"/>
<line y1="-0.438887" x2="24.3373" y2="-0.438887" transform="matrix(-0.713599 0.700555 -0.592342 -0.805687 24.8203 11.4111)" stroke="white" stroke-width="0.877774"/>
</svg>
