<svg width="37" height="36" viewBox="0 0 37 36" fill="none" xmlns="http://www.w3.org/2000/svg">
<path d="M33.786 16.2447C35.1745 17.003 35.1745 18.997 33.786 19.7553L12.2086 31.5396C10.8759 32.2675 9.25 31.3029 9.25 29.7843L9.25 6.21567C9.25 4.69708 10.8759 3.73251 12.2086 4.46039L33.786 16.2447Z" fill="white"/>
<path d="M31.5 20.9999L12.2089 31.5388C10.8761 32.2669 9.25 31.3023 9.25 29.7836L9.25 6.24468C9.25 4.53505 11.2561 3.61356 12.5531 4.72744L31.5 20.9999Z" fill="#DDDDDD" fill-opacity="0.6"/>
<path d="M31.5 15.0001L12.5542 31.2968C11.2576 32.4121 9.25 31.4909 9.25 29.7806L9.25 6.20597C9.25 4.6869 10.8768 3.72237 12.2096 4.45121L31.5 15.0001Z" fill="#DDDDDD" fill-opacity="0.5"/>
<line x1="11.6042" y1="3.94637" x2="34.3047" y2="23.5598" stroke="#60A297"/>
<line x1="32.3237" y1="13.8811" x2="9.46065" y2="33.3047" stroke="#60A297"/>
</svg>
