<svg width="68" height="68" viewBox="0 0 68 68" fill="none" xmlns="http://www.w3.org/2000/svg">
<circle cx="34" cy="34" r="34" fill="#F64E1F" fill-opacity="0.15"/>
<path d="M32.4375 35.25C32.4375 34.3871 33.1371 33.6875 34 33.6875C34.8629 33.6875 35.5625 34.3871 35.5625 35.25C35.5625 36.1129 34.8629 36.8125 34 36.8125C33.1371 36.8125 32.4375 36.1129 32.4375 35.25Z" fill="#F64E1F"/>
<path fill-rule="evenodd" clip-rule="evenodd" d="M34 20.5625C30.0305 20.5625 26.8125 23.7805 26.8125 27.75V29.1421C26.8125 29.2257 26.8234 29.3066 26.8439 29.3837C25.0488 30.0433 23.6496 31.4915 23.0559 33.3186C22.75 34.2601 22.75 35.4234 22.75 37.75C22.75 40.0766 22.75 41.2399 23.0559 42.1814C23.6741 44.0841 25.1659 45.5759 27.0686 46.1941C28.0101 46.5 29.1734 46.5 31.5 46.5H36.5C38.8266 46.5 39.9899 46.5 40.9314 46.1941C42.8341 45.5759 44.3259 44.0841 44.9441 42.1814C45.25 41.2399 45.25 40.0766 45.25 37.75C45.25 35.4234 45.25 34.2601 44.9441 33.3186C44.3504 31.4915 42.9512 30.0433 41.1561 29.3837C41.1766 29.3066 41.1875 29.2257 41.1875 29.1421V27.75C41.1875 23.7805 37.9695 20.5625 34 20.5625ZM36.5 29C37.7066 29 38.6003 29 39.3125 29.0427V27.75C39.3125 24.816 36.934 22.4375 34 22.4375C31.066 22.4375 28.6875 24.816 28.6875 27.75V29.0427C29.3997 29 30.2934 29 31.5 29H36.5ZM30.5625 35.25C30.5625 33.3515 32.1015 31.8125 34 31.8125C35.8985 31.8125 37.4375 33.3515 37.4375 35.25C37.4375 36.8235 36.3803 38.15 34.9375 38.5581V42.75C34.9375 43.2678 34.5178 43.6875 34 43.6875C33.4822 43.6875 33.0625 43.2678 33.0625 42.75V38.5581C31.6197 38.15 30.5625 36.8235 30.5625 35.25Z" fill="#F64E1F"/>
</svg>
