<svg width="68" height="68" viewBox="0 0 68 68" fill="none" xmlns="http://www.w3.org/2000/svg">
<circle cx="34" cy="34" r="34" fill="#3572AD" fill-opacity="0.19"/>
<path d="M44.4484 34.9125C43.9859 34.9125 43.5984 34.5625 43.5484 34.1C43.2484 31.35 41.7734 28.875 39.4984 27.3C39.0859 27.0125 38.9859 26.45 39.2734 26.0375C39.5609 25.625 40.1234 25.525 40.5359 25.8125C43.2484 27.7 44.9984 30.65 45.3609 33.9125C45.4109 34.4125 45.0484 34.8625 44.5484 34.9125C44.5109 34.9125 44.4859 34.9125 44.4484 34.9125Z" fill="#3572AD"/>
<path d="M23.678 34.975C23.653 34.975 23.6155 34.975 23.5905 34.975C23.0905 34.925 22.728 34.475 22.778 33.975C23.1155 30.7125 24.8405 27.7625 27.528 25.8625C27.928 25.575 28.503 25.675 28.7905 26.075C29.078 26.4875 28.978 27.05 28.578 27.3375C26.328 28.9375 24.8655 31.4125 24.5905 34.15C24.5405 34.625 24.1405 34.975 23.678 34.975Z" fill="#3572AD"/>
<path d="M38.9838 45.3749C37.4463 46.1124 35.7963 46.4874 34.0713 46.4874C32.2713 46.4874 30.5588 46.0874 28.9588 45.2749C28.5088 45.0624 28.3338 44.5124 28.5588 44.0624C28.7713 43.6124 29.3213 43.4374 29.7713 43.6499C30.5588 44.0499 31.3963 44.3249 32.2463 44.4874C33.3963 44.7124 34.5713 44.7249 35.7213 44.5249C36.5713 44.3749 37.4088 44.1124 38.1838 43.7374C38.6463 43.5249 39.1963 43.6999 39.3963 44.1624C39.6213 44.6124 39.4463 45.1624 38.9838 45.3749Z" fill="#3572AD"/>
<path d="M34.0641 21.5125C32.1266 21.5125 30.5391 23.0875 30.5391 25.0375C30.5391 26.9875 32.1141 28.5625 34.0641 28.5625C36.0141 28.5625 37.5891 26.9875 37.5891 25.0375C37.5891 23.0875 36.0141 21.5125 34.0641 21.5125Z" fill="#3572AD"/>
<path d="M25.3141 36.3374C23.3766 36.3374 21.7891 37.9124 21.7891 39.8624C21.7891 41.8124 23.3641 43.3874 25.3141 43.3874C27.2641 43.3874 28.8391 41.8124 28.8391 39.8624C28.8391 37.9124 27.2516 36.3374 25.3141 36.3374Z" fill="#3572AD"/>
<path d="M42.6891 36.3374C40.7516 36.3374 39.1641 37.9124 39.1641 39.8624C39.1641 41.8124 40.7391 43.3874 42.6891 43.3874C44.6391 43.3874 46.2141 41.8124 46.2141 39.8624C46.2141 37.9124 44.6391 36.3374 42.6891 36.3374Z" fill="#3572AD"/>
</svg>
