<svg width="16" height="20" viewBox="0 0 16 20" fill="none" xmlns="http://www.w3.org/2000/svg">
<path d="M8 0.833328L0.5 4.16666V9.16666C0.5 13.7917 3.7 18.1167 8 19.1667C12.3 18.1167 15.5 13.7917 15.5 9.16666V4.16666L8 0.833328ZM8 5.83333C9.16667 5.83333 10.3333 6.75 10.3333 7.91666V9.16666C10.8333 9.16666 11.3333 9.66666 11.3333 10.25V13.1667C11.3333 13.6667 10.8333 14.1667 10.25 14.1667H5.66667C5.16667 14.1667 4.66667 13.6667 4.66667 13.0833V10.1667C4.66667 9.66666 5.16667 9.16666 5.66667 9.16666V7.91666C5.66667 6.75 6.83333 5.83333 8 5.83333ZM8 6.83333C7.33333 6.83333 6.75 7.25 6.75 7.91666V9.16666H9.25V7.91666C9.25 7.25 8.66667 6.83333 8 6.83333Z" fill="#97AAB6"/>
</svg>
