<svg width="68" height="68" viewBox="0 0 68 68" fill="none" xmlns="http://www.w3.org/2000/svg">
<circle cx="34" cy="34" r="34" fill="#60A297" fill-opacity="0.15"/>
<path d="M35.8617 35.7251H32.7492C32.3742 35.7251 32.0742 36.0251 32.0742 36.4001C32.0742 36.7751 32.3742 37.0751 32.7492 37.0751H35.8617C36.2367 37.0751 36.5367 36.7751 36.5367 36.4001C36.5367 36.0251 36.2367 35.7251 35.8617 35.7251Z" fill="#60A297"/>
<path d="M30.8 35.7251H29.2375C28.8625 35.7251 28.5625 36.0251 28.5625 36.4001C28.5625 36.7751 28.8625 37.0751 29.2375 37.0751H30.8C31.175 37.0751 31.475 36.7751 31.475 36.4001C31.475 36.0251 31.175 35.7251 30.8 35.7251Z" fill="#60A297"/>
<path d="M42.175 24.275L35.3 21.7C34.5875 21.4375 33.425 21.4375 32.7125 21.7L25.8375 24.275C24.5125 24.775 23.4375 26.325 23.4375 27.7375V37.8625C23.4375 38.875 24.1 40.2125 24.9125 40.8125L31.7875 45.95C33 46.8625 34.9875 46.8625 36.2 45.95L43.075 40.8125C43.8875 40.2 44.55 38.875 44.55 37.8625V27.7375C44.5625 26.325 43.4875 24.775 42.175 24.275ZM41.7125 36.0625C41.6875 38.65 40.975 39.3 38.2875 39.3H29.725C26.9875 39.3 26.3 38.625 26.3 35.9125V33C26.3 32.65 26.575 32.375 26.925 32.375H41.0875C41.4375 32.375 41.7125 32.65 41.7125 33V36.0625ZM41.7125 30.3875C41.7125 30.7375 41.4375 31.0125 41.0875 31.0125H26.925C26.575 31.0125 26.3 30.7375 26.3 30.3875V29.5875C26.3 27.1375 26.875 26.35 29.0125 26.2125C29.2375 26.2125 29.475 26.2 29.725 26.2H38.2875C41.025 26.2 41.7125 26.875 41.7125 29.5875V30.3875Z" fill="#60A297"/>
</svg>
