<svg width="17" height="16" viewBox="0 0 17 16" fill="none" xmlns="http://www.w3.org/2000/svg">
<path d="M11.6667 12.1667H9.16667V8.83333H7.5V12.1667H5V13H0V14.6667H5V15.5H11.6667V14.6667H16.6667V13H11.6667V12.1667ZM10.8333 8.83333H13.3333C13.5543 8.83333 13.7663 8.74554 13.9226 8.58926C14.0789 8.43297 14.1667 8.22101 14.1667 8V2.16667C14.1667 1.94565 14.0789 1.73369 13.9226 1.57741C13.7663 1.42113 13.5543 1.33333 13.3333 1.33333H8.33333L7.5 0.5H3.33333C3.11232 0.5 2.90036 0.587797 2.74408 0.744078C2.5878 0.900358 2.5 1.11232 2.5 1.33333V8C2.5 8.22101 2.5878 8.43297 2.74408 8.58926C2.90036 8.74554 3.11232 8.83333 3.33333 8.83333H10.8333Z" fill="#97AAB6"/>
</svg>
