<svg width="12" height="18" viewBox="0 0 12 18" fill="none" xmlns="http://www.w3.org/2000/svg">
<path d="M2.84297 13.1667C3.20964 12.4583 3.5513 11.6333 3.86797 10.6667H3.5013V9H4.33464C4.84297 6.83334 5.16797 4.10834 5.16797 0.666672H6.83464C6.83464 4.10834 7.16797 6.83334 7.66797 9H8.5013V10.6667H8.13464C8.4513 11.6333 8.79297 12.4583 9.15964 13.1667H10.168V14.8333L11.8346 17.3333H9.81797C9.1763 15.8667 7.70964 14.8333 6.0013 14.8333C4.29297 14.8333 2.8263 15.8667 2.18464 17.3333H0.167969L1.83464 14.8333L1.80964 13.1667H2.84297ZM6.49297 10.6667H5.50964C5.25761 11.522 4.94287 12.3576 4.56797 13.1667H7.43464C7.1013 12.4417 6.7763 11.6083 6.49297 10.6667Z" fill="#97AAB6"/>
</svg>
