<svg width="90" height="90" viewBox="0 0 90 90" fill="none" xmlns="http://www.w3.org/2000/svg">
<path d="M61.875 55.3438H62.375V54.8438V50.625C62.375 49.0005 61.7297 47.4426 60.581 46.294C59.4324 45.1453 57.8745 44.5 56.25 44.5H33.75C32.1255 44.5 30.5676 45.1453 29.419 46.294C28.2703 47.4426 27.625 49.0005 27.625 50.625V54.8437V55.3437H28.125H32.3437C33.703 55.3437 35.0065 55.8837 35.9677 56.8448C36.9288 57.806 37.4687 59.1095 37.4687 60.4687L37.4687 74.5312C37.4687 75.8905 36.9288 77.194 35.9677 78.1552C35.0065 79.1163 33.703 79.6562 32.3437 79.6562H18.2812C16.922 79.6562 15.6185 79.1163 14.6573 78.1552C13.6962 77.194 13.1562 75.8905 13.1562 74.5312V60.4687C13.1562 59.1095 13.6962 57.806 14.6573 56.8448C15.6185 55.8837 16.922 55.3437 18.2812 55.3437L22.5 55.3437H23V54.8437L23 50.6266C23 50.6262 23 50.6258 23 50.6254C23.0092 47.777 24.1447 45.048 26.1588 43.0338C28.173 41.0197 30.902 39.8842 33.7504 39.875C33.7508 39.875 33.7512 39.875 33.7516 39.875L42.1875 39.875H42.6875V39.375V29.5312V29.0312H42.1875H39.375C38.0158 29.0312 36.7122 28.4913 35.7511 27.5302C34.79 26.569 34.25 25.2655 34.25 23.9062V12.6562C34.25 11.297 34.79 9.99345 35.7511 9.03233C36.7122 8.0712 38.0158 7.53125 39.375 7.53125L50.625 7.53125C51.9842 7.53125 53.2878 8.0712 54.2489 9.03233C55.21 9.99345 55.75 11.297 55.75 12.6562V23.9062C55.75 25.2655 55.21 26.569 54.2489 27.5302C53.2878 28.4913 51.9842 29.0312 50.625 29.0312L47.8125 29.0312H47.3125V29.5312L47.3125 39.375V39.875H47.8125L56.2484 39.875C56.2488 39.875 56.2492 39.875 56.2496 39.875C59.098 39.8842 61.827 41.0197 63.8412 43.0338C65.8553 45.048 66.9909 47.7772 67 50.6256V54.8438V55.3438H67.5H71.7187C73.078 55.3438 74.3815 55.8837 75.3427 56.8448C76.3038 57.806 76.8437 59.1095 76.8437 60.4688V74.5312C76.8437 75.8905 76.3038 77.194 75.3427 78.1552C74.3815 79.1163 73.078 79.6562 71.7187 79.6562H57.6562C56.297 79.6562 54.9935 79.1163 54.0323 78.1552C53.0712 77.194 52.5312 75.8905 52.5312 74.5312V60.4687C52.5312 59.1095 53.0712 57.806 54.0323 56.8448C54.9935 55.8837 56.297 55.3437 57.6562 55.3437L61.875 55.3438Z" fill="#F64E1F" stroke="white"/>
</svg>
