<svg width="68" height="68" viewBox="0 0 68 68" fill="none" xmlns="http://www.w3.org/2000/svg">
<circle cx="34" cy="34" r="34" fill="#F64E1F" fill-opacity="0.15"/>
<path d="M46.5 37.75C46.5 42.5875 42.5875 46.5 37.75 46.5L39.0625 44.3125" stroke="#F64E1F" stroke-width="1.5" stroke-linecap="round" stroke-linejoin="round"/>
<path d="M21.5 30.25C21.5 25.4125 25.4125 21.5 30.25 21.5L28.9375 23.6875" stroke="#F64E1F" stroke-width="1.5" stroke-linecap="round" stroke-linejoin="round"/>
<path d="M46.5 24.25V24.3875C46.5 24.7375 46.225 25.0125 45.875 25.0125H34.625C34.275 25.0125 34 24.7375 34 24.3875V24.25C34 22.05 34.55 21.5 36.775 21.5H43.725C45.95 21.5 46.5 22.05 46.5 24.25Z" fill="#F64E1F"/>
<path d="M34.625 26.2625C34.275 26.2625 34 26.5375 34 26.8875V28.1375V29.375C34 31.575 34.55 32.125 36.775 32.125H43.725C45.95 32.125 46.5 31.575 46.5 29.375V28.1375V26.8875C46.5 26.5375 46.225 26.2625 45.875 26.2625H34.625Z" fill="#F64E1F"/>
<path d="M34 38.625V38.7625C34 39.1125 33.725 39.3875 33.375 39.3875H22.125C21.775 39.3875 21.5 39.1125 21.5 38.7625V38.625C21.5 36.425 22.05 35.875 24.275 35.875H31.225C33.45 35.875 34 36.425 34 38.625Z" fill="#F64E1F"/>
<path d="M22.125 40.6375C21.775 40.6375 21.5 40.9125 21.5 41.2625V42.5125V43.75C21.5 45.95 22.05 46.5 24.275 46.5H31.225C33.45 46.5 34 45.95 34 43.75V42.5125V41.2625C34 40.9125 33.725 40.6375 33.375 40.6375H22.125Z" fill="#F64E1F"/>
</svg>
