<svg width="20" height="20" viewBox="0 0 20 20" fill="none" xmlns="http://www.w3.org/2000/svg">
<path d="M13.7513 10C13.7513 9.43333 13.7013 8.88333 13.6346 8.33333H16.4513C16.5846 8.86666 16.668 9.425 16.668 10C16.668 10.3083 16.643 10.6083 16.6013 10.9C17.1763 10.9833 17.7096 11.1667 18.2013 11.4333C18.2846 10.9667 18.3346 10.4917 18.3346 10C18.3346 5.41666 14.5846 1.66666 10.0013 1.66666C5.39297 1.66666 1.66797 5.41666 1.66797 10C1.66797 14.5833 5.41797 18.3333 10.0013 18.3333C10.493 18.3333 10.968 18.2833 11.4346 18.2C11.0388 17.4741 10.8325 16.6601 10.8346 15.8333C10.8346 15.5917 10.8596 15.3583 10.893 15.125C10.6263 15.65 10.3346 16.1583 10.0013 16.6333C9.30964 15.6333 8.7513 14.525 8.40964 13.3333H11.5096C12.0101 12.4636 12.7627 11.7662 13.668 11.3333C13.718 10.8917 13.7513 10.45 13.7513 10ZM10.0013 3.35833C10.693 4.35833 11.2513 5.475 11.593 6.66666H8.40964C8.7513 5.475 9.30964 4.35833 10.0013 3.35833ZM3.5513 11.6667C3.41797 11.1333 3.33464 10.575 3.33464 10C3.33464 9.425 3.41797 8.86666 3.5513 8.33333H6.36797C6.3013 8.88333 6.2513 9.43333 6.2513 10C6.2513 10.5667 6.3013 11.1167 6.36797 11.6667H3.5513ZM4.23464 13.3333H6.66797C6.95964 14.375 7.33464 15.375 7.83464 16.3C6.31682 15.7764 5.03867 14.7231 4.23464 13.3333ZM6.66797 6.66666H4.23464C5.03368 5.27268 6.31363 4.2179 7.83464 3.7C7.33464 4.625 6.95964 5.625 6.66797 6.66666ZM11.9513 11.6667H8.0513C7.96797 11.1167 7.91797 10.5667 7.91797 10C7.91797 9.43333 7.96797 8.875 8.0513 8.33333H11.9513C12.0263 8.875 12.0846 9.43333 12.0846 10C12.0846 10.5667 12.0263 11.1167 11.9513 11.6667ZM12.1596 3.7C13.693 4.225 14.968 5.28333 15.768 6.66666H13.3096C13.0488 5.63455 12.6626 4.63824 12.1596 3.7ZM18.7513 14.375L14.793 18.3333L12.5013 15.8333L13.468 14.8667L14.793 16.1917L17.7846 13.2L18.7513 14.375Z" fill="#97AAB6"/>
</svg>
