<svg width="205" height="70" viewBox="0 0 205 70" fill="none" xmlns="http://www.w3.org/2000/svg">
<path d="M20.2205 43.5V62.5L40.7205 62C53.7205 60 64.4 52.9 64 34.5C63.6 16.1 48.7205 10.5 37.7205 9L5.29637 10C5.29637 11.6667 4.0375 21.1152 6.70878 29.5C10.2132 40.5 15.0539 41.1667 20.2205 43.5ZM20.2205 43.5V27H38.7205C40.8872 27.5 45.6205 30.8 45.2205 36C45.5539 38.8333 43.3205 43.5 37.7205 43.5H20.2205Z" stroke="white" stroke-width="8.5"/>
<path d="M88.9072 19V5.42969H91.7549C93.085 5.42969 94.1631 5.56445 94.9893 5.83398C95.8389 6.09766 96.6094 6.5459 97.3008 7.17871C98.7012 8.45605 99.4014 10.1348 99.4014 12.2148C99.4014 14.3008 98.6719 15.9883 97.2129 17.2773C96.4805 17.9219 95.7129 18.3701 94.9102 18.6221C94.1309 18.874 93.0674 19 91.7197 19H88.9072ZM90.9551 17.0752H91.8779C92.7979 17.0752 93.5625 16.9785 94.1719 16.7852C94.7812 16.5801 95.332 16.2549 95.8242 15.8096C96.832 14.8896 97.3359 13.6914 97.3359 12.2148C97.3359 10.7266 96.8379 9.51953 95.8418 8.59375C94.9453 7.76758 93.624 7.35449 91.8779 7.35449H90.9551V17.0752ZM107.813 5.42969V19H105.765V5.42969H107.813ZM121.832 11.9336H127.44V12.3818C127.44 13.4365 127.32 14.3389 127.08 15.0889C126.845 15.8154 126.45 16.4951 125.893 17.1279C124.633 18.5459 123.031 19.2549 121.085 19.2549C119.187 19.2549 117.561 18.5693 116.207 17.1982C114.854 15.8213 114.177 14.1689 114.177 12.2412C114.177 10.2725 114.866 8.60254 116.243 7.23145C117.62 5.85449 119.295 5.16602 121.27 5.16602C122.366 5.16602 123.356 5.38281 124.241 5.81641C125.12 6.25 125.984 6.95312 126.833 7.92578L125.374 9.32324C124.261 7.84082 122.905 7.09961 121.305 7.09961C119.87 7.09961 118.665 7.59473 117.693 8.58496C116.72 9.55762 116.234 10.7764 116.234 12.2412C116.234 13.7529 116.776 14.998 117.86 15.9766C118.873 16.8848 119.972 17.3389 121.156 17.3389C122.164 17.3389 123.069 16.999 123.872 16.3193C124.674 15.6338 125.122 14.8135 125.216 13.8584H121.832V11.9336ZM135.852 5.42969V19H133.804V5.42969H135.852ZM146.637 7.35449V19H144.589V7.35449H141.469V5.42969H149.748V7.35449H146.637ZM162.589 15.7041H156.78L155.268 19H153.062L159.777 4.57715L166.254 19H164.013L162.589 15.7041ZM161.754 13.7793L159.742 9.16504L157.632 13.7793H161.754ZM173.787 5.42969V17.0752H177.778V19H171.74V5.42969H173.787Z" fill="white"/>
<path d="M97.3955 30.3545H91.9551V33.6152H97.2373V35.54H91.9551V40.0752H97.3955V42H89.9072V28.4297H97.3955V30.3545ZM106.704 34.9072L102.968 28.4297H105.298L107.89 33.0264L110.615 28.4297H112.962L109.051 34.9072L113.155 42H110.861L107.855 36.8057L104.761 42H102.441L106.704 34.9072ZM120.82 36.4893V42H118.772V28.4297H121.092C122.229 28.4297 123.087 28.5088 123.667 28.667C124.253 28.8252 124.769 29.124 125.214 29.5635C125.994 30.3252 126.383 31.2861 126.383 32.4463C126.383 33.6885 125.967 34.6729 125.135 35.3994C124.303 36.126 123.181 36.4893 121.769 36.4893H120.82ZM120.82 34.5908H121.584C123.465 34.5908 124.406 33.8672 124.406 32.4199C124.406 31.0195 123.436 30.3193 121.497 30.3193H120.82V34.5908ZM139.761 30.3545H134.32V33.6152H139.603V35.54H134.32V40.0752H139.761V42H132.273V28.4297H139.761V30.3545ZM150.827 36.2168L155.028 42H152.523L148.647 36.4453H148.278V42H146.23V28.4297H148.63C150.423 28.4297 151.718 28.7666 152.515 29.4404C153.393 30.1904 153.833 31.1807 153.833 32.4111C153.833 33.3721 153.557 34.1982 153.007 34.8896C152.456 35.5811 151.729 36.0234 150.827 36.2168ZM148.278 34.6611H148.929C149.884 34.6611 150.607 34.4736 151.099 34.0986C151.592 33.7236 151.838 33.1699 151.838 32.4375C151.838 31.0488 150.894 30.3545 149.008 30.3545H148.278V34.6611ZM164.442 30.3545V42H162.394V30.3545H159.274V28.4297H167.553V30.3545H164.442Z" fill="white"/>
<path d="M97.8789 61.7041H92.0693L90.5576 65H88.3516L95.0664 50.5771L101.544 65H99.3027L97.8789 61.7041ZM97.0439 59.7793L95.0312 55.165L92.9219 59.7793H97.0439ZM116.785 52.1592V54.585C115.601 53.5947 114.376 53.0996 113.111 53.0996C111.716 53.0996 110.541 53.6006 109.586 54.6025C108.625 55.5986 108.145 56.8174 108.145 58.2588C108.145 59.6826 108.625 60.8838 109.586 61.8623C110.547 62.8408 111.725 63.3301 113.119 63.3301C113.805 63.3301 114.417 63.2129 114.956 62.9785C115.238 62.8613 115.528 62.7031 115.827 62.5039C116.131 62.3047 116.451 62.0645 116.785 61.7832V64.2529C115.613 64.915 114.382 65.2461 113.093 65.2461C111.154 65.2461 109.498 64.5693 108.127 63.2158C106.762 61.8506 106.079 60.2041 106.079 58.2764C106.079 56.5479 106.651 55.0068 107.793 53.6533C109.2 51.9951 111.019 51.166 113.251 51.166C114.47 51.166 115.648 51.4971 116.785 52.1592ZM131.823 61.7041H126.013L124.502 65H122.296L129.01 50.5771L135.488 65H133.247L131.823 61.7041ZM130.988 59.7793L128.975 55.165L126.866 59.7793H130.988ZM141.333 65V51.4297H144.181C145.511 51.4297 146.589 51.5645 147.415 51.834C148.265 52.0977 149.035 52.5459 149.727 53.1787C151.127 54.4561 151.827 56.1348 151.827 58.2148C151.827 60.3008 151.098 61.9883 149.639 63.2773C148.906 63.9219 148.139 64.3701 147.336 64.6221C146.557 64.874 145.493 65 144.146 65H141.333ZM143.381 63.0752H144.304C145.224 63.0752 145.988 62.9785 146.598 62.7852C147.207 62.5801 147.758 62.2549 148.25 61.8096C149.258 60.8896 149.762 59.6914 149.762 58.2148C149.762 56.7266 149.264 55.5195 148.268 54.5938C147.371 53.7676 146.05 53.3545 144.304 53.3545H143.381V63.0752ZM166.039 53.3545H160.599V56.6152H165.881V58.54H160.599V63.0752H166.039V65H158.551V51.4297H166.039V53.3545ZM172.394 65L175.251 50.4102L179.909 60.957L184.734 50.4102L187.301 65H185.2L183.89 56.8086L179.874 65.624L175.971 56.7998L174.512 65H172.394ZM197.066 59.1377L192.636 51.4297H194.991L198.094 56.8525L201.205 51.4297H203.561L199.113 59.1377V65H197.066V59.1377Z" fill="white"/>
<path d="M77.2812 3L77.7812 68" stroke="white" stroke-width="1.5"/>
</svg>
