<svg width="111" height="106" viewBox="0 0 111 106" fill="none" xmlns="http://www.w3.org/2000/svg">
<path d="M23.3687 2.88129L32.1319 11.5245L23.3687 20.1677L14.6055 11.5245L23.3687 2.88129Z" fill="#F64E1F"/>
<path d="M13.148 12.965L21.9112 21.6082L13.148 30.2513L4.38477 21.6082L13.148 12.965Z" fill="#7FBA03"/>
<path d="M35.5 12L45 21.5L35.5 31L26 21.5L35.5 12Z" fill="#FEB906"/>
<path d="M23.3687 23.0485L32.1319 31.6917L23.3687 40.3348L14.6055 31.6917L23.3687 23.0485Z" fill="#03A5F0"/>
<path d="M51.9951 35C51.9951 33.6125 52.2628 32.3467 52.7984 31.2026C53.3339 30.0342 53.979 29.024 54.7336 28.172C55.4882 27.32 56.4741 26.3098 57.6912 25.1414L58.2389 24.5937C59.5777 23.3279 60.5757 22.2081 61.233 21.2344C61.9146 20.2607 62.2554 19.1897 62.2554 18.0212C62.2554 15.1488 60.6974 13.7126 57.5816 13.7126C56.5593 13.7126 55.5734 13.8587 54.624 14.1508C53.6747 14.4429 52.9809 14.7107 52.5428 14.9541L51.849 13.1284C52.8227 12.6659 53.7355 12.3373 54.5875 12.1426C55.4395 11.9235 56.4862 11.8139 57.7277 11.8139C59.8942 11.8139 61.5373 12.386 62.657 13.5301C63.7768 14.6742 64.3366 16.1469 64.3366 17.9482C64.3366 19.0193 64.1297 20.0051 63.7159 20.9058C63.3021 21.8065 62.7787 22.6219 62.1458 23.3522C61.5373 24.0581 60.6731 24.971 59.5534 26.0907L58.8231 26.821C58.6527 26.9914 58.1537 27.5026 57.326 28.3545C56.4984 29.1822 55.829 30.0098 55.3178 30.8375C54.8066 31.6651 54.4902 32.4562 54.3684 33.2108H63.8985L64.1541 35H51.9951ZM69.622 35V33.2108H73.6384V14.1873L69.5854 16.086L68.8917 14.4429V14.4064L73.894 12.106H75.9023V33.2108H79.3345V35H69.622ZM88.8152 35.1826C87.8659 35.1826 86.8678 35.0609 85.8211 34.8174C84.7987 34.5497 83.8372 34.1967 82.9365 33.7585L83.6668 32.0059C84.2754 32.3467 85.0421 32.651 85.9672 32.9187C86.9165 33.1622 87.8293 33.2839 88.7057 33.2839C89.8011 33.2839 90.6774 33.0526 91.3346 32.5901C92.0162 32.1033 92.357 31.3365 92.357 30.2898C92.357 29.4621 92.1623 28.8414 91.7728 28.4276C91.4077 28.0138 90.8234 27.673 90.0202 27.4052L87.3547 26.6019C86.381 26.2854 85.602 25.9568 85.0178 25.616C84.4336 25.2752 83.9833 24.8127 83.6668 24.2285C83.3504 23.62 83.1921 22.841 83.1921 21.8917C83.1921 20.3094 83.7398 19.1288 84.8352 18.3498C85.9306 17.5709 87.306 17.1814 88.9613 17.1814C90.6896 17.1814 92.2718 17.5222 93.708 18.2038L93.0508 19.9199C92.4909 19.6522 91.858 19.4453 91.1521 19.2992C90.4705 19.1288 89.8011 19.0436 89.1438 19.0436C88.0484 19.0436 87.1478 19.287 86.4418 19.7739C85.7359 20.2364 85.3829 20.9788 85.3829 22.0012C85.3829 22.5367 85.4803 22.9505 85.675 23.2427C85.8698 23.5348 86.1376 23.766 86.4783 23.9364C86.8191 24.1068 87.3303 24.3015 88.0119 24.5206L90.6409 25.3604C92.0771 25.8229 93.0873 26.395 93.6715 27.0766C94.2801 27.7582 94.5843 28.7927 94.5843 30.1802C94.5843 31.9085 94.0366 33.1743 92.9412 33.9776C91.8702 34.7809 90.4948 35.1826 88.8152 35.1826ZM104.34 35.1826C103.099 35.1582 102.137 34.8905 101.455 34.3793C100.774 33.8681 100.299 33.1135 100.031 32.1154C99.788 31.1174 99.6663 29.7786 99.6663 28.099V19.0436H96.9278V17.437H99.7393L100.177 12.3982H101.967V17.437H107.444V19.0436H101.967V28.1355C101.967 29.6447 102.076 30.7644 102.295 31.4947C102.539 32.225 102.855 32.7118 103.245 32.9552C103.658 33.1743 104.23 33.2839 104.961 33.2839C106.275 33.2839 107.164 33.2474 107.626 33.1743L107.736 35C106.786 35.1217 105.654 35.1826 104.34 35.1826Z" fill="white"/>
<path d="M11.7719 44.2427C10.6619 44.2427 9.65903 44.4375 8.76324 44.8269C7.86744 45.1969 7.10796 45.7519 6.4848 46.492C5.86163 47.2125 5.38452 48.0985 5.05347 49.1501C4.72241 50.1822 4.55688 51.3507 4.55688 52.6554C4.55688 54.3691 4.81978 55.8589 5.34557 57.1247C5.89084 58.3905 6.68927 59.3642 7.74086 60.0458C8.81192 60.7273 10.1459 61.0681 11.7427 61.0681C12.658 61.0681 13.5246 60.9902 14.3425 60.8344C15.1604 60.6787 15.9588 60.4839 16.7378 60.2502V62.5287C15.9588 62.8208 15.1507 63.035 14.3133 63.1713C13.4954 63.3076 12.512 63.3758 11.363 63.3758C9.24035 63.3758 7.46822 62.9376 6.04663 62.0613C4.62504 61.185 3.55398 59.9387 2.83345 58.3223C2.13239 56.706 1.78186 54.8073 1.78186 52.6262C1.78186 51.0488 1.99607 49.6078 2.4245 48.303C2.87239 46.9983 3.51503 45.8688 4.35241 44.9146C5.20926 43.9604 6.26085 43.2301 7.50717 42.7238C8.7535 42.198 10.1848 41.9351 11.8012 41.9351C12.8722 41.9351 13.9043 42.0422 14.8975 42.2564C15.8907 42.4706 16.7767 42.7724 17.5557 43.1619L16.5041 45.3819C15.8615 45.0898 15.1409 44.8269 14.3425 44.5933C13.5635 44.3596 12.7067 44.2427 11.7719 44.2427ZM26.6939 47.1346C28.0376 47.1346 29.1865 47.4267 30.1407 48.0109C31.1144 48.5951 31.8544 49.4228 32.3608 50.4938C32.8866 51.5454 33.1495 52.782 33.1495 54.2036V55.7518H22.4291C22.468 57.5239 22.9159 58.8773 23.7728 59.8121C24.6491 60.7273 25.8662 61.185 27.4241 61.185C28.4173 61.185 29.2936 61.0973 30.0531 60.9221C30.8321 60.7273 31.6305 60.4547 32.4484 60.1042V62.3534C31.65 62.7039 30.8613 62.9571 30.0823 63.1129C29.3034 63.2882 28.3784 63.3758 27.3073 63.3758C25.8273 63.3758 24.5128 63.0739 23.3638 62.4703C22.2344 61.8666 21.3483 60.9708 20.7057 59.7829C20.0825 58.5755 19.7709 57.1052 19.7709 55.372C19.7709 53.6583 20.0533 52.1881 20.618 50.9612C21.2022 49.7343 22.0104 48.7899 23.0425 48.1278C24.0941 47.4656 25.3112 47.1346 26.6939 47.1346ZM26.6647 49.2378C25.4378 49.2378 24.4641 49.637 23.7436 50.4354C23.0425 51.2144 22.6238 52.3049 22.4875 53.707H30.4621C30.4621 52.8112 30.3257 52.0323 30.0531 51.3702C29.7805 50.708 29.3618 50.192 28.797 49.822C28.2518 49.4325 27.541 49.2378 26.6647 49.2378ZM44.3796 47.1346C46.2491 47.1346 47.661 47.5922 48.6152 48.5075C49.5694 49.4033 50.0465 50.8638 50.0465 52.8891V63.0837H47.5052V53.0644C47.5052 51.7986 47.2228 50.8541 46.6581 50.2309C46.0933 49.6078 45.2073 49.2962 43.9999 49.2962C42.2667 49.2962 41.0691 49.783 40.407 50.7567C39.7449 51.7304 39.4138 53.1325 39.4138 54.9631V63.0837H36.8432V47.4267H38.9172L39.297 49.5591H39.443C39.7935 49.0138 40.222 48.5659 40.7283 48.2154C41.2541 47.8454 41.8286 47.5728 42.4517 47.3975C43.0749 47.2222 43.7175 47.1346 44.3796 47.1346ZM59.8369 61.2726C60.2264 61.2726 60.6256 61.2434 61.0346 61.185C61.4435 61.1071 61.7746 61.0292 62.0277 60.9513V62.9084C61.7551 63.0447 61.3656 63.1518 60.8593 63.2297C60.353 63.3271 59.8661 63.3758 59.3988 63.3758C58.5809 63.3758 57.8214 63.2395 57.1203 62.9668C56.4387 62.6747 55.8837 62.1781 55.4553 61.4771C55.0269 60.776 54.8127 59.7926 54.8127 58.5268V49.413H52.5927V48.1862L54.8419 47.1638L55.8643 43.8338H57.3832V47.4267H61.9109V49.413H57.3832V58.4684C57.3832 59.4226 57.6072 60.1334 58.0551 60.6008C58.5224 61.0487 59.1164 61.2726 59.8369 61.2726ZM77.9572 47.4267V63.0837H75.854L75.4743 61.0097H75.3574C75.0264 61.555 74.598 62.0029 74.0722 62.3534C73.5464 62.7039 72.9719 62.9571 72.3487 63.1129C71.7256 63.2882 71.0732 63.3758 70.3916 63.3758C69.1453 63.3758 68.0937 63.181 67.2368 62.7916C66.3995 62.3826 65.7666 61.7595 65.3381 60.9221C64.9097 60.0847 64.6955 59.0039 64.6955 57.6797V47.4267H67.2953V57.5044C67.2953 58.7507 67.5776 59.6855 68.1424 60.3087C68.7071 60.9318 69.5834 61.2434 70.7713 61.2434C71.9398 61.2434 72.855 61.0292 73.5172 60.6008C74.1987 60.1529 74.6759 59.5102 74.9485 58.6729C75.2406 57.816 75.3866 56.7839 75.3866 55.5765V47.4267H77.9572ZM89.9384 47.1346C90.2305 47.1346 90.5421 47.1541 90.8732 47.193C91.2237 47.2125 91.5255 47.2514 91.7787 47.3099L91.4574 49.6759C91.2042 49.6175 90.9218 49.5688 90.6103 49.5299C90.3182 49.4909 90.0358 49.4715 89.7632 49.4715C89.1595 49.4715 88.585 49.598 88.0397 49.8512C87.4944 50.1044 87.0076 50.4646 86.5792 50.932C86.1508 51.3799 85.81 51.9252 85.5568 52.5678C85.3231 53.2104 85.2063 53.931 85.2063 54.7294V63.0837H82.6357V47.4267H84.7389L85.031 50.2894H85.1478C85.4789 49.7051 85.8781 49.1793 86.3455 48.712C86.8129 48.2251 87.3484 47.8454 87.9521 47.5728C88.5558 47.2806 89.2179 47.1346 89.9384 47.1346ZM91.9565 47.4267H94.7023L98.0907 56.336C98.2855 56.8618 98.4607 57.3681 98.6165 57.8549C98.7918 58.3418 98.9476 58.8189 99.0839 59.2863C99.2202 59.7342 99.3273 60.1723 99.4052 60.6008H99.5221C99.6389 60.1139 99.8239 59.481 100.077 58.7021C100.33 57.9036 100.593 57.1052 100.866 56.3068L104.05 47.4267H106.825L100.077 65.2453C99.7071 66.219 99.2689 67.0661 98.7626 67.7866C98.2757 68.5266 97.672 69.0914 96.9515 69.4808C96.2505 69.8898 95.3936 70.0943 94.381 70.0943C93.9136 70.0943 93.5046 70.0651 93.1541 70.0066C92.8036 69.9677 92.5017 69.919 92.2486 69.8606V67.8158C92.4628 67.8548 92.716 67.8937 93.0081 67.9327C93.3196 67.9716 93.641 67.9911 93.972 67.9911C94.5757 67.9911 95.0918 67.8742 95.5202 67.6406C95.9681 67.4263 96.3478 67.105 96.6594 66.6766C96.971 66.2677 97.2339 65.7808 97.4481 65.2161L98.266 63.1421L91.9565 47.4267Z" fill="white"/>
<path d="M10.062 69.1742V70.0213H7.22851V79.3834H6.20614V70.0213H3.35808V69.1742H10.062ZM12.4358 70.0067V73.8187H16.3062V74.6658H12.4358V78.5362H16.7444V79.3834H11.4134V69.1596H16.7444V70.0067H12.4358ZM18.0286 74.2715C18.0286 73.2686 18.2477 72.3728 18.6859 71.5841C19.124 70.7857 19.7229 70.1674 20.4823 69.7292C21.2418 69.2813 22.0889 69.0573 23.0237 69.0573C24.1629 69.0573 25.1366 69.33 25.9448 69.8753C26.7627 70.4108 27.3566 71.1703 27.7266 72.1537H26.529C26.2369 71.4624 25.789 70.922 25.1853 70.5325C24.5913 70.143 23.8708 69.9483 23.0237 69.9483C22.2739 69.9483 21.5972 70.1235 20.9935 70.4741C20.3996 70.8246 19.9322 71.3309 19.5914 71.993C19.2506 72.6454 19.0802 73.4049 19.0802 74.2715C19.0802 75.1381 19.2506 75.8975 19.5914 76.5499C19.9322 77.2023 20.3996 77.7037 20.9935 78.0543C21.5972 78.4048 22.2739 78.5801 23.0237 78.5801C23.8708 78.5801 24.5913 78.3902 25.1853 78.0105C25.789 77.621 26.2369 77.0854 26.529 76.4039H27.7266C27.3566 77.3776 26.7627 78.1322 25.9448 78.6677C25.1269 79.2032 24.1532 79.471 23.0237 79.471C22.0889 79.471 21.2418 79.2519 20.4823 78.8138C19.7229 78.3659 19.124 77.7476 18.6859 76.9589C18.2477 76.1702 18.0286 75.2744 18.0286 74.2715ZM37.0811 69.1742V79.3834H36.0588V74.6074H30.5233V79.3834H29.5009V69.1742H30.5233V73.7603H36.0588V69.1742H37.0811ZM46.8479 79.3834H45.8255L40.1733 70.7954V79.3834H39.1509V69.1742H40.1733L45.8255 77.7476V69.1742H46.8479V79.3834ZM53.4868 79.4856C52.5423 79.4856 51.6854 79.2665 50.9162 78.8284C50.147 78.3805 49.5384 77.7622 49.0905 76.9735C48.6524 76.175 48.4333 75.2744 48.4333 74.2715C48.4333 73.2686 48.6524 72.3728 49.0905 71.5841C49.5384 70.7857 50.147 70.1674 50.9162 69.7292C51.6854 69.2813 52.5423 69.0573 53.4868 69.0573C54.441 69.0573 55.3027 69.2813 56.0719 69.7292C56.8411 70.1674 57.4448 70.7857 57.883 71.5841C58.3211 72.3728 58.5402 73.2686 58.5402 74.2715C58.5402 75.2744 58.3211 76.175 57.883 76.9735C57.4448 77.7622 56.8411 78.3805 56.0719 78.8284C55.3027 79.2665 54.441 79.4856 53.4868 79.4856ZM53.4868 78.5947C54.2462 78.5947 54.9278 78.4194 55.5315 78.0689C56.1352 77.7183 56.6123 77.2169 56.9628 76.5645C57.3134 75.9024 57.4886 75.1381 57.4886 74.2715C57.4886 73.4049 57.3134 72.6454 56.9628 71.993C56.6123 71.3407 56.1352 70.8392 55.5315 70.4887C54.9278 70.1381 54.2462 69.9629 53.4868 69.9629C52.7273 69.9629 52.0457 70.1381 51.442 70.4887C50.8383 70.8392 50.3612 71.3407 50.0107 71.993C49.6601 72.6454 49.4849 73.4049 49.4849 74.2715C49.4849 75.1381 49.6601 75.9024 50.0107 76.5645C50.3612 77.2169 50.8383 77.7183 51.442 78.0689C52.0457 78.4194 52.7273 78.5947 53.4868 78.5947ZM61.1705 78.5509H64.8364V79.3834H60.1481V69.1742H61.1705V78.5509ZM70.6187 79.4856C69.6742 79.4856 68.8173 79.2665 68.0481 78.8284C67.2789 78.3805 66.6703 77.7622 66.2224 76.9735C65.7843 76.175 65.5652 75.2744 65.5652 74.2715C65.5652 73.2686 65.7843 72.3728 66.2224 71.5841C66.6703 70.7857 67.2789 70.1674 68.0481 69.7292C68.8173 69.2813 69.6742 69.0573 70.6187 69.0573C71.5729 69.0573 72.4346 69.2813 73.2038 69.7292C73.973 70.1674 74.5767 70.7857 75.0149 71.5841C75.453 72.3728 75.6721 73.2686 75.6721 74.2715C75.6721 75.2744 75.453 76.175 75.0149 76.9735C74.5767 77.7622 73.973 78.3805 73.2038 78.8284C72.4346 79.2665 71.5729 79.4856 70.6187 79.4856ZM70.6187 78.5947C71.3781 78.5947 72.0597 78.4194 72.6634 78.0689C73.2671 77.7183 73.7442 77.2169 74.0947 76.5645C74.4453 75.9024 74.6205 75.1381 74.6205 74.2715C74.6205 73.4049 74.4453 72.6454 74.0947 71.993C73.7442 71.3407 73.2671 70.8392 72.6634 70.4887C72.0597 70.1381 71.3781 69.9629 70.6187 69.9629C69.8592 69.9629 69.1776 70.1381 68.5739 70.4887C67.9702 70.8392 67.4931 71.3407 67.1426 71.993C66.792 72.6454 66.6168 73.4049 66.6168 74.2715C66.6168 75.1381 66.792 75.9024 67.1426 76.5645C67.4931 77.2169 67.9702 77.7183 68.5739 78.0689C69.1776 78.4194 69.8592 78.5947 70.6187 78.5947ZM85.3129 72.1537C85.0208 71.4818 84.5729 70.956 83.9692 70.5763C83.3753 70.1868 82.6742 69.9921 81.8661 69.9921C81.1066 69.9921 80.425 70.1674 79.8213 70.5179C79.2176 70.8684 78.7405 71.3699 78.39 72.0222C78.0395 72.6649 77.8642 73.4146 77.8642 74.2715C77.8642 75.1283 78.0395 75.8829 78.39 76.5353C78.7405 77.1877 79.2176 77.6891 79.8213 78.0397C80.425 78.3902 81.1066 78.5655 81.8661 78.5655C82.5769 78.5655 83.2146 78.4145 83.7794 78.1127C84.3539 77.8011 84.8115 77.3629 85.1523 76.7982C85.5028 76.2237 85.7024 75.5567 85.7511 74.7973H81.4571V73.9648H86.8319V74.7096C86.7832 75.6054 86.5398 76.4185 86.1016 77.1487C85.6635 77.8693 85.0744 78.4389 84.3344 78.8576C83.6041 79.2763 82.7813 79.4856 81.8661 79.4856C80.9216 79.4856 80.0647 79.2665 79.2955 78.8284C78.5263 78.3805 77.9177 77.7622 77.4698 76.9735C77.0317 76.175 76.8126 75.2744 76.8126 74.2715C76.8126 73.2686 77.0317 72.3728 77.4698 71.5841C77.9177 70.7857 78.5263 70.1674 79.2955 69.7292C80.0647 69.2813 80.9216 69.0573 81.8661 69.0573C82.9566 69.0573 83.9108 69.33 84.7287 69.8753C85.5466 70.4205 86.1406 71.18 86.5106 72.1537H85.3129ZM89.4642 69.1742V79.3834H88.4418V69.1742H89.4642ZM92.5388 70.0067V73.8187H96.4093V74.6658H92.5388V78.5362H96.8474V79.3834H91.5165V69.1596H96.8474V70.0067H92.5388ZM101.695 79.4856C101.024 79.4856 100.43 79.3688 99.9135 79.1351C99.4072 78.9014 99.008 78.5752 98.7159 78.1565C98.4238 77.7378 98.268 77.2704 98.2485 76.7544H99.3293C99.378 77.251 99.5971 77.6891 99.9866 78.0689C100.376 78.4389 100.946 78.6239 101.695 78.6239C102.387 78.6239 102.932 78.4486 103.331 78.0981C103.74 77.7378 103.945 77.2851 103.945 76.7398C103.945 76.3016 103.833 75.9511 103.609 75.6882C103.385 75.4156 103.107 75.216 102.776 75.0894C102.445 74.9531 101.988 74.807 101.403 74.6512C100.722 74.4662 100.181 74.2861 99.7821 74.1108C99.3829 73.9355 99.0421 73.6629 98.7597 73.2929C98.4773 72.9229 98.3362 72.4215 98.3362 71.7886C98.3362 71.2628 98.4725 70.7954 98.7451 70.3864C99.0177 69.9678 99.4024 69.6416 99.8989 69.4079C100.396 69.1742 100.965 69.0573 101.608 69.0573C102.552 69.0573 103.312 69.291 103.886 69.7584C104.47 70.216 104.806 70.81 104.894 71.5403H103.784C103.716 71.1216 103.487 70.7516 103.098 70.4303C102.708 70.0992 102.182 69.9337 101.52 69.9337C100.907 69.9337 100.396 70.0992 99.9866 70.4303C99.5776 70.7516 99.3731 71.1946 99.3731 71.7593C99.3731 72.1878 99.4851 72.5334 99.7091 72.7963C99.933 73.0592 100.211 73.2588 100.542 73.3952C100.882 73.5315 101.34 73.6775 101.914 73.8333C102.577 74.0183 103.112 74.2033 103.521 74.3883C103.93 74.5636 104.276 74.8362 104.558 75.2062C104.84 75.5762 104.982 76.0728 104.982 76.696C104.982 77.1731 104.855 77.6258 104.602 78.0543C104.349 78.4827 103.974 78.8284 103.477 79.0913C102.981 79.3542 102.387 79.4856 101.695 79.4856Z" fill="white"/>
<rect width="108.08" height="24.489" transform="translate(0 80.6699)" fill="white"/>
<path d="M3.03646 97.1918H6.81196V98.6699H1.20495V87.504H3.03646V97.1918ZM18.2402 87.504V98.6699H16.4087V87.504H18.2402ZM40.4702 87.504V98.6699H38.6387V91.0225L35.2327 98.6699H33.9635L30.5415 91.0225V98.6699H28.7099V87.504H30.6861L34.6061 96.26L38.5102 87.504H40.4702ZM52.7741 87.504V98.6699H50.9426V87.504H52.7741ZM70.4574 87.504V88.9982H67.4852V98.6699H65.6537V88.9982H62.6654V87.504H70.4574ZM82.2089 88.9821V92.2596H86.0647V93.7537H82.2089V97.1757H86.5467V98.6699H80.3774V87.488H86.5467V88.9821H82.2089ZM100.515 87.504C101.704 87.504 102.742 87.7343 103.631 88.1949C104.531 88.6447 105.222 89.2981 105.704 90.1549C106.197 91.0011 106.443 91.9918 106.443 93.1271C106.443 94.2624 106.197 95.2478 105.704 96.0832C105.222 96.9187 104.531 97.5613 103.631 98.0112C102.742 98.4503 101.704 98.6699 100.515 98.6699H96.8677V87.504H100.515ZM100.515 97.1757C101.821 97.1757 102.823 96.8223 103.519 96.1154C104.215 95.4085 104.563 94.4124 104.563 93.1271C104.563 91.8311 104.215 90.819 103.519 90.0907C102.823 89.3623 101.821 88.9982 100.515 88.9982H98.6992V97.1757H100.515Z" fill="black"/>
</svg>
