<svg width="103" height="146" viewBox="0 0 103 146" fill="none" xmlns="http://www.w3.org/2000/svg">
<path opacity="0.05" d="M102.244 146H2.284V119.48L49.612 69.5C54.78 63.924 58.316 59.64 60.22 56.648C62.26 53.52 63.28 50.46 63.28 47.468C63.28 43.796 62.124 40.94 59.812 38.9C57.636 36.724 54.576 35.636 50.632 35.636C42.064 35.636 35.672 40.6 31.456 50.528L0.0400001 32.984C4.528 22.512 11.192 14.42 20.032 8.70799C29.008 2.99599 39.072 0.139993 50.224 0.139993C63.824 0.139993 75.452 4.21999 85.108 12.38C94.9 20.404 99.796 31.42 99.796 45.428C99.796 53.316 97.96 60.796 94.288 67.868C90.616 74.804 84.836 82.352 76.948 90.512L57.568 110.708H102.244V146Z" fill="black"/>
</svg>
