<svg width="105" height="147" viewBox="0 0 105 147" fill="none" xmlns="http://www.w3.org/2000/svg">
<path opacity="0.05" d="M97.96 28.964L74.092 58.34C83.34 61.196 90.684 66.16 96.124 73.232C101.7 80.168 104.488 88.464 104.488 98.12C104.488 113.352 99.456 125.184 89.392 133.616C79.464 141.912 67.02 146.06 52.06 146.06C39.956 146.06 29.348 143.34 20.236 137.9C11.124 132.324 4.596 124.3 0.652 113.828L32.476 95.672C35.468 105.6 41.996 110.564 52.06 110.564C57.228 110.564 61.172 109.34 63.892 106.892C66.748 104.444 68.176 101.18 68.176 97.1C68.176 93.02 66.748 89.824 63.892 87.512C61.172 85.064 57.228 83.84 52.06 83.84H44.308L30.232 63.032L53.08 35.084H5.14V0.19999H97.96V28.964Z" fill="black"/>
</svg>
