<svg width="95" height="92" viewBox="0 0 95 92" fill="none" xmlns="http://www.w3.org/2000/svg">
<rect width="95" height="92" rx="5" fill="#F64E1F" fill-opacity="0.2"/>
<path d="M32.6862 72.25L31.957 65.8333L40.2695 42.9375C40.9987 43.6181 41.7891 44.1887 42.6408 44.6496C43.4905 45.1124 44.4015 45.4653 45.3737 45.7083L37.3529 67.7292L32.6862 72.25ZM63.3112 72.25L58.6445 67.7292L50.6237 45.7083C51.5959 45.4653 52.5079 45.1124 53.3595 44.6496C54.2093 44.1887 54.9987 43.6181 55.7279 42.9375L64.0404 65.8333L63.3112 72.25ZM47.9987 43.0833C45.5681 43.0833 43.5022 42.2326 41.8008 40.5313C40.0994 38.8299 39.2487 36.7639 39.2487 34.3333C39.2487 32.4375 39.7951 30.7478 40.8879 29.2642C41.9826 27.7825 43.3806 26.75 45.082 26.1667V19.75H50.9154V26.1667C52.6168 26.75 54.0148 27.7825 55.1095 29.2642C56.2023 30.7478 56.7487 32.4375 56.7487 34.3333C56.7487 36.7639 55.898 38.8299 54.1966 40.5313C52.4952 42.2326 50.4293 43.0833 47.9987 43.0833ZM47.9987 37.25C48.8251 37.25 49.5183 36.97 50.0783 36.41C50.6363 35.8519 50.9154 35.1597 50.9154 34.3333C50.9154 33.5069 50.6363 32.8138 50.0783 32.2538C49.5183 31.6957 48.8251 31.4167 47.9987 31.4167C47.1723 31.4167 46.4801 31.6957 45.922 32.2538C45.362 32.8138 45.082 33.5069 45.082 34.3333C45.082 35.1597 45.362 35.8519 45.922 36.41C46.4801 36.97 47.1723 37.25 47.9987 37.25Z" fill="#F64E1F"/>
</svg>
