<svg width="179" height="24" viewBox="0 0 179 24" fill="none" xmlns="http://www.w3.org/2000/svg">
<path d="M17.92 23H12.76L7.15 13.97L5.23 15.35V23H0.7V1.58H5.23V11.39C5.53 10.97 5.83 10.55 6.13 10.13C6.43 9.71 6.73 9.29 7.03 8.87L12.82 1.58H17.86L10.39 11.06L17.92 23ZM34.8419 14.78C34.8419 16.14 34.6519 17.35 34.2719 18.41C33.9119 19.47 33.3819 20.37 32.6819 21.11C32.0019 21.83 31.1719 22.38 30.1919 22.76C29.2119 23.12 28.1019 23.3 26.8619 23.3C25.7219 23.3 24.6619 23.12 23.6819 22.76C22.7219 22.38 21.8919 21.83 21.1919 21.11C20.4919 20.37 19.9419 19.47 19.5419 18.41C19.1619 17.35 18.9719 16.14 18.9719 14.78C18.9719 12.96 19.2919 11.43 19.9319 10.19C20.5719 8.93 21.4919 7.97 22.6919 7.31C23.8919 6.65 25.3119 6.32 26.9519 6.32C28.4919 6.32 29.8519 6.65 31.0319 7.31C32.2119 7.97 33.1419 8.93 33.8219 10.19C34.5019 11.43 34.8419 12.96 34.8419 14.78ZM23.5319 14.78C23.5319 15.86 23.6419 16.77 23.8619 17.51C24.1019 18.23 24.4719 18.78 24.9719 19.16C25.4719 19.52 26.1219 19.7 26.9219 19.7C27.7219 19.7 28.3619 19.52 28.8419 19.16C29.3419 18.78 29.7019 18.23 29.9219 17.51C30.1619 16.77 30.2819 15.86 30.2819 14.78C30.2819 13.7 30.1619 12.8 29.9219 12.08C29.7019 11.36 29.3419 10.82 28.8419 10.46C28.3419 10.1 27.6919 9.92 26.8919 9.92C25.7119 9.92 24.8519 10.33 24.3119 11.15C23.7919 11.95 23.5319 13.16 23.5319 14.78ZM47.5361 6.32C49.2961 6.32 50.7061 6.8 51.7661 7.76C52.8261 8.7 53.3561 10.22 53.3561 12.32V23H48.8861V13.43C48.8861 12.25 48.6761 11.37 48.2561 10.79C47.8361 10.19 47.1661 9.89 46.2461 9.89C44.8861 9.89 43.9561 10.36 43.4561 11.3C42.9561 12.22 42.7061 13.55 42.7061 15.29V23H38.2361V6.62H41.6561L42.2561 8.72H42.4961C42.8561 8.16 43.2961 7.71 43.8161 7.37C44.3361 7.01 44.9161 6.75 45.5561 6.59C46.1961 6.41 46.8561 6.32 47.5361 6.32ZM64.4029 6.32C65.9229 6.32 67.2229 6.61 68.3029 7.19C69.4029 7.77 70.2529 8.61 70.8529 9.71C71.4529 10.81 71.7529 12.16 71.7529 13.76V15.92H61.1929C61.2329 17.18 61.6029 18.17 62.3029 18.89C63.0229 19.61 64.0129 19.97 65.2729 19.97C66.3329 19.97 67.2929 19.87 68.1529 19.67C69.0129 19.45 69.9029 19.12 70.8229 18.68V22.13C70.0229 22.53 69.1729 22.82 68.2729 23C67.3929 23.2 66.3229 23.3 65.0629 23.3C63.4229 23.3 61.9729 23 60.7129 22.4C59.4529 21.78 58.4629 20.85 57.7429 19.61C57.0229 18.37 56.6629 16.81 56.6629 14.93C56.6629 13.01 56.9829 11.42 57.6229 10.16C58.2829 8.88 59.1929 7.92 60.3529 7.28C61.5129 6.64 62.8629 6.32 64.4029 6.32ZM64.4329 9.5C63.5729 9.5 62.8529 9.78 62.2729 10.34C61.7129 10.9 61.3829 11.77 61.2829 12.95H67.5529C67.5529 12.29 67.4329 11.7 67.1929 11.18C66.9729 10.66 66.6329 10.25 66.1729 9.95C65.7129 9.65 65.1329 9.5 64.4329 9.5ZM81.9775 19.73C82.4775 19.73 82.9575 19.68 83.4175 19.58C83.8775 19.48 84.3375 19.36 84.7975 19.22V22.55C84.3175 22.75 83.7175 22.92 82.9975 23.06C82.2975 23.22 81.5275 23.3 80.6875 23.3C79.7075 23.3 78.8275 23.14 78.0475 22.82C77.2875 22.5 76.6775 21.95 76.2175 21.17C75.7775 20.37 75.5575 19.27 75.5575 17.87V9.98H73.4275V8.09L75.8875 6.59L77.1775 3.14H80.0275V6.62H84.6175V9.98H80.0275V17.87C80.0275 18.49 80.2075 18.96 80.5675 19.28C80.9275 19.58 81.3975 19.73 81.9775 19.73Z" fill="white"/>
<path d="M114.455 1.58L108.995 23H103.835L100.925 11.75C100.865 11.53 100.785 11.2 100.685 10.76C100.605 10.32 100.505 9.84 100.385 9.32C100.285 8.8 100.195 8.31 100.115 7.85C100.035 7.37 99.9753 7 99.9353 6.74C99.9153 7 99.8553 7.37 99.7553 7.85C99.6753 8.31 99.5853 8.8 99.4853 9.32C99.3853 9.82 99.2853 10.3 99.1853 10.76C99.0853 11.2 99.0053 11.54 98.9453 11.78L96.0653 23H90.9053L85.4453 1.58H89.9153L92.6453 13.28C92.7253 13.62 92.8153 14.04 92.9153 14.54C93.0153 15.02 93.1153 15.53 93.2153 16.07C93.3153 16.59 93.4053 17.1 93.4853 17.6C93.5853 18.1 93.6553 18.53 93.6953 18.89C93.7353 18.51 93.7953 18.08 93.8753 17.6C93.9553 17.1 94.0453 16.6 94.1453 16.1C94.2453 15.58 94.3353 15.1 94.4153 14.66C94.5153 14.2 94.6053 13.84 94.6853 13.58L97.8053 1.58H102.095L105.215 13.58C105.275 13.84 105.355 14.2 105.455 14.66C105.555 15.1 105.655 15.58 105.755 16.1C105.855 16.62 105.945 17.13 106.025 17.63C106.105 18.11 106.165 18.53 106.205 18.89C106.265 18.39 106.355 17.8 106.475 17.12C106.595 16.42 106.725 15.72 106.865 15.02C107.025 14.32 107.155 13.74 107.255 13.28L109.985 1.58H114.455ZM122.623 6.29C124.823 6.29 126.503 6.77 127.663 7.73C128.843 8.67 129.433 10.12 129.433 12.08V23H126.313L125.443 20.78H125.323C124.863 21.36 124.383 21.84 123.883 22.22C123.403 22.6 122.843 22.87 122.203 23.03C121.583 23.21 120.813 23.3 119.893 23.3C118.933 23.3 118.063 23.12 117.283 22.76C116.523 22.38 115.923 21.81 115.483 21.05C115.043 20.27 114.823 19.29 114.823 18.11C114.823 16.37 115.433 15.09 116.653 14.27C117.873 13.43 119.703 12.97 122.143 12.89L124.993 12.8V12.08C124.993 11.22 124.763 10.59 124.303 10.19C123.863 9.79 123.243 9.59 122.443 9.59C121.643 9.59 120.863 9.71 120.103 9.95C119.343 10.17 118.583 10.45 117.823 10.79L116.353 7.76C117.233 7.3 118.203 6.94 119.263 6.68C120.343 6.42 121.463 6.29 122.623 6.29ZM123.253 15.47C121.813 15.51 120.813 15.77 120.253 16.25C119.693 16.73 119.413 17.36 119.413 18.14C119.413 18.82 119.613 19.31 120.013 19.61C120.413 19.89 120.933 20.03 121.573 20.03C122.533 20.03 123.343 19.75 124.003 19.19C124.663 18.61 124.993 17.8 124.993 16.76V15.41L123.253 15.47ZM138.179 23H133.709V0.199998H138.179V23ZM147.019 23H142.549V0.199998H147.019V23ZM158.14 6.32C159.66 6.32 160.96 6.61 162.04 7.19C163.14 7.77 163.99 8.61 164.59 9.71C165.19 10.81 165.49 12.16 165.49 13.76V15.92H154.93C154.97 17.18 155.34 18.17 156.04 18.89C156.76 19.61 157.75 19.97 159.01 19.97C160.07 19.97 161.03 19.87 161.89 19.67C162.75 19.45 163.64 19.12 164.56 18.68V22.13C163.76 22.53 162.91 22.82 162.01 23C161.13 23.2 160.06 23.3 158.8 23.3C157.16 23.3 155.71 23 154.45 22.4C153.19 21.78 152.2 20.85 151.48 19.61C150.76 18.37 150.4 16.81 150.4 14.93C150.4 13.01 150.72 11.42 151.36 10.16C152.02 8.88 152.93 7.92 154.09 7.28C155.25 6.64 156.6 6.32 158.14 6.32ZM158.17 9.5C157.31 9.5 156.59 9.78 156.01 10.34C155.45 10.9 155.12 11.77 155.02 12.95H161.29C161.29 12.29 161.17 11.7 160.93 11.18C160.71 10.66 160.37 10.25 159.91 9.95C159.45 9.65 158.87 9.5 158.17 9.5ZM175.715 19.73C176.215 19.73 176.695 19.68 177.155 19.58C177.615 19.48 178.075 19.36 178.535 19.22V22.55C178.055 22.75 177.455 22.92 176.735 23.06C176.035 23.22 175.265 23.3 174.425 23.3C173.445 23.3 172.565 23.14 171.785 22.82C171.025 22.5 170.415 21.95 169.955 21.17C169.515 20.37 169.295 19.27 169.295 17.87V9.98H167.165V8.09L169.625 6.59L170.915 3.14H173.765V6.62H178.355V9.98H173.765V17.87C173.765 18.49 173.945 18.96 174.305 19.28C174.665 19.58 175.135 19.73 175.715 19.73Z" fill="#60A297"/>
</svg>
