<svg width="417" height="76" viewBox="0 0 417 76" fill="none" xmlns="http://www.w3.org/2000/svg">
<path d="M15.0039 22.3556L10.8745 17.8664L10.6933 17.6693L10.4269 17.6422C6.93012 17.2857 4.66816 18.1946 3.3073 19.6236C1.97758 21.02 1.61368 22.8046 1.68141 24.0411L1.82069 41.3312L1.82243 41.5477L1.94541 41.726L6.52153 48.3592C6.60954 54.4054 6.77932 66.8479 6.77932 69.9815C6.77932 73.5534 9.16633 74.9751 10.4906 75.2151L10.553 75.2264H10.6164H18.6806C19.5355 75.2876 20.2679 75.1039 20.8752 74.7375C21.4819 74.3715 21.9245 73.8471 22.2427 73.2884C22.87 72.1869 23.0659 70.8635 23.0659 69.9815V48.3545L27.6388 41.726L27.7693 41.5368L27.7633 41.307C27.6764 38.0012 27.5551 29.9227 27.7631 24.0432C27.8192 22.4557 27.4913 21.1832 26.8723 20.1894C26.2534 19.1955 25.3759 18.5326 24.4204 18.1102C22.5378 17.2779 20.3003 17.3524 18.8269 17.6528L18.5685 17.7054L18.408 17.9148L15.0039 22.3556Z" fill="#F64E1F" stroke="#B4B5C1" stroke-width="1.41058"/>
<path d="M14.5314 17.3471C16.3195 17.3471 17.8821 16.37 18.9729 14.9018C20.0637 13.4336 20.7173 11.4383 20.7173 9.26498C20.7173 7.09164 20.0637 5.09641 18.9729 3.62818C17.8821 2.15999 16.3195 1.1829 14.5314 1.1829C12.7433 1.1829 11.1807 2.15999 10.0899 3.62818C8.99905 5.09641 8.34549 7.09164 8.34549 9.26498C8.34549 11.4383 8.99905 13.4336 10.0899 14.9018C11.1807 16.37 12.7433 17.3471 14.5314 17.3471Z" fill="#F64E1F" stroke="#B4B5C1" stroke-width="1.41058"/>
<path d="M53.793 22.3556L49.6636 17.8664L49.4823 17.6693L49.216 17.6422C45.7192 17.2857 43.4572 18.1946 42.0964 19.6236C40.7666 21.02 40.4027 22.8046 40.4705 24.0411L40.6097 41.3312L40.6115 41.5477L40.7345 41.726L45.3106 48.3592C45.3986 54.4054 45.5684 66.8479 45.5684 69.9815C45.5684 73.5534 47.9554 74.9751 49.2797 75.2151L49.3421 75.2264H49.4054H57.4697C58.3246 75.2876 59.057 75.1039 59.6643 74.7375C60.271 74.3715 60.7136 73.8471 61.0317 73.2884C61.6591 72.1869 61.8549 70.8635 61.8549 69.9815V48.3545L66.4278 41.726L66.5584 41.5368L66.5523 41.307C66.4655 38.0012 66.3441 29.9227 66.5521 24.0432C66.6083 22.4557 66.2803 21.1832 65.6614 20.1894C65.0424 19.1955 64.165 18.5326 63.2095 18.1102C61.3269 17.2779 59.0893 17.3524 57.616 17.6528L57.3576 17.7054L57.1971 17.9148L53.793 22.3556Z" fill="#F64E1F" stroke="#B4B5C1" stroke-width="1.41058"/>
<path d="M53.3205 17.3471C55.1085 17.3471 56.6712 16.37 57.762 14.9018C58.8528 13.4336 59.5064 11.4383 59.5064 9.26498C59.5064 7.09164 58.8528 5.09641 57.762 3.62818C56.6712 2.15999 55.1085 1.1829 53.3205 1.1829C51.5324 1.1829 49.9697 2.15999 48.8789 3.62818C47.7881 5.09641 47.1346 7.09164 47.1346 9.26498C47.1346 11.4383 47.7881 13.4336 48.8789 14.9018C49.9697 16.37 51.5324 17.3471 53.3205 17.3471Z" fill="#F64E1F" stroke="#B4B5C1" stroke-width="1.41058"/>
<path d="M92.5899 22.3556L88.4604 17.8664L88.2792 17.6693L88.0129 17.6422C84.5161 17.2857 82.2541 18.1946 80.8932 19.6236C79.5635 21.02 79.1996 22.8046 79.2673 24.0411L79.4066 41.3312L79.4084 41.5477L79.5314 41.726L84.1075 48.3592C84.1955 54.4054 84.3653 66.8479 84.3653 69.9815C84.3653 73.5534 86.7523 74.9751 88.0766 75.2151L88.1389 75.2264H88.2023H96.2665C97.1214 75.2876 97.8539 75.1039 98.4611 74.7375C99.0679 74.3715 99.5104 73.8471 99.8286 73.2884C100.456 72.1869 100.652 70.8635 100.652 69.9815V48.3545L105.225 41.726L105.355 41.5368L105.349 41.307C105.262 38.0012 105.141 29.9227 105.349 24.0432C105.405 22.4557 105.077 21.1832 104.458 20.1894C103.839 19.1955 102.962 18.5326 102.006 18.1102C100.124 17.2779 97.8862 17.3524 96.4129 17.6528L96.1544 17.7054L95.994 17.9148L92.5899 22.3556Z" fill="#F64E1F" stroke="#B4B5C1" stroke-width="1.41058"/>
<path d="M92.1173 17.3471C93.9054 17.3471 95.4681 16.37 96.5589 14.9018C97.6497 13.4336 98.3032 11.4383 98.3032 9.26498C98.3032 7.09164 97.6497 5.09641 96.5589 3.62818C95.4681 2.15999 93.9054 1.1829 92.1173 1.1829C90.3293 1.1829 88.7666 2.15999 87.6758 3.62818C86.585 5.09641 85.9314 7.09164 85.9314 9.26498C85.9314 11.4383 86.585 13.4336 87.6758 14.9018C88.7666 16.37 90.3293 17.3471 92.1173 17.3471Z" fill="#F64E1F" stroke="#B4B5C1" stroke-width="1.41058"/>
<path d="M131.375 22.3556L127.246 17.8664L127.064 17.6693L126.798 17.6422C123.301 17.2857 121.039 18.1946 119.678 19.6236C118.349 21.02 117.985 22.8046 118.053 24.0411L118.192 41.3312L118.194 41.5477L118.317 41.726L122.893 48.3592C122.981 54.4054 123.15 66.8479 123.15 69.9815C123.15 73.5534 125.537 74.9751 126.862 75.2151L126.924 75.2264H126.987H135.052C135.907 75.2876 136.639 75.1039 137.246 74.7375C137.853 74.3715 138.296 73.8471 138.614 73.2884C139.241 72.1869 139.437 70.8635 139.437 69.9815V48.3545L144.01 41.726L144.14 41.5368L144.134 41.307C144.047 38.0012 143.926 29.9227 144.134 24.0432C144.19 22.4557 143.862 21.1832 143.243 20.1894C142.624 19.1955 141.747 18.5326 140.792 18.1102C138.909 17.2779 136.671 17.3524 135.198 17.6528L134.94 17.7054L134.779 17.9148L131.375 22.3556Z" fill="#F64E1F" stroke="#B4B5C1" stroke-width="1.41058"/>
<path d="M130.902 17.3471C132.691 17.3471 134.253 16.37 135.344 14.9018C136.435 13.4336 137.088 11.4383 137.088 9.26498C137.088 7.09164 136.435 5.09641 135.344 3.62818C134.253 2.15999 132.691 1.1829 130.902 1.1829C129.114 1.1829 127.552 2.15999 126.461 3.62818C125.37 5.09641 124.717 7.09164 124.717 9.26498C124.717 11.4383 125.37 13.4336 126.461 14.9018C127.552 16.37 129.114 17.3471 130.902 17.3471Z" fill="#F64E1F" stroke="#B4B5C1" stroke-width="1.41058"/>
<path d="M170.168 22.3556L166.039 17.8664L165.857 17.6693L165.591 17.6422C162.094 17.2857 159.832 18.1946 158.471 19.6236C157.142 21.02 156.778 22.8046 156.845 24.0411L156.985 41.3312L156.986 41.5477L157.109 41.726L161.686 48.3592C161.774 54.4054 161.943 66.8479 161.943 69.9815C161.943 73.5534 164.33 74.9751 165.655 75.2151L165.717 75.2264H165.78H173.845C174.7 75.2876 175.432 75.1039 176.039 74.7375C176.646 74.3715 177.089 73.8471 177.407 73.2884C178.034 72.1869 178.23 70.8635 178.23 69.9815V48.3545L182.803 41.726L182.933 41.5368L182.927 41.307C182.84 38.0012 182.719 29.9227 182.927 24.0432C182.983 22.4557 182.655 21.1832 182.036 20.1894C181.417 19.1955 180.54 18.5326 179.584 18.1102C177.702 17.2779 175.464 17.3524 173.991 17.6528L173.733 17.7054L173.572 17.9148L170.168 22.3556Z" fill="#F0DCDA" stroke="#B4B5C1" stroke-width="1.41058"/>
<path d="M169.695 17.3471C171.484 17.3471 173.046 16.37 174.137 14.9018C175.228 13.4336 175.881 11.4383 175.881 9.26498C175.881 7.09164 175.228 5.09641 174.137 3.62818C173.046 2.15999 171.484 1.1829 169.695 1.1829C167.907 1.1829 166.345 2.15999 165.254 3.62818C164.163 5.09641 163.51 7.09164 163.51 9.26498C163.51 11.4383 164.163 13.4336 165.254 14.9018C166.345 16.37 167.907 17.3471 169.695 17.3471Z" fill="#F0DCDA" stroke="#B4B5C1" stroke-width="1.41058"/>
<path d="M208.953 22.3556L204.824 17.8664L204.642 17.6693L204.376 17.6422C200.879 17.2857 198.617 18.1946 197.257 19.6236C195.927 21.02 195.563 22.8046 195.631 24.0411L195.77 41.3312L195.772 41.5477L195.895 41.726L200.471 48.3592C200.559 54.4054 200.729 66.8479 200.729 69.9815C200.729 73.5534 203.116 74.9751 204.44 75.2151L204.502 75.2264H204.566H212.63C213.485 75.2876 214.217 75.1039 214.824 74.7375C215.431 74.3715 215.874 73.8471 216.192 73.2884C216.819 72.1869 217.015 70.8635 217.015 69.9815V48.3545L221.588 41.726L221.719 41.5368L221.713 41.307C221.626 38.0012 221.504 29.9227 221.712 24.0432C221.768 22.4557 221.441 21.1832 220.822 20.1894C220.203 19.1955 219.325 18.5326 218.37 18.1102C216.487 17.2779 214.249 17.3524 212.776 17.6528L212.518 17.7054L212.357 17.9148L208.953 22.3556Z" fill="#F0DCDA" stroke="#B4B5C1" stroke-width="1.41058"/>
<path d="M208.481 17.3471C210.269 17.3471 211.831 16.37 212.922 14.9018C214.013 13.4336 214.667 11.4383 214.667 9.26498C214.667 7.09164 214.013 5.09641 212.922 3.62818C211.831 2.15999 210.269 1.1829 208.481 1.1829C206.693 1.1829 205.13 2.15999 204.039 3.62818C202.948 5.09641 202.295 7.09164 202.295 9.26498C202.295 11.4383 202.948 13.4336 204.039 14.9018C205.13 16.37 206.693 17.3471 208.481 17.3471Z" fill="#F0DCDA" stroke="#B4B5C1" stroke-width="1.41058"/>
<path d="M247.75 22.3556L243.621 17.8664L243.439 17.6693L243.173 17.6422C239.676 17.2857 237.414 18.1946 236.053 19.6236C234.724 21.02 234.36 22.8046 234.428 24.0411L234.567 41.3312L234.569 41.5477L234.692 41.726L239.268 48.3592C239.356 54.4054 239.525 66.8479 239.525 69.9815C239.525 73.5534 241.912 74.9751 243.237 75.2151L243.299 75.2264H243.362H251.427C252.282 75.2876 253.014 75.1039 253.621 74.7375C254.228 74.3715 254.671 73.8471 254.989 73.2884C255.616 72.1869 255.812 70.8635 255.812 69.9815V48.3545L260.385 41.726L260.515 41.5368L260.509 41.307C260.422 38.0012 260.301 29.9227 260.509 24.0432C260.565 22.4557 260.237 21.1832 259.618 20.1894C258.999 19.1955 258.122 18.5326 257.167 18.1102C255.284 17.2779 253.046 17.3524 251.573 17.6528L251.315 17.7054L251.154 17.9148L247.75 22.3556Z" fill="#F0DCDA" stroke="#B4B5C1" stroke-width="1.41058"/>
<path d="M247.277 17.3471C249.066 17.3471 250.628 16.37 251.719 14.9018C252.81 13.4336 253.463 11.4383 253.463 9.26498C253.463 7.09164 252.81 5.09641 251.719 3.62818C250.628 2.15999 249.066 1.1829 247.277 1.1829C245.489 1.1829 243.927 2.15999 242.836 3.62818C241.745 5.09641 241.092 7.09164 241.092 9.26498C241.092 11.4383 241.745 13.4336 242.836 14.9018C243.927 16.37 245.489 17.3471 247.277 17.3471Z" fill="#F0DCDA" stroke="#B4B5C1" stroke-width="1.41058"/>
<path d="M286.539 22.3556L282.41 17.8664L282.228 17.6693L281.962 17.6422C278.465 17.2857 276.203 18.1946 274.842 19.6236C273.513 21.02 273.149 22.8046 273.217 24.0411L273.356 41.3312L273.358 41.5477L273.481 41.726L278.057 48.3592C278.145 54.4054 278.314 66.8479 278.314 69.9815C278.314 73.5534 280.701 74.9751 282.026 75.2151L282.088 75.2264H282.152H290.216C291.071 75.2876 291.803 75.1039 292.41 74.7375C293.017 74.3715 293.46 73.8471 293.778 73.2884C294.405 72.1869 294.601 70.8635 294.601 69.9815V48.3545L299.174 41.726L299.304 41.5368L299.298 41.307C299.212 38.0012 299.09 29.9227 299.298 24.0432C299.354 22.4557 299.026 21.1832 298.407 20.1894C297.789 19.1955 296.911 18.5326 295.956 18.1102C294.073 17.2779 291.835 17.3524 290.362 17.6528L290.104 17.7054L289.943 17.9148L286.539 22.3556Z" fill="#EFBAAF" fill-opacity="0.38" stroke="#B4B5C1" stroke-width="1.41058"/>
<path d="M286.067 17.3471C287.855 17.3471 289.417 16.37 290.508 14.9018C291.599 13.4336 292.252 11.4383 292.252 9.26498C292.252 7.09164 291.599 5.09641 290.508 3.62818C289.417 2.15999 287.855 1.1829 286.067 1.1829C284.278 1.1829 282.716 2.15999 281.625 3.62818C280.534 5.09641 279.881 7.09164 279.881 9.26498C279.881 11.4383 280.534 13.4336 281.625 14.9018C282.716 16.37 284.278 17.3471 286.067 17.3471Z" fill="#EFBAAF" fill-opacity="0.38" stroke="#B4B5C1" stroke-width="1.41058"/>
<path d="M325.328 22.3556L321.199 17.8664L321.017 17.6693L320.751 17.6422C317.254 17.2857 314.992 18.1946 313.632 19.6236C312.302 21.02 311.938 22.8046 312.006 24.0411L312.145 41.3312L312.147 41.5477L312.27 41.726L316.846 48.3592C316.934 54.4054 317.104 66.8479 317.104 69.9815C317.104 73.5534 319.491 74.9751 320.815 75.2151L320.877 75.2264H320.941H329.005C329.86 75.2876 330.592 75.1039 331.199 74.7375C331.806 74.3715 332.249 73.8471 332.567 73.2884C333.194 72.1869 333.39 70.8635 333.39 69.9815V48.3545L337.963 41.726L338.094 41.5368L338.088 41.307C338.001 38.0012 337.879 29.9227 338.087 24.0432C338.143 22.4557 337.816 21.1832 337.197 20.1894C336.578 19.1955 335.7 18.5326 334.745 18.1102C332.862 17.2779 330.624 17.3524 329.151 17.6528L328.893 17.7054L328.732 17.9148L325.328 22.3556Z" fill="#EFBAAF" fill-opacity="0.38" stroke="#B4B5C1" stroke-width="1.41058"/>
<path d="M324.856 17.3471C326.644 17.3471 328.206 16.37 329.297 14.9018C330.388 13.4336 331.042 11.4383 331.042 9.26498C331.042 7.09164 330.388 5.09641 329.297 3.62818C328.206 2.15999 326.644 1.1829 324.856 1.1829C323.068 1.1829 321.505 2.15999 320.414 3.62818C319.323 5.09641 318.67 7.09164 318.67 9.26498C318.67 11.4383 319.323 13.4336 320.414 14.9018C321.505 16.37 323.068 17.3471 324.856 17.3471Z" fill="#EFBAAF" fill-opacity="0.38" stroke="#B4B5C1" stroke-width="1.41058"/>
<path d="M364.117 22.3556L359.988 17.8664L359.807 17.6693L359.54 17.6422C356.043 17.2857 353.781 18.1946 352.421 19.6236C351.091 21.02 350.727 22.8046 350.795 24.0411L350.934 41.3312L350.936 41.5477L351.059 41.726L355.635 48.3592C355.723 54.4054 355.893 66.8479 355.893 69.9815C355.893 73.5534 358.28 74.9751 359.604 75.2151L359.666 75.2264H359.73H367.794C368.649 75.2876 369.381 75.1039 369.988 74.7375C370.595 74.3715 371.038 73.8471 371.356 73.2884C371.983 72.1869 372.179 70.8635 372.179 69.9815V48.3545L376.752 41.726L376.883 41.5368L376.877 41.307C376.79 38.0012 376.668 29.9227 376.876 24.0432C376.933 22.4557 376.605 21.1832 375.986 20.1894C375.367 19.1955 374.489 18.5326 373.534 18.1102C371.651 17.2779 369.414 17.3524 367.94 17.6528L367.682 17.7054L367.521 17.9148L364.117 22.3556Z" fill="#EFBAAF" fill-opacity="0.38" stroke="#B4B5C1" stroke-width="1.41058"/>
<path d="M363.645 17.3471C365.433 17.3471 366.995 16.37 368.086 14.9018C369.177 13.4336 369.831 11.4383 369.831 9.26498C369.831 7.09164 369.177 5.09641 368.086 3.62818C366.995 2.15999 365.433 1.1829 363.645 1.1829C361.857 1.1829 360.294 2.15999 359.203 3.62818C358.112 5.09641 357.459 7.09164 357.459 9.26498C357.459 11.4383 358.112 13.4336 359.203 14.9018C360.294 16.37 361.857 17.3471 363.645 17.3471Z" fill="#EFBAAF" fill-opacity="0.38" stroke="#B4B5C1" stroke-width="1.41058"/>
<path d="M402.914 22.3556L398.785 17.8664L398.603 17.6693L398.337 17.6422C394.84 17.2857 392.578 18.1946 391.217 19.6236C389.888 21.02 389.524 22.8046 389.592 24.0411L389.731 41.3312L389.733 41.5477L389.856 41.726L394.432 48.3592C394.52 54.4054 394.689 66.8479 394.689 69.9815C394.689 73.5534 397.076 74.9751 398.401 75.2151L398.463 75.2264H398.527H406.591C407.446 75.2876 408.178 75.1039 408.785 74.7375C409.392 74.3715 409.835 73.8471 410.153 73.2884C410.78 72.1869 410.976 70.8635 410.976 69.9815V48.3545L415.549 41.726L415.679 41.5368L415.673 41.307C415.587 38.0012 415.465 29.9227 415.673 24.0432C415.729 22.4557 415.401 21.1832 414.782 20.1894C414.164 19.1955 413.286 18.5326 412.331 18.1102C410.448 17.2779 408.21 17.3524 406.737 17.6528L406.479 17.7054L406.318 17.9148L402.914 22.3556Z" fill="#EFBAAF" fill-opacity="0.38" stroke="#B4B5C1" stroke-width="1.41058"/>
<path d="M402.442 17.3471C404.23 17.3471 405.792 16.37 406.883 14.9018C407.974 13.4336 408.627 11.4383 408.627 9.26498C408.627 7.09164 407.974 5.09641 406.883 3.62818C405.792 2.15999 404.23 1.1829 402.442 1.1829C400.653 1.1829 399.091 2.15999 398 3.62818C396.909 5.09641 396.256 7.09164 396.256 9.26498C396.256 11.4383 396.909 13.4336 398 14.9018C399.091 16.37 400.653 17.3471 402.442 17.3471Z" fill="#EFBAAF" fill-opacity="0.38" stroke="#B4B5C1" stroke-width="1.41058"/>
</svg>
