<svg width="417" height="76" viewBox="0 0 417 76" fill="none" xmlns="http://www.w3.org/2000/svg">
<path d="M14.625 22.3556L10.4956 17.8664L10.3143 17.6693L10.048 17.6422C6.55122 17.2857 4.28925 18.1946 2.9284 19.6236C1.59867 21.02 1.23477 22.8046 1.3025 24.0411L1.44178 41.3312L1.44353 41.5477L1.56651 41.726L6.14263 48.3592C6.23063 54.4054 6.40041 66.8479 6.40041 69.9815C6.40041 73.5534 8.78742 74.9751 10.1117 75.2151L10.1741 75.2264H10.2375H18.3017C19.1566 75.2876 19.889 75.1039 20.4963 74.7375C21.103 74.3715 21.5456 73.8471 21.8638 73.2884C22.4911 72.1869 22.6869 70.8635 22.6869 69.9815V48.3545L27.2599 41.726L27.3904 41.5368L27.3844 41.307C27.2975 38.0012 27.1762 29.9227 27.3842 24.0432C27.4403 22.4557 27.1124 21.1832 26.4934 20.1894C25.8745 19.1955 24.997 18.5326 24.0415 18.1102C22.1589 17.2779 19.9214 17.3524 18.448 17.6528L18.1896 17.7054L18.0291 17.9148L14.625 22.3556Z" fill="#F64E1F" stroke="#B4B5C1" stroke-width="1.41058"/>
<path d="M14.1525 17.3471C15.9406 17.3471 17.5032 16.37 18.594 14.9018C19.6848 13.4336 20.3384 11.4383 20.3384 9.26498C20.3384 7.09164 19.6848 5.09641 18.594 3.62818C17.5032 2.15999 15.9406 1.1829 14.1525 1.1829C12.3644 1.1829 10.8018 2.15999 9.71097 3.62818C8.62015 5.09641 7.96659 7.09164 7.96659 9.26498C7.96659 11.4383 8.62015 13.4336 9.71097 14.9018C10.8018 16.37 12.3644 17.3471 14.1525 17.3471Z" fill="#F64E1F" stroke="#B4B5C1" stroke-width="1.41058"/>
<path d="M53.4141 22.3556L49.2846 17.8664L49.1034 17.6693L48.8371 17.6422C45.3403 17.2857 43.0783 18.1946 41.7175 19.6236C40.3877 21.02 40.0238 22.8046 40.0916 24.0411L40.2308 41.3312L40.2326 41.5477L40.3556 41.726L44.9317 48.3592C45.0197 54.4054 45.1895 66.8479 45.1895 69.9815C45.1895 73.5534 47.5765 74.9751 48.9008 75.2151L48.9632 75.2264H49.0265H57.0907C57.9457 75.2876 58.6781 75.1039 59.2854 74.7375C59.8921 74.3715 60.3347 73.8471 60.6528 73.2884C61.2802 72.1869 61.476 70.8635 61.476 69.9815V48.3545L66.0489 41.726L66.1795 41.5368L66.1734 41.307C66.0866 38.0012 65.9652 29.9227 66.1732 24.0432C66.2294 22.4557 65.9014 21.1832 65.2825 20.1894C64.6635 19.1955 63.7861 18.5326 62.8306 18.1102C60.948 17.2779 58.7104 17.3524 57.2371 17.6528L56.9787 17.7054L56.8182 17.9148L53.4141 22.3556Z" fill="#F64E1F" stroke="#B4B5C1" stroke-width="1.41058"/>
<path d="M52.9416 17.3471C54.7296 17.3471 56.2923 16.37 57.3831 14.9018C58.4739 13.4336 59.1275 11.4383 59.1275 9.26498C59.1275 7.09164 58.4739 5.09641 57.3831 3.62818C56.2923 2.15999 54.7296 1.1829 52.9416 1.1829C51.1535 1.1829 49.5908 2.15999 48.5 3.62818C47.4092 5.09641 46.7556 7.09164 46.7556 9.26498C46.7556 11.4383 47.4092 13.4336 48.5 14.9018C49.5908 16.37 51.1535 17.3471 52.9416 17.3471Z" fill="#F64E1F" stroke="#B4B5C1" stroke-width="1.41058"/>
<path d="M92.211 22.3556L88.0815 17.8664L87.9003 17.6693L87.634 17.6422C84.1372 17.2857 81.8752 18.1946 80.5143 19.6236C79.1846 21.02 78.8207 22.8046 78.8884 24.0411L79.0277 41.3312L79.0295 41.5477L79.1524 41.726L83.7286 48.3592C83.8166 54.4054 83.9863 66.8479 83.9863 69.9815C83.9863 73.5534 86.3734 74.9751 87.6977 75.2151L87.76 75.2264H87.8234H95.8876C96.7425 75.2876 97.475 75.1039 98.0822 74.7375C98.689 74.3715 99.1315 73.8471 99.4497 73.2884C100.077 72.1869 100.273 70.8635 100.273 69.9815V48.3545L104.846 41.726L104.976 41.5368L104.97 41.307C104.883 38.0012 104.762 29.9227 104.97 24.0432C105.026 22.4557 104.698 21.1832 104.079 20.1894C103.46 19.1955 102.583 18.5326 101.627 18.1102C99.7449 17.2779 97.5073 17.3524 96.034 17.6528L95.7755 17.7054L95.6151 17.9148L92.211 22.3556Z" fill="#F64E1F" stroke="#B4B5C1" stroke-width="1.41058"/>
<path d="M91.7384 17.3471C93.5265 17.3471 95.0892 16.37 96.18 14.9018C97.2708 13.4336 97.9243 11.4383 97.9243 9.26498C97.9243 7.09164 97.2708 5.09641 96.18 3.62818C95.0892 2.15999 93.5265 1.1829 91.7384 1.1829C89.9503 1.1829 88.3877 2.15999 87.2969 3.62818C86.2061 5.09641 85.5525 7.09164 85.5525 9.26498C85.5525 11.4383 86.2061 13.4336 87.2969 14.9018C88.3877 16.37 89.9503 17.3471 91.7384 17.3471Z" fill="#F64E1F" stroke="#B4B5C1" stroke-width="1.41058"/>
<path d="M130.996 22.3556L126.867 17.8664L126.685 17.6693L126.419 17.6422C122.922 17.2857 120.66 18.1946 119.299 19.6236C117.97 21.02 117.606 22.8046 117.674 24.0411L117.813 41.3312L117.815 41.5477L117.938 41.726L122.514 48.3592C122.602 54.4054 122.772 66.8479 122.772 69.9815C122.772 73.5534 125.159 74.9751 126.483 75.2151L126.545 75.2264H126.609H134.673C135.528 75.2876 136.26 75.1039 136.867 74.7375C137.474 74.3715 137.917 73.8471 138.235 73.2884C138.862 72.1869 139.058 70.8635 139.058 69.9815V48.3545L143.631 41.726L143.762 41.5368L143.755 41.307C143.669 38.0012 143.547 29.9227 143.755 24.0432C143.811 22.4557 143.483 21.1832 142.865 20.1894C142.246 19.1955 141.368 18.5326 140.413 18.1102C138.53 17.2779 136.292 17.3524 134.819 17.6528L134.561 17.7054L134.4 17.9148L130.996 22.3556Z" fill="#F64E1F" stroke="#B4B5C1" stroke-width="1.41058"/>
<path d="M130.524 17.3471C132.312 17.3471 133.874 16.37 134.965 14.9018C136.056 13.4336 136.709 11.4383 136.709 9.26498C136.709 7.09164 136.056 5.09641 134.965 3.62818C133.874 2.15999 132.312 1.1829 130.524 1.1829C128.736 1.1829 127.173 2.15999 126.082 3.62818C124.991 5.09641 124.338 7.09164 124.338 9.26498C124.338 11.4383 124.991 13.4336 126.082 14.9018C127.173 16.37 128.736 17.3471 130.524 17.3471Z" fill="#F64E1F" stroke="#B4B5C1" stroke-width="1.41058"/>
<path d="M169.789 22.3556L165.66 17.8664L165.478 17.6693L165.212 17.6422C161.715 17.2857 159.453 18.1946 158.092 19.6236C156.763 21.02 156.399 22.8046 156.467 24.0411L156.606 41.3312L156.608 41.5477L156.731 41.726L161.307 48.3592C161.395 54.4054 161.564 66.8479 161.564 69.9815C161.564 73.5534 163.951 74.9751 165.276 75.2151L165.338 75.2264H165.402H173.466C174.321 75.2876 175.053 75.1039 175.66 74.7375C176.267 74.3715 176.71 73.8471 177.028 73.2884C177.655 72.1869 177.851 70.8635 177.851 69.9815V48.3545L182.424 41.726L182.554 41.5368L182.548 41.307C182.462 38.0012 182.34 29.9227 182.548 24.0432C182.604 22.4557 182.276 21.1832 181.657 20.1894C181.039 19.1955 180.161 18.5326 179.206 18.1102C177.323 17.2779 175.085 17.3524 173.612 17.6528L173.354 17.7054L173.193 17.9148L169.789 22.3556Z" fill="#F64E1F" stroke="#B4B5C1" stroke-width="1.41058"/>
<path d="M169.317 17.3471C171.105 17.3471 172.667 16.37 173.758 14.9018C174.849 13.4336 175.502 11.4383 175.502 9.26498C175.502 7.09164 174.849 5.09641 173.758 3.62818C172.667 2.15999 171.105 1.1829 169.317 1.1829C167.528 1.1829 165.966 2.15999 164.875 3.62818C163.784 5.09641 163.131 7.09164 163.131 9.26498C163.131 11.4383 163.784 13.4336 164.875 14.9018C165.966 16.37 167.528 17.3471 169.317 17.3471Z" fill="#F64E1F" stroke="#B4B5C1" stroke-width="1.41058"/>
<path d="M208.574 22.3556L204.445 17.8664L204.264 17.6693L203.997 17.6422C200.5 17.2857 198.238 18.1946 196.878 19.6236C195.548 21.02 195.184 22.8046 195.252 24.0411L195.391 41.3312L195.393 41.5477L195.516 41.726L200.092 48.3592C200.18 54.4054 200.35 66.8479 200.35 69.9815C200.35 73.5534 202.737 74.9751 204.061 75.2151L204.123 75.2264H204.187H212.251C213.106 75.2876 213.838 75.1039 214.446 74.7375C215.052 74.3715 215.495 73.8471 215.813 73.2884C216.44 72.1869 216.636 70.8635 216.636 69.9815V48.3545L221.209 41.726L221.34 41.5368L221.334 41.307C221.247 38.0012 221.125 29.9227 221.333 24.0432C221.39 22.4557 221.062 21.1832 220.443 20.1894C219.824 19.1955 218.946 18.5326 217.991 18.1102C216.108 17.2779 213.871 17.3524 212.397 17.6528L212.139 17.7054L211.978 17.9148L208.574 22.3556Z" fill="#F64E1F" stroke="#B4B5C1" stroke-width="1.41058"/>
<path d="M208.102 17.3471C209.89 17.3471 211.452 16.37 212.543 14.9018C213.634 13.4336 214.288 11.4383 214.288 9.26498C214.288 7.09164 213.634 5.09641 212.543 3.62818C211.452 2.15999 209.89 1.1829 208.102 1.1829C206.314 1.1829 204.751 2.15999 203.66 3.62818C202.569 5.09641 201.916 7.09164 201.916 9.26498C201.916 11.4383 202.569 13.4336 203.66 14.9018C204.751 16.37 206.314 17.3471 208.102 17.3471Z" fill="#F64E1F" stroke="#B4B5C1" stroke-width="1.41058"/>
<path d="M247.371 22.3556L243.242 17.8664L243.06 17.6693L242.794 17.6422C239.297 17.2857 237.035 18.1946 235.674 19.6236C234.345 21.02 233.981 22.8046 234.049 24.0411L234.188 41.3312L234.19 41.5477L234.313 41.726L238.889 48.3592C238.977 54.4054 239.147 66.8479 239.147 69.9815C239.147 73.5534 241.534 74.9751 242.858 75.2151L242.92 75.2264H242.984H251.048C251.903 75.2876 252.635 75.1039 253.242 74.7375C253.849 74.3715 254.292 73.8471 254.61 73.2884C255.237 72.1869 255.433 70.8635 255.433 69.9815V48.3545L260.006 41.726L260.137 41.5368L260.13 41.307C260.044 38.0012 259.922 29.9227 260.13 24.0432C260.186 22.4557 259.858 21.1832 259.24 20.1894C258.621 19.1955 257.743 18.5326 256.788 18.1102C254.905 17.2779 252.667 17.3524 251.194 17.6528L250.936 17.7054L250.775 17.9148L247.371 22.3556Z" fill="#F64E1F" stroke="#B4B5C1" stroke-width="1.41058"/>
<path d="M246.899 17.3471C248.687 17.3471 250.249 16.37 251.34 14.9018C252.431 13.4336 253.084 11.4383 253.084 9.26498C253.084 7.09164 252.431 5.09641 251.34 3.62818C250.249 2.15999 248.687 1.1829 246.899 1.1829C245.111 1.1829 243.548 2.15999 242.457 3.62818C241.366 5.09641 240.713 7.09164 240.713 9.26498C240.713 11.4383 241.366 13.4336 242.457 14.9018C243.548 16.37 245.111 17.3471 246.899 17.3471Z" fill="#F64E1F" stroke="#B4B5C1" stroke-width="1.41058"/>
<path d="M286.16 22.3556L282.031 17.8664L281.85 17.6693L281.583 17.6422C278.086 17.2857 275.824 18.1946 274.464 19.6236C273.134 21.02 272.77 22.8046 272.838 24.0411L272.977 41.3312L272.979 41.5477L273.102 41.726L277.678 48.3592C277.766 54.4054 277.936 66.8479 277.936 69.9815C277.936 73.5534 280.323 74.9751 281.647 75.2151L281.709 75.2264H281.773H289.837C290.692 75.2876 291.424 75.1039 292.031 74.7375C292.638 74.3715 293.081 73.8471 293.399 73.2884C294.026 72.1869 294.222 70.8635 294.222 69.9815V48.3545L298.795 41.726L298.926 41.5368L298.92 41.307C298.833 38.0012 298.711 29.9227 298.919 24.0432C298.975 22.4557 298.648 21.1832 298.029 20.1894C297.41 19.1955 296.532 18.5326 295.577 18.1102C293.694 17.2779 291.457 17.3524 289.983 17.6528L289.725 17.7054L289.564 17.9148L286.16 22.3556Z" fill="#EFBAAF" fill-opacity="0.38" stroke="#B4B5C1" stroke-width="1.41058"/>
<path d="M285.688 17.3471C287.476 17.3471 289.038 16.37 290.129 14.9018C291.22 13.4336 291.874 11.4383 291.874 9.26498C291.874 7.09164 291.22 5.09641 290.129 3.62818C289.038 2.15999 287.476 1.1829 285.688 1.1829C283.9 1.1829 282.337 2.15999 281.246 3.62818C280.155 5.09641 279.502 7.09164 279.502 9.26498C279.502 11.4383 280.155 13.4336 281.246 14.9018C282.337 16.37 283.9 17.3471 285.688 17.3471Z" fill="#EFBAAF" fill-opacity="0.38" stroke="#B4B5C1" stroke-width="1.41058"/>
<path d="M324.949 22.3556L320.82 17.8664L320.639 17.6693L320.372 17.6422C316.875 17.2857 314.613 18.1946 313.253 19.6236C311.923 21.02 311.559 22.8046 311.627 24.0411L311.766 41.3312L311.768 41.5477L311.891 41.726L316.467 48.3592C316.555 54.4054 316.725 66.8479 316.725 69.9815C316.725 73.5534 319.112 74.9751 320.436 75.2151L320.498 75.2264H320.562H328.626C329.481 75.2876 330.213 75.1039 330.821 74.7375C331.427 74.3715 331.87 73.8471 332.188 73.2884C332.815 72.1869 333.011 70.8635 333.011 69.9815V48.3545L337.584 41.726L337.715 41.5368L337.709 41.307C337.622 38.0012 337.5 29.9227 337.708 24.0432C337.765 22.4557 337.437 21.1832 336.818 20.1894C336.199 19.1955 335.321 18.5326 334.366 18.1102C332.483 17.2779 330.246 17.3524 328.772 17.6528L328.514 17.7054L328.353 17.9148L324.949 22.3556Z" fill="#EFBAAF" fill-opacity="0.38" stroke="#B4B5C1" stroke-width="1.41058"/>
<path d="M324.477 17.3471C326.265 17.3471 327.827 16.37 328.918 14.9018C330.009 13.4336 330.663 11.4383 330.663 9.26498C330.663 7.09164 330.009 5.09641 328.918 3.62818C327.827 2.15999 326.265 1.1829 324.477 1.1829C322.689 1.1829 321.126 2.15999 320.035 3.62818C318.944 5.09641 318.291 7.09164 318.291 9.26498C318.291 11.4383 318.944 13.4336 320.035 14.9018C321.126 16.37 322.689 17.3471 324.477 17.3471Z" fill="#EFBAAF" fill-opacity="0.38" stroke="#B4B5C1" stroke-width="1.41058"/>
<path d="M363.738 22.3556L359.609 17.8664L359.428 17.6693L359.161 17.6422C355.664 17.2857 353.403 18.1946 352.042 19.6236C350.712 21.02 350.348 22.8046 350.416 24.0411L350.555 41.3312L350.557 41.5477L350.68 41.726L355.256 48.3592C355.344 54.4054 355.514 66.8479 355.514 69.9815C355.514 73.5534 357.901 74.9751 359.225 75.2151L359.287 75.2264H359.351H367.415C368.27 75.2876 369.002 75.1039 369.61 74.7375C370.216 74.3715 370.659 73.8471 370.977 73.2884C371.604 72.1869 371.8 70.8635 371.8 69.9815V48.3545L376.373 41.726L376.504 41.5368L376.498 41.307C376.411 38.0012 376.289 29.9227 376.497 24.0432C376.554 22.4557 376.226 21.1832 375.607 20.1894C374.988 19.1955 374.11 18.5326 373.155 18.1102C371.272 17.2779 369.035 17.3524 367.561 17.6528L367.303 17.7054L367.142 17.9148L363.738 22.3556Z" fill="#EFBAAF" fill-opacity="0.38" stroke="#B4B5C1" stroke-width="1.41058"/>
<path d="M363.266 17.3471C365.054 17.3471 366.616 16.37 367.707 14.9018C368.798 13.4336 369.452 11.4383 369.452 9.26498C369.452 7.09164 368.798 5.09641 367.707 3.62818C366.616 2.15999 365.054 1.1829 363.266 1.1829C361.478 1.1829 359.915 2.15999 358.824 3.62818C357.733 5.09641 357.08 7.09164 357.08 9.26498C357.08 11.4383 357.733 13.4336 358.824 14.9018C359.915 16.37 361.478 17.3471 363.266 17.3471Z" fill="#EFBAAF" fill-opacity="0.38" stroke="#B4B5C1" stroke-width="1.41058"/>
<path d="M402.535 22.3556L398.406 17.8664L398.225 17.6693L397.958 17.6422C394.461 17.2857 392.199 18.1946 390.839 19.6236C389.509 21.02 389.145 22.8046 389.213 24.0411L389.352 41.3312L389.354 41.5477L389.477 41.726L394.053 48.3592C394.141 54.4054 394.311 66.8479 394.311 69.9815C394.311 73.5534 396.698 74.9751 398.022 75.2151L398.084 75.2264H398.148H406.212C407.067 75.2876 407.799 75.1039 408.406 74.7375C409.013 74.3715 409.456 73.8471 409.774 73.2884C410.401 72.1869 410.597 70.8635 410.597 69.9815V48.3545L415.17 41.726L415.301 41.5368L415.295 41.307C415.208 38.0012 415.086 29.9227 415.294 24.0432C415.35 22.4557 415.023 21.1832 414.404 20.1894C413.785 19.1955 412.907 18.5326 411.952 18.1102C410.069 17.2779 407.832 17.3524 406.358 17.6528L406.1 17.7054L405.939 17.9148L402.535 22.3556Z" fill="#EFBAAF" fill-opacity="0.38" stroke="#B4B5C1" stroke-width="1.41058"/>
<path d="M402.063 17.3471C403.851 17.3471 405.413 16.37 406.504 14.9018C407.595 13.4336 408.249 11.4383 408.249 9.26498C408.249 7.09164 407.595 5.09641 406.504 3.62818C405.413 2.15999 403.851 1.1829 402.063 1.1829C400.275 1.1829 398.712 2.15999 397.621 3.62818C396.53 5.09641 395.877 7.09164 395.877 9.26498C395.877 11.4383 396.53 13.4336 397.621 14.9018C398.712 16.37 400.275 17.3471 402.063 17.3471Z" fill="#EFBAAF" fill-opacity="0.38" stroke="#B4B5C1" stroke-width="1.41058"/>
</svg>
