<?xml version="1.0" encoding="UTF-8"?>
<svg xmlns="http://www.w3.org/2000/svg" xmlns:xlink="http://www.w3.org/1999/xlink" viewBox="0 0 552.4 270.91">
  <defs>
    <style>
      .cls-1 {
        fill: url(#_Áåçûìÿííûé_ãðàäèåíò_68-12);
      }

      .cls-1, .cls-2, .cls-3, .cls-4, .cls-5, .cls-6, .cls-7, .cls-8, .cls-9, .cls-10, .cls-11, .cls-12, .cls-13, .cls-14, .cls-15, .cls-16, .cls-17, .cls-18, .cls-19, .cls-20, .cls-21 {
        mix-blend-mode: lighten;
      }

      .cls-22 {
        fill: url(#_Áåçûìÿííûé_ãðàäèåíò_43-5);
      }

      .cls-23 {
        fill: #fff;
      }

      .cls-24 {
        fill: #bcbeff;
      }

      .cls-25 {
        fill: #0f054c;
      }

      .cls-2 {
        fill: url(#_Áåçûìÿííûé_ãðàäèåíò_68-3);
      }

      .cls-26 {
        fill: #2842a2;
      }

      .cls-27 {
        fill: url(#_Áåçûìÿííûé_ãðàäèåíò_3-7);
      }

      .cls-28 {
        fill: url(#_Áåçûìÿííûé_ãðàäèåíò_43);
      }

      .cls-29, .cls-30 {
        opacity: .51;
      }

      .cls-31 {
        opacity: .1;
      }

      .cls-31, .cls-32, .cls-33, .cls-34, .cls-35 {
        fill: #42e8e0;
      }

      .cls-36 {
        fill: url(#_Áåçûìÿííûé_ãðàäèåíò_18);
      }

      .cls-37 {
        fill: #24126a;
      }

      .cls-38 {
        fill: url(#_Áåçûìÿííûé_ãðàäèåíò_3-11);
      }

      .cls-39 {
        fill: url(#_Áåçûìÿííûé_ãðàäèåíò_3-10);
      }

      .cls-40 {
        fill: url(#_Áåçûìÿííûé_ãðàäèåíò_43-6);
      }

      .cls-3 {
        fill: url(#_Áåçûìÿííûé_ãðàäèåíò_13);
      }

      .cls-3, .cls-4, .cls-6, .cls-9, .cls-12, .cls-13, .cls-15, .cls-18 {
        opacity: .6;
      }

      .cls-4 {
        fill: url(#_Áåçûìÿííûé_ãðàäèåíò_13-3);
      }

      .cls-5 {
        fill: url(#_Áåçûìÿííûé_ãðàäèåíò_68-5);
      }

      .cls-41 {
        fill: url(#_Áåçûìÿííûé_ãðàäèåíò_43-12);
      }

      .cls-42 {
        isolation: isolate;
      }

      .cls-43 {
        fill: url(#_Áåçûìÿííûé_ãðàäèåíò_254);
      }

      .cls-43, .cls-44, .cls-45, .cls-46, .cls-47, .cls-48, .cls-49, .cls-50, .cls-51, .cls-52, .cls-53, .cls-54, .cls-35 {
        opacity: .5;
      }

      .cls-55, .cls-17 {
        fill: #8686f2;
      }

      .cls-56 {
        fill: url(#_Áåçûìÿííûé_ãðàäèåíò_3-9);
      }

      .cls-6 {
        fill: url(#_Áåçûìÿííûé_ãðàäèåíò_13-6);
      }

      .cls-57 {
        fill: url(#_Áåçûìÿííûé_ãðàäèåíò_18-2);
      }

      .cls-58 {
        fill: url(#_Áåçûìÿííûé_ãðàäèåíò_43-3);
      }

      .cls-59 {
        opacity: .7;
      }

      .cls-59, .cls-60, .cls-30 {
        fill: #453c9e;
      }

      .cls-61 {
        fill: url(#_Áåçûìÿííûé_ãðàäèåíò_43-8);
      }

      .cls-62 {
        fill: url(#_Áåçûìÿííûé_ãðàäèåíò_3-8);
      }

      .cls-63 {
        clip-path: url(#clippath-1);
      }

      .cls-64 {
        opacity: .11;
      }

      .cls-32 {
        opacity: .4;
      }

      .cls-44 {
        fill: url(#_Áåçûìÿííûé_ãðàäèåíò_254-9);
      }

      .cls-65 {
        fill: url(#_Áåçûìÿííûé_ãðàäèåíò_3-4);
      }

      .cls-45 {
        fill: url(#_Áåçûìÿííûé_ãðàäèåíò_254-12);
      }

      .cls-66 {
        fill: url(#_Áåçûìÿííûé_ãðàäèåíò_24-3);
      }

      .cls-46 {
        fill: url(#_Áåçûìÿííûé_ãðàäèåíò_254-8);
      }

      .cls-67 {
        fill: url(#_Áåçûìÿííûé_ãðàäèåíò_24-4);
      }

      .cls-68 {
        fill: url(#_Áåçûìÿííûé_ãðàäèåíò_24);
      }

      .cls-7 {
        fill: url(#_Áåçûìÿííûé_ãðàäèåíò_68-6);
      }

      .cls-8 {
        fill: url(#_Áåçûìÿííûé_ãðàäèåíò_68-10);
      }

      .cls-33 {
        opacity: .8;
      }

      .cls-9 {
        fill: url(#_Áåçûìÿííûé_ãðàäèåíò_13-5);
      }

      .cls-69 {
        fill: url(#_Áåçûìÿííûé_ãðàäèåíò_43-2);
      }

      .cls-47 {
        fill: url(#_Áåçûìÿííûé_ãðàäèåíò_254-2);
      }

      .cls-70 {
        fill: url(#_Áåçûìÿííûé_ãðàäèåíò_3-3);
      }

      .cls-71 {
        clip-path: url(#clippath);
      }

      .cls-10 {
        fill: url(#_Áåçûìÿííûé_ãðàäèåíò_68-11);
      }

      .cls-72 {
        fill: url(#_Áåçûìÿííûé_ãðàäèåíò_3-5);
      }

      .cls-73 {
        fill: url(#_Áåçûìÿííûé_ãðàäèåíò_3-12);
      }

      .cls-74 {
        fill: url(#_Áåçûìÿííûé_ãðàäèåíò_43-11);
      }

      .cls-11 {
        fill: url(#_Áåçûìÿííûé_ãðàäèåíò_68-9);
      }

      .cls-12 {
        fill: url(#_Áåçûìÿííûé_ãðàäèåíò_13-7);
      }

      .cls-75 {
        fill: none;
      }

      .cls-48 {
        fill: url(#_Áåçûìÿííûé_ãðàäèåíò_254-3);
      }

      .cls-49 {
        fill: url(#_Áåçûìÿííûé_ãðàäèåíò_254-11);
      }

      .cls-76 {
        fill: url(#_Áåçûìÿííûé_ãðàäèåíò_3-2);
      }

      .cls-13 {
        fill: url(#_Áåçûìÿííûé_ãðàäèåíò_13-8);
      }

      .cls-50 {
        fill: url(#_Áåçûìÿííûé_ãðàäèåíò_254-4);
      }

      .cls-14 {
        fill: url(#_Áåçûìÿííûé_ãðàäèåíò_68);
      }

      .cls-77 {
        fill: #adb1f2;
      }

      .cls-78 {
        fill: url(#_Áåçûìÿííûé_ãðàäèåíò_3-6);
      }

      .cls-79 {
        fill: url(#_Áåçûìÿííûé_ãðàäèåíò_43-7);
      }

      .cls-51 {
        fill: url(#_Áåçûìÿííûé_ãðàäèåíò_254-6);
      }

      .cls-80 {
        fill: url(#_Áåçûìÿííûé_ãðàäèåíò_3);
      }

      .cls-52 {
        fill: url(#_Áåçûìÿííûé_ãðàäèåíò_254-5);
      }

      .cls-81 {
        fill: url(#_Áåçûìÿííûé_ãðàäèåíò_43-10);
      }

      .cls-15 {
        fill: url(#_Áåçûìÿííûé_ãðàäèåíò_13-2);
      }

      .cls-53 {
        fill: url(#_Áåçûìÿííûé_ãðàäèåíò_254-10);
      }

      .cls-82 {
        fill: url(#_Áåçûìÿííûé_ãðàäèåíò_43-4);
      }

      .cls-83 {
        fill: url(#_Áåçûìÿííûé_ãðàäèåíò_24-2);
      }

      .cls-54 {
        fill: url(#_Áåçûìÿííûé_ãðàäèåíò_254-7);
      }

      .cls-16 {
        fill: url(#_Áåçûìÿííûé_ãðàäèåíò_68-7);
      }

      .cls-18 {
        fill: url(#_Áåçûìÿííûé_ãðàäèåíò_13-4);
      }

      .cls-84 {
        fill: #9198db;
      }

      .cls-85 {
        fill: url(#_Áåçûìÿííûé_ãðàäèåíò_43-9);
      }

      .cls-19 {
        fill: url(#_Áåçûìÿííûé_ãðàäèåíò_68-4);
      }

      .cls-20 {
        fill: url(#_Áåçûìÿííûé_ãðàäèåíò_68-2);
      }

      .cls-21 {
        fill: url(#_Áåçûìÿííûé_ãðàäèåíò_68-8);
      }
    </style>
    <linearGradient id="_Áåçûìÿííûé_ãðàäèåíò_13" data-name="Áåçûìÿííûé ãðàäèåíò 13" x1="-1823.97" y1="-750.21" x2="-1823.97" y2="-790.28" gradientTransform="translate(1199.04 1500.04) rotate(30) skewX(-30)" gradientUnits="userSpaceOnUse">
      <stop offset="0" stop-color="#42e8e0"/>
      <stop offset=".02" stop-color="#40ddd9"/>
      <stop offset=".11" stop-color="#36adbc"/>
      <stop offset=".22" stop-color="#2e82a2"/>
      <stop offset=".32" stop-color="#275e8c"/>
      <stop offset=".43" stop-color="#21407a"/>
      <stop offset=".55" stop-color="#1d296c"/>
      <stop offset=".67" stop-color="#1a1962"/>
      <stop offset=".81" stop-color="#18105c"/>
      <stop offset="1" stop-color="#180d5b"/>
    </linearGradient>
    <linearGradient id="_Áåçûìÿííûé_ãðàäèåíò_13-2" data-name="Áåçûìÿííûé ãðàäèåíò 13" x1="1018.4" y1="-69.02" x2="1018.4" y2="-115.3" gradientTransform="translate(-618.86 777.42) rotate(-30) scale(1.15 .87) skewX(23.41)" xlink:href="#_Áåçûìÿííûé_ãðàäèåíò_13"/>
    <linearGradient id="_Áåçûìÿííûé_ãðàäèåíò_13-3" data-name="Áåçûìÿííûé ãðàäèåíò 13" x1="606.06" y1="2726.87" x2="606.06" y2="2686.8" gradientTransform="translate(-1862.25 2049.69) rotate(-150) skewX(-30)" xlink:href="#_Áåçûìÿííûé_ãðàäèåíò_13"/>
    <linearGradient id="_Áåçûìÿííûé_ãðàäèåíò_13-4" data-name="Áåçûìÿííûé ãðàäèåíò 13" x1="-2458.68" y1="2361" x2="-2458.68" y2="2314.73" gradientTransform="translate(-44.36 2772.31) rotate(150) scale(1.15 .87) skewX(23.41)" xlink:href="#_Áåçûìÿííûé_ãðàäèåíò_13"/>
    <linearGradient id="_Áåçûìÿííûé_ãðàäèåíò_13-5" data-name="Áåçûìÿííûé ãðàäèåíò 13" x1="-1913.02" y1="-673.09" x2="-1913.02" y2="-713.16" xlink:href="#_Áåçûìÿííûé_ãðàäèåíò_13"/>
    <linearGradient id="_Áåçûìÿííûé_ãðàäèåíò_13-6" data-name="Áåçûìÿííûé ãðàäèåíò 13" x1="941.28" y1="-158.08" x2="941.28" y2="-204.36" gradientTransform="translate(-618.86 777.42) rotate(-30) scale(1.15 .87) skewX(23.41)" xlink:href="#_Áåçûìÿííûé_ãðàäèåíò_13"/>
    <linearGradient id="_Áåçûìÿííûé_ãðàäèåíò_13-7" data-name="Áåçûìÿííûé ãðàäèåíò 13" x1="695.11" y1="2649.75" x2="695.11" y2="2609.68" gradientTransform="translate(-1862.25 2049.69) rotate(-150) skewX(-30)" xlink:href="#_Áåçûìÿííûé_ãðàäèåíò_13"/>
    <linearGradient id="_Áåçûìÿííûé_ãðàäèåíò_13-8" data-name="Áåçûìÿííûé ãðàäèåíò 13" x1="-2381.56" y1="2450.06" x2="-2381.56" y2="2403.78" gradientTransform="translate(-44.36 2772.31) rotate(150) scale(1.15 .87) skewX(23.41)" xlink:href="#_Áåçûìÿííûé_ãðàäèåíò_13"/>
    <linearGradient id="_Áåçûìÿííûé_ãðàäèåíò_18" data-name="Áåçûìÿííûé ãðàäèåíò 18" x1="143.28" y1="171.99" x2="241.76" y2="171.99" gradientUnits="userSpaceOnUse">
      <stop offset="0" stop-color="#5761d7"/>
      <stop offset=".16" stop-color="#5e67d9"/>
      <stop offset=".41" stop-color="#7179e1"/>
      <stop offset=".69" stop-color="#9197ee"/>
      <stop offset="1" stop-color="#bcbeff"/>
    </linearGradient>
    <linearGradient id="_Áåçûìÿííûé_ãðàäèåíò_254" data-name="Áåçûìÿííûé ãðàäèåíò 254" x1="171.15" y1="158.68" x2="230.26" y2="158.68" gradientUnits="userSpaceOnUse">
      <stop offset="0" stop-color="#42e8e0"/>
      <stop offset=".15" stop-color="#42e3df"/>
      <stop offset=".33" stop-color="#44d4de"/>
      <stop offset=".52" stop-color="#48bddd"/>
      <stop offset=".72" stop-color="#4d9bda"/>
      <stop offset=".93" stop-color="#5471d8"/>
      <stop offset="1" stop-color="#5761d7"/>
    </linearGradient>
    <linearGradient id="_Áåçûìÿííûé_ãðàäèåíò_254-2" data-name="Áåçûìÿííûé ãðàäèåíò 254" x1="200.7" y1="148" y2="148" xlink:href="#_Áåçûìÿííûé_ãðàäèåíò_254"/>
    <linearGradient id="_Áåçûìÿííûé_ãðàäèåíò_254-3" data-name="Áåçûìÿííûé ãðàäèåíò 254" y1="148" x2="200.7" y2="148" xlink:href="#_Áåçûìÿííûé_ãðàäèåíò_254"/>
    <linearGradient id="_Áåçûìÿííûé_ãðàäèåíò_254-4" data-name="Áåçûìÿííûé ãðàäèåíò 254" y1="154.38" y2="154.38" xlink:href="#_Áåçûìÿííûé_ãðàäèåíò_254"/>
    <linearGradient id="_Áåçûìÿííûé_ãðàäèåíò_254-5" data-name="Áåçûìÿííûé ãðàäèåíò 254" x1="200.7" y1="165.06" y2="165.06" xlink:href="#_Áåçûìÿííûé_ãðàäèåíò_254"/>
    <linearGradient id="_Áåçûìÿííûé_ãðàäèåíò_254-6" data-name="Áåçûìÿííûé ãðàäèåíò 254" y1="165.06" x2="200.7" y2="165.06" xlink:href="#_Áåçûìÿííûé_ãðàäèåíò_254"/>
    <linearGradient id="_Áåçûìÿííûé_ãðàäèåíò_18-2" data-name="Áåçûìÿííûé ãðàäèåíò 18" x1="297.31" x2="395.79" xlink:href="#_Áåçûìÿííûé_ãðàäèåíò_18"/>
    <linearGradient id="_Áåçûìÿííûé_ãðàäèåíò_254-7" data-name="Áåçûìÿííûé ãðàäèåíò 254" x1="325.18" x2="384.29" xlink:href="#_Áåçûìÿííûé_ãðàäèåíò_254"/>
    <linearGradient id="_Áåçûìÿííûé_ãðàäèåíò_254-8" data-name="Áåçûìÿííûé ãðàäèåíò 254" x1="354.73" y1="148" x2="384.29" y2="148" xlink:href="#_Áåçûìÿííûé_ãðàäèåíò_254"/>
    <linearGradient id="_Áåçûìÿííûé_ãðàäèåíò_254-9" data-name="Áåçûìÿííûé ãðàäèåíò 254" x1="325.18" y1="148" x2="354.73" y2="148" xlink:href="#_Áåçûìÿííûé_ãðàäèåíò_254"/>
    <linearGradient id="_Áåçûìÿííûé_ãðàäèåíò_254-10" data-name="Áåçûìÿííûé ãðàäèåíò 254" x1="325.18" y1="154.38" x2="384.29" y2="154.38" xlink:href="#_Áåçûìÿííûé_ãðàäèåíò_254"/>
    <linearGradient id="_Áåçûìÿííûé_ãðàäèåíò_254-11" data-name="Áåçûìÿííûé ãðàäèåíò 254" x1="354.73" y1="165.06" x2="384.29" y2="165.06" xlink:href="#_Áåçûìÿííûé_ãðàäèåíò_254"/>
    <linearGradient id="_Áåçûìÿííûé_ãðàäèåíò_254-12" data-name="Áåçûìÿííûé ãðàäèåíò 254" x1="325.18" y1="165.06" x2="354.73" y2="165.06" xlink:href="#_Áåçûìÿííûé_ãðàäèåíò_254"/>
    <linearGradient id="_Áåçûìÿííûé_ãðàäèåíò_3" data-name="Áåçûìÿííûé ãðàäèåíò 3" x1="311.96" y1="217.06" x2="311.96" y2="72.94" gradientUnits="userSpaceOnUse">
      <stop offset="0" stop-color="#c0bff6"/>
      <stop offset=".29" stop-color="#c4c3f6"/>
      <stop offset=".64" stop-color="#d2d2f9"/>
      <stop offset="1" stop-color="#e9e9fd"/>
    </linearGradient>
    <linearGradient id="_Áåçûìÿííûé_ãðàäèåíò_3-2" data-name="Áåçûìÿííûé ãðàäèåíò 3" y1="87.41" y2="40.74" xlink:href="#_Áåçûìÿííûé_ãðàäèåíò_3"/>
    <linearGradient id="_Áåçûìÿííûé_ãðàäèåíò_3-3" data-name="Áåçûìÿííûé ãðàäèåíò 3" x1="2309.68" y1="147.3" x2="2385.99" y2="147.3" gradientTransform="translate(-2278.69)" xlink:href="#_Áåçûìÿííûé_ãðàäèåíò_3"/>
    <linearGradient id="_Áåçûìÿííûé_ãðàäèåíò_24" data-name="Áåçûìÿííûé ãðàäèåíò 24" x1="2309.69" y1="166.87" x2="2322.79" y2="166.87" gradientTransform="translate(-2278.69)" gradientUnits="userSpaceOnUse">
      <stop offset="0" stop-color="#5761d7"/>
      <stop offset=".18" stop-color="#5b65d8"/>
      <stop offset=".39" stop-color="#6a72de"/>
      <stop offset=".61" stop-color="#8188e8"/>
      <stop offset=".85" stop-color="#a2a6f5"/>
      <stop offset="1" stop-color="#bcbeff"/>
    </linearGradient>
    <linearGradient id="_Áåçûìÿííûé_ãðàäèåíò_24-2" data-name="Áåçûìÿííûé ãðàäèåíò 24" x1="2319.91" y1="188.86" x2="2427.67" y2="188.86" xlink:href="#_Áåçûìÿííûé_ãðàäèåíò_24"/>
    <linearGradient id="_Áåçûìÿííûé_ãðàäèåíò_3-4" data-name="Áåçûìÿííûé ãðàäèåíò 3" x1="2356.12" y1="185.27" x2="2463.94" y2="185.27" gradientTransform="translate(-2278.69)" xlink:href="#_Áåçûìÿííûé_ãðàäèåíò_3"/>
    <linearGradient id="_Áåçûìÿííûé_ãðàäèåíò_3-5" data-name="Áåçûìÿííûé ãðàäèåíò 3" x1="2374.38" y1="191.39" x2="2401.98" y2="191.39" gradientTransform="translate(-2278.69)" xlink:href="#_Áåçûìÿííûé_ãðàäèåíò_3"/>
    <clipPath id="clippath">
      <polygon id="SVGID" class="cls-75" points="98.09 105.97 34.42 142.73 42.32 189.27 105.94 152.54 98.09 105.97"/>
    </clipPath>
    <linearGradient id="_Áåçûìÿííûé_ãðàäèåíò_3-6" data-name="Áåçûìÿííûé ãðàäèåíò 3" x1="2314.92" y1="161.37" x2="2422.74" y2="161.37" gradientTransform="translate(-2278.69)" xlink:href="#_Áåçûìÿííûé_ãðàäèåíò_3"/>
    <linearGradient id="_Áåçûìÿííûé_ãðàäèåíò_3-7" data-name="Áåçûìÿííûé ãðàäèåíò 3" x1="2307.83" y1="153.46" x2="2335.43" y2="153.46" gradientTransform="translate(-2278.69)" xlink:href="#_Áåçûìÿííûé_ãðàäèåíò_3"/>
    <linearGradient id="_Áåçûìÿííûé_ãðàäèåíò_3-8" data-name="Áåçûìÿííûé ãðàäèåíò 3" x1="63.24" y1="147.3" x2="139.55" y2="147.3" gradientTransform="translate(584.65) rotate(-180) scale(1 -1)" xlink:href="#_Áåçûìÿííûé_ãðàäèåíò_3"/>
    <linearGradient id="_Áåçûìÿííûé_ãðàäèåíò_24-3" data-name="Áåçûìÿííûé ãðàäèåíò 24" x1="63.24" x2="76.35" gradientTransform="translate(584.65) rotate(-180) scale(1 -1)" xlink:href="#_Áåçûìÿííûé_ãðàäèåíò_24"/>
    <linearGradient id="_Áåçûìÿííûé_ãðàäèåíò_24-4" data-name="Áåçûìÿííûé ãðàäèåíò 24" x1="73.47" y1="188.86" x2="181.23" y2="188.86" gradientTransform="translate(584.65) rotate(-180) scale(1 -1)" xlink:href="#_Áåçûìÿííûé_ãðàäèåíò_24"/>
    <linearGradient id="_Áåçûìÿííûé_ãðàäèåíò_3-9" data-name="Áåçûìÿííûé ãðàäèåíò 3" x1="109.68" y1="185.27" x2="217.5" y2="185.27" gradientTransform="translate(584.65) rotate(-180) scale(1 -1)" xlink:href="#_Áåçûìÿííûé_ãðàäèåíò_3"/>
    <linearGradient id="_Áåçûìÿííûé_ãðàäèåíò_3-10" data-name="Áåçûìÿííûé ãðàäèåíò 3" x1="127.94" y1="191.39" x2="155.54" y2="191.39" gradientTransform="translate(584.65) rotate(-180) scale(1 -1)" xlink:href="#_Áåçûìÿííûé_ãðàäèåíò_3"/>
    <clipPath id="clippath-1">
      <polygon id="SVGID-2" data-name="SVGID" class="cls-75" points="454.31 105.97 517.97 142.73 510.08 189.27 446.45 152.54 454.31 105.97"/>
    </clipPath>
    <linearGradient id="_Áåçûìÿííûé_ãðàäèåíò_3-11" data-name="Áåçûìÿííûé ãðàäèåíò 3" x1="68.48" y1="161.37" x2="176.3" y2="161.37" gradientTransform="translate(584.65) rotate(-180) scale(1 -1)" xlink:href="#_Áåçûìÿííûé_ãðàäèåíò_3"/>
    <linearGradient id="_Áåçûìÿííûé_ãðàäèåíò_3-12" data-name="Áåçûìÿííûé ãðàäèåíò 3" x1="61.39" y1="153.46" x2="88.98" y2="153.46" gradientTransform="translate(584.65) rotate(-180) scale(1 -1)" xlink:href="#_Áåçûìÿííûé_ãðàäèåíò_3"/>
    <radialGradient id="_Áåçûìÿííûé_ãðàäèåíò_68" data-name="Áåçûìÿííûé ãðàäèåíò 68" cx="457.68" cy="365.54" fx="457.68" fy="365.54" r="9.38" gradientTransform="translate(-254.99 666.47) rotate(-7.18) scale(1 -1)" gradientUnits="userSpaceOnUse">
      <stop offset="0" stop-color="#42e8e0"/>
      <stop offset="0" stop-color="#41e4dd"/>
      <stop offset=".06" stop-color="#38b7c2"/>
      <stop offset=".13" stop-color="#318faa"/>
      <stop offset=".2" stop-color="#2a6c94"/>
      <stop offset=".27" stop-color="#244e82"/>
      <stop offset=".36" stop-color="#1f3674"/>
      <stop offset=".45" stop-color="#1c2368"/>
      <stop offset=".56" stop-color="#191660"/>
      <stop offset=".7" stop-color="#180f5c"/>
      <stop offset="1" stop-color="#180d5b"/>
    </radialGradient>
    <radialGradient id="_Áåçûìÿííûé_ãðàäèåíò_43" data-name="Áåçûìÿííûé ãðàäèåíò 43" cx="457.68" cy="365.54" fx="457.68" fy="365.54" r="2.55" gradientTransform="translate(-57.25 793.13) rotate(-30.31) scale(1 -1)" gradientUnits="userSpaceOnUse">
      <stop offset="0" stop-color="#42e8e0"/>
      <stop offset="1" stop-color="#42e8e0"/>
    </radialGradient>
    <radialGradient id="_Áåçûìÿííûé_ãðàäèåíò_68-2" data-name="Áåçûìÿííûé ãðàäèåíò 68" cx="511.87" cy="326.33" fx="511.87" fy="326.33" r="9.38" gradientTransform="translate(-247.09 640.85) rotate(-7.18) scale(1 -1)" xlink:href="#_Áåçûìÿííûé_ãðàäèåíò_68"/>
    <radialGradient id="_Áåçûìÿííûé_ãðàäèåíò_43-2" data-name="Áåçûìÿííûé ãðàäèåíò 43" cx="511.87" cy="326.33" fx="511.87" fy="326.33" r="2.55" xlink:href="#_Áåçûìÿííûé_ãðàäèåíò_43"/>
    <radialGradient id="_Áåçûìÿííûé_ãðàäèåíò_68-3" data-name="Áåçûìÿííûé ãðàäèåíò 68" cx="610.82" cy="269.35" fx="610.82" fy="269.35" r="9.38" gradientTransform="translate(-238.21 595.94) rotate(-7.18) scale(1 -1)" xlink:href="#_Áåçûìÿííûé_ãðàäèåíò_68"/>
    <radialGradient id="_Áåçûìÿííûé_ãðàäèåíò_43-3" data-name="Áåçûìÿííûé ãðàäèåíò 43" cx="610.82" cy="269.35" fx="610.82" fy="269.35" r="2.55" xlink:href="#_Áåçûìÿííûé_ãðàäèåíò_43"/>
    <radialGradient id="_Áåçûìÿííûé_ãðàäèåíò_68-4" data-name="Áåçûìÿííûé ãðàäèåíò 68" cx="617.79" cy="256.95" fx="617.79" fy="256.95" r="9.38" gradientTransform="translate(-57.25 793.13) rotate(-30.31) scale(1 -1)" xlink:href="#_Áåçûìÿííûé_ãðàäèåíò_68"/>
    <radialGradient id="_Áåçûìÿííûé_ãðàäèåíò_43-4" data-name="Áåçûìÿííûé ãðàäèåíò 43" cx="617.79" cy="256.95" fx="617.79" fy="256.95" r="2.55" xlink:href="#_Áåçûìÿííûé_ãðàäèåíò_43"/>
    <radialGradient id="_Áåçûìÿííûé_ãðàäèåíò_68-5" data-name="Áåçûìÿííûé ãðàäèåíò 68" cx="685.34" cy="239.91" fx="685.34" fy="239.91" gradientTransform="translate(-252.31 530.26) rotate(-4.26) scale(1 -1)" xlink:href="#_Áåçûìÿííûé_ãðàäèåíò_68"/>
    <radialGradient id="_Áåçûìÿííûé_ãðàäèåíò_43-5" data-name="Áåçûìÿííûé ãðàäèåíò 43" cx="685.34" cy="239.91" fx="685.34" fy="239.91" r="2.55" xlink:href="#_Áåçûìÿííûé_ãðàäèåíò_43"/>
    <radialGradient id="_Áåçûìÿííûé_ãðàäèåíò_68-6" data-name="Áåçûìÿííûé ãðàäèåíò 68" cx="710.66" cy="251.94" fx="710.66" fy="251.94" r="9.38" gradientTransform="translate(-57.25 793.13) rotate(-30.31) scale(1 -1)" xlink:href="#_Áåçûìÿííûé_ãðàäèåíò_68"/>
    <radialGradient id="_Áåçûìÿííûé_ãðàäèåíò_43-6" data-name="Áåçûìÿííûé ãðàäèåíò 43" cx="710.66" cy="251.94" fx="710.66" fy="251.94" r="2.55" xlink:href="#_Áåçûìÿííûé_ãðàäèåíò_43"/>
    <radialGradient id="_Áåçûìÿííûé_ãðàäèåíò_68-7" data-name="Áåçûìÿííûé ãðàäèåíò 68" cx="702.49" cy="266.58" fx="702.49" fy="266.58" r="9.38" gradientTransform="translate(-57.25 793.13) rotate(-30.31) scale(1 -1)" xlink:href="#_Áåçûìÿííûé_ãðàäèåíò_68"/>
    <radialGradient id="_Áåçûìÿííûé_ãðàäèåíò_43-7" data-name="Áåçûìÿííûé ãðàäèåíò 43" cx="702.49" cy="266.58" fx="702.49" fy="266.58" r="2.55" xlink:href="#_Áåçûìÿííûé_ãðàäèåíò_43"/>
    <radialGradient id="_Áåçûìÿííûé_ãðàäèåíò_68-8" data-name="Áåçûìÿííûé ãðàäèåíò 68" cx="694.03" cy="280.71" fx="694.03" fy="280.71" r="9.38" gradientTransform="translate(-57.25 793.13) rotate(-30.31) scale(1 -1)" xlink:href="#_Áåçûìÿííûé_ãðàäèåíò_68"/>
    <radialGradient id="_Áåçûìÿííûé_ãðàäèåíò_43-8" data-name="Áåçûìÿííûé ãðàäèåíò 43" cx="694.03" cy="280.71" fx="694.03" fy="280.71" r="2.55" xlink:href="#_Áåçûìÿííûé_ãðàäèåíò_43"/>
    <radialGradient id="_Áåçûìÿííûé_ãðàäèåíò_68-9" data-name="Áåçûìÿííûé ãðàäèåíò 68" cx="451.04" cy="377.29" fx="451.04" fy="377.29" r="9.38" gradientTransform="translate(-57.25 793.13) rotate(-30.31) scale(1 -1)" xlink:href="#_Áåçûìÿííûé_ãðàäèåíò_68"/>
    <radialGradient id="_Áåçûìÿííûé_ãðàäèåíò_43-9" data-name="Áåçûìÿííûé ãðàäèåíò 43" cx="451.04" cy="377.29" fx="451.04" fy="377.29" r="2.55" xlink:href="#_Áåçûìÿííûé_ãðàäèåíò_43"/>
    <radialGradient id="_Áåçûìÿííûé_ãðàäèåíò_68-10" data-name="Áåçûìÿííûé ãðàäèåíò 68" cx="444.4" cy="389.04" fx="444.4" fy="389.04" r="9.38" gradientTransform="translate(-459.28 193.86) rotate(45) scale(1 -1)" xlink:href="#_Áåçûìÿííûé_ãðàäèåíò_68"/>
    <radialGradient id="_Áåçûìÿííûé_ãðàäèåíò_43-10" data-name="Áåçûìÿííûé ãðàäèåíò 43" cx="444.4" cy="389.04" fx="444.4" fy="389.04" r="2.55" xlink:href="#_Áåçûìÿííûé_ãðàäèåíò_43"/>
    <radialGradient id="_Áåçûìÿííûé_ãðàäèåíò_68-11" data-name="Áåçûìÿííûé ãðàäèåíò 68" cx="486.53" cy="404.95" fx="486.53" fy="404.95" r="9.38" gradientTransform="translate(-57.25 793.13) rotate(-30.31) scale(1 -1)" xlink:href="#_Áåçûìÿííûé_ãðàäèåíò_68"/>
    <radialGradient id="_Áåçûìÿííûé_ãðàäèåíò_43-11" data-name="Áåçûìÿííûé ãðàäèåíò 43" cx="486.53" cy="404.95" fx="486.53" fy="404.95" r="2.55" xlink:href="#_Áåçûìÿííûé_ãðàäèåíò_43"/>
    <radialGradient id="_Áåçûìÿííûé_ãðàäèåíò_68-12" data-name="Áåçûìÿííûé ãðàäèåíò 68" cx="500.59" cy="404.32" fx="500.59" fy="404.32" r="9.38" gradientTransform="translate(-57.25 793.13) rotate(-30.31) scale(1 -1)" xlink:href="#_Áåçûìÿííûé_ãðàäèåíò_68"/>
    <radialGradient id="_Áåçûìÿííûé_ãðàäèåíò_43-12" data-name="Áåçûìÿííûé ãðàäèåíò 43" cx="500.59" cy="404.32" fx="500.59" fy="404.32" r="2.55" xlink:href="#_Áåçûìÿííûé_ãðàäèåíò_43"/>
  </defs>
  <g class="cls-42">
    <g id="_Ñëîé_1" data-name="Ñëîé 1">
      <path class="cls-55" d="M363.17,268.89c-.86,0-1.72-.22-2.49-.67l-38.39-22.17,.33-.57,38.39,22.17c1.34,.77,3,.77,4.34,0l11.21-6.52,62.78-36.25c.29-.17,.46-.47,.46-.8,0-.34-.17-.64-.46-.8l-65.11-37.59,.33-.57,65.11,37.59c.5,.29,.79,.8,.79,1.37,0,.57-.3,1.08-.79,1.37l-62.78,36.25-11.21,6.52c-.77,.45-1.64,.67-2.51,.67Z"/>
      <path class="cls-55" d="M117.75,175.61l-.33-.57,45.48-26.26c1.6-.92,3.58-.92,5.18,0l21.26,12.27-.33,.57-21.26-12.27c-1.4-.81-3.13-.81-4.53,0l-45.48,26.26Z"/>
      <path class="cls-55" d="M439.01,175.61l-45.48-26.26c-1.4-.81-3.13-.81-4.53,0l-21.26,12.27-.33-.57,21.26-12.27c1.6-.92,3.58-.92,5.18,0l45.48,26.26-.33,.57Z"/>
      <g>
        <polygon class="cls-3" points="424.74 140.39 394.81 123.11 354.73 146.25 384.66 163.53 424.74 140.39"/>
        <polygon class="cls-15" points="314.66 123.11 284.73 140.39 324.8 163.53 354.73 146.25 314.66 123.11"/>
        <polygon class="cls-4" points="284.73 186.66 314.66 203.94 354.73 180.81 324.8 163.53 284.73 186.66"/>
        <polygon class="cls-18" points="394.81 203.94 424.74 186.66 384.66 163.53 354.73 180.81 394.81 203.94"/>
      </g>
      <g>
        <polygon class="cls-9" points="270.49 140.39 240.56 123.11 200.49 146.25 230.42 163.53 270.49 140.39"/>
        <polygon class="cls-6" points="160.42 123.11 130.49 140.39 170.56 163.53 200.49 146.25 160.42 123.11"/>
        <polygon class="cls-12" points="130.49 186.66 160.42 203.94 200.49 180.81 170.56 163.53 130.49 186.66"/>
        <polygon class="cls-13" points="240.57 203.94 270.5 186.66 230.42 163.53 200.49 180.81 240.57 203.94"/>
      </g>
      <g>
        <g>
          <g>
            <path class="cls-17" d="M200.7,196.38c-.6,0-1.17-.12-1.61-.38l-36.19-20.89c-.47-.27-.72-.66-.72-1.09,0-.5,.35-.99,.97-1.34l35.7-20.61c1.09-.63,2.7-.69,3.65-.14l36.19,20.89c.47,.27,.72,.66,.72,1.09,0,.5-.35,.99-.97,1.34l-35.7,20.61c-.59,.34-1.34,.52-2.04,.52Zm-1.33-.86c.77,.45,2.19,.38,3.09-.14l35.7-20.61c.43-.25,.69-.57,.69-.86,0-.29-.24-.49-.44-.6l-36.19-20.89c-.77-.45-2.19-.38-3.09,.14l-35.7,20.61c-.43,.25-.69,.57-.69,.86,0,.29,.24,.49,.44,.6l36.19,20.89Z"/>
            <g>
              <g>
                <polygon class="cls-36" points="239.13 158.68 239.13 163.12 200.7 185.3 162.28 163.12 162.28 158.68 239.13 158.68"/>
                <polygon class="cls-24" points="200.7 180.86 162.28 158.68 200.7 136.49 239.13 158.68 200.7 180.86"/>
                <polygon class="cls-23" points="200.7 180.35 162.72 158.42 162.28 158.68 200.7 180.86 239.13 158.68 238.68 158.42 200.7 180.35"/>
              </g>
              <g>
                <polygon class="cls-25" points="200.7 175.75 171.15 158.68 200.7 141.62 230.26 158.68 200.7 175.75"/>
                <g>
                  <polygon class="cls-43" points="200.7 175.75 171.15 158.68 200.7 141.62 230.26 158.68 200.7 175.75"/>
                  <g>
                    <polygon class="cls-47" points="200.7 137.32 230.26 154.38 230.26 158.68 200.7 141.62 200.7 137.32"/>
                    <polygon class="cls-48" points="200.7 141.62 171.15 158.68 171.15 154.38 200.7 137.32 200.7 141.62"/>
                    <polygon class="cls-50" points="200.7 171.44 171.15 154.38 200.7 137.32 230.26 154.38 200.7 171.44"/>
                    <polygon class="cls-35" points="200.7 161.2 188.89 154.38 200.7 147.56 212.51 154.38 200.7 161.2"/>
                    <polygon class="cls-35" points="200.7 148.19 211.97 154.69 212.51 154.38 200.7 147.56 188.89 154.38 189.44 154.69 200.7 148.19"/>
                    <polygon class="cls-52" points="200.7 171.44 200.7 175.75 230.26 158.68 230.26 154.38 200.7 171.44"/>
                  </g>
                  <polygon class="cls-51" points="171.15 154.38 171.15 158.68 200.7 175.75 200.7 171.44 171.15 154.38"/>
                </g>
                <polygon class="cls-33" points="200.7 170.97 171.55 154.14 171.15 154.38 200.7 171.44 230.26 154.38 229.85 154.15 200.7 170.97"/>
              </g>
            </g>
          </g>
          <g>
            <path class="cls-17" d="M354.73,196.38c-.6,0-1.17-.12-1.61-.38l-36.19-20.89c-.47-.27-.72-.66-.72-1.09,0-.5,.35-.99,.97-1.34l35.7-20.61c1.09-.63,2.7-.69,3.65-.14l36.19,20.89c.47,.27,.72,.66,.72,1.09,0,.5-.35,.99-.97,1.34l-35.7,20.61c-.59,.34-1.34,.52-2.04,.52Zm-1.33-.86c.77,.45,2.19,.38,3.09-.14l35.7-20.61c.43-.25,.69-.57,.69-.86,0-.29-.24-.49-.44-.6l-36.19-20.89c-.77-.45-2.19-.38-3.09,.14l-35.7,20.61c-.43,.25-.69,.57-.69,.86,0,.29,.24,.49,.44,.6l36.19,20.89Z"/>
            <g>
              <g>
                <polygon class="cls-57" points="393.16 158.68 393.16 163.12 354.74 185.3 316.31 163.12 316.31 158.68 393.16 158.68"/>
                <polygon class="cls-24" points="354.74 180.86 316.31 158.68 354.73 136.49 393.16 158.68 354.74 180.86"/>
                <polygon class="cls-23" points="354.74 180.35 316.76 158.42 316.31 158.68 354.74 180.86 393.16 158.68 392.71 158.42 354.74 180.35"/>
              </g>
              <g>
                <polygon class="cls-25" points="354.73 175.75 325.18 158.68 354.73 141.62 384.29 158.68 354.73 175.75"/>
                <g>
                  <polygon class="cls-54" points="354.73 175.75 325.18 158.68 354.73 141.62 384.29 158.68 354.73 175.75"/>
                  <g>
                    <polygon class="cls-46" points="354.73 137.32 384.29 154.38 384.29 158.68 354.73 141.62 354.73 137.32"/>
                    <polygon class="cls-44" points="354.73 141.62 325.18 158.68 325.18 154.38 354.73 137.32 354.73 141.62"/>
                    <polygon class="cls-53" points="354.73 171.44 325.18 154.38 354.73 137.32 384.29 154.38 354.73 171.44"/>
                    <polygon class="cls-35" points="354.73 161.2 342.92 154.38 354.73 147.56 366.54 154.38 354.73 161.2"/>
                    <polygon class="cls-35" points="354.73 148.19 366 154.69 366.54 154.38 354.73 147.56 342.92 154.38 343.47 154.69 354.73 148.19"/>
                    <polygon class="cls-49" points="354.73 171.44 354.73 175.75 384.29 158.68 384.29 154.38 354.73 171.44"/>
                  </g>
                  <polygon class="cls-45" points="325.18 154.38 325.18 158.68 354.73 175.75 354.73 171.44 325.18 154.38"/>
                </g>
                <polygon class="cls-33" points="354.73 170.97 325.58 154.14 325.18 154.38 354.73 171.44 384.29 154.38 383.88 154.15 354.73 170.97"/>
              </g>
            </g>
          </g>
        </g>
        <g>
          <polygon class="cls-24" points="277.81 108.32 209.52 68.89 277.81 29.46 346.11 68.89 277.81 108.32"/>
          <polygon class="cls-59" points="277.81 104.77 215.67 68.89 277.81 33.01 339.96 68.89 277.81 104.77"/>
          <path class="cls-55" d="M277.81,270.91c-1.05,0-2.11-.27-3.05-.81l-83.65-48.3c-.56-.32-.9-.91-.9-1.55s.34-1.23,.9-1.55l86.69-50.05,89.39,51.61-86.34,49.85c-.94,.54-1.99,.81-3.05,.81Zm-2.72-1.38c1.68,.97,3.76,.97,5.44,0l85.36-49.28-88.08-50.85-86.37,49.86c-.36,.21-.57,.57-.57,.99s.21,.78,.57,.99l83.65,48.3Z"/>
          <polygon class="cls-23" points="277.81 259.68 209.52 220.24 277.81 180.81 346.11 220.25 277.81 259.68"/>
          <polygon class="cls-80" points="346.11 68.89 346.11 220.25 277.81 259.68 277.81 108.32 346.11 68.89"/>
          <polygon class="cls-37" points="209.52 68.89 209.52 220.24 277.81 259.68 277.81 108.32 209.52 68.89"/>
          <g class="cls-29">
            <polygon class="cls-60" points="214.14 78.93 214.14 214.97 273.19 249.06 273.19 113.02 214.14 78.93"/>
          </g>
          <polygon class="cls-60" points="335.86 105.46 335.86 109.46 288.06 137.06 288.06 133.06 335.86 105.46"/>
          <polygon class="cls-60" points="335.86 122.37 335.86 126.37 288.06 153.98 288.06 149.97 335.86 122.37"/>
          <polygon class="cls-60" points="335.86 139.29 335.86 143.29 288.06 170.89 288.06 166.89 335.86 139.29"/>
          <polygon class="cls-60" points="335.86 156.2 335.86 160.21 288.06 187.81 288.06 183.81 335.86 156.2"/>
          <polygon class="cls-60" points="335.86 173.12 335.86 177.12 288.06 204.72 288.06 200.72 335.86 173.12"/>
          <polygon class="cls-60" points="335.86 190.03 335.86 194.04 288.06 221.64 288.06 217.64 335.86 190.03"/>
          <polygon class="cls-23" points="277.81 107.04 210.63 68.25 209.52 68.89 277.81 108.32 346.11 68.89 345 68.25 277.81 107.04"/>
          <g class="cls-29">
            <polygon class="cls-60" points="209.52 196.33 277.81 155.09 277.81 108.32 209.52 68.89 209.52 196.33"/>
          </g>
          <g>
            <polygon class="cls-34" points="221.21 127.11 229.71 132.02 229.71 130.54 221.22 125.64 221.21 127.11"/>
            <polygon class="cls-34" points="231.08 132.8 235.71 135.48 235.71 134 231.08 131.33 231.08 132.8"/>
            <polygon class="cls-34" points="242.91 139.63 246.27 141.57 246.27 140.09 242.92 138.16 242.91 139.63"/>
            <polygon class="cls-34" points="240.47 138.22 241.62 138.88 241.62 137.41 240.47 136.75 240.47 138.22"/>
            <polygon class="cls-34" points="237.09 136.27 239.17 137.47 239.17 136 237.09 134.79 237.09 136.27"/>
            <polygon class="cls-34" points="229.07 138.39 232.42 140.32 232.42 138.85 229.07 136.91 229.07 138.39"/>
            <polygon class="cls-34" points="221.21 133.85 227.77 137.64 227.77 136.17 221.21 132.37 221.21 133.85"/>
            <g>
              <polygon class="cls-34" points="233.45 157.75 240.01 161.54 240.01 160.07 233.45 156.28 233.45 157.75"/>
              <polygon class="cls-34" points="230.07 155.8 232.15 157 232.15 155.53 230.07 154.33 230.07 155.8"/>
            </g>
            <polygon class="cls-34" points="233.41 151 239.98 154.79 239.98 153.32 233.41 149.53 233.41 151"/>
            <polygon class="cls-34" points="230.03 149.05 232.11 150.25 232.12 148.78 230.04 147.58 230.03 149.05"/>
            <polygon class="cls-34" points="233.49 186.87 221.12 179.73 221.12 181.2 233.49 188.34 233.49 186.87"/>
            <polygon class="cls-34" points="237.85 189.39 234.79 187.62 234.78 189.09 237.84 190.86 237.85 189.39"/>
            <polygon class="cls-34" points="257.88 190.82 245.51 183.67 245.51 185.15 257.87 192.29 257.88 190.82"/>
            <polygon class="cls-34" points="262.23 193.33 259.17 191.56 259.17 193.04 262.23 194.81 262.23 193.33"/>
            <polygon class="cls-34" points="224.47 178.29 221.12 176.36 221.12 177.83 224.47 179.77 224.47 178.29"/>
            <polygon class="cls-34" points="243.73 182.66 240.38 180.73 240.37 182.2 243.72 184.13 243.73 182.66"/>
            <polygon class="cls-34" points="232.34 182.83 225.77 179.04 225.77 180.52 232.34 184.31 232.34 182.83"/>
            <polygon class="cls-34" points="235.71 184.78 233.64 183.58 233.63 185.06 235.71 186.26 235.71 184.78"/>
            <polygon class="cls-34" points="243.64 189.35 237.07 185.56 237.07 187.04 243.64 190.83 243.64 189.35"/>
            <polygon class="cls-34" points="247.02 191.3 244.94 190.1 244.93 191.58 247.01 192.78 247.02 191.3"/>
            <polygon class="cls-34" points="243.72 186.03 240.37 184.1 240.37 185.57 243.72 187.51 243.72 186.03"/>
            <polygon class="cls-34" points="251.59 190.57 245.02 186.78 245.02 188.26 251.58 192.05 251.59 190.57"/>
            <polygon class="cls-34" points="254.96 192.52 252.88 191.32 252.88 192.8 254.96 194 254.96 192.52"/>
            <polygon class="cls-34" points="227.98 176.95 221.13 172.99 221.12 174.46 227.98 178.42 227.98 176.95"/>
            <polygon class="cls-34" points="234.24 180.56 229.28 177.7 229.28 179.17 234.24 182.04 234.24 180.56"/>
            <polygon class="cls-34" points="238.89 183.25 235.54 181.31 235.54 182.79 238.89 184.72 238.89 183.25"/>
            <polygon class="cls-34" points="261.56 153.75 268.41 157.71 268.41 156.24 261.56 152.28 261.56 153.75"/>
            <polygon class="cls-34" points="255.3 150.14 260.26 153.01 260.26 151.53 255.3 148.67 255.3 150.14"/>
            <polygon class="cls-34" points="250.65 147.46 254 149.39 254 147.92 250.65 145.98 250.65 147.46"/>
            <polygon class="cls-34" points="258.71 148.73 265.57 152.69 265.57 151.21 258.71 147.25 258.71 148.73"/>
            <polygon class="cls-34" points="252.45 145.12 257.41 147.98 257.41 146.5 252.46 143.64 252.45 145.12"/>
            <polygon class="cls-34" points="247.81 142.43 251.16 144.37 251.16 142.89 247.81 140.96 247.81 142.43"/>
            <polygon class="cls-34" points="234.43 154.96 236.75 156.3 236.75 154.83 234.43 153.49 234.43 154.96"/>
            <polygon class="cls-34" points="230.07 152.45 233.13 154.21 233.13 152.74 230.07 150.97 230.07 152.45"/>
            <polygon class="cls-34" points="228.03 173.6 221.17 169.64 221.17 171.12 228.03 175.07 228.03 173.6"/>
            <polygon class="cls-34" points="234.28 177.21 229.33 174.35 229.33 175.82 234.28 178.69 234.28 177.21"/>
            <polygon class="cls-34" points="238.93 179.9 235.58 177.96 235.58 179.44 238.93 181.37 238.93 179.9"/>
            <polygon class="cls-34" points="223.49 167.61 221.18 166.27 221.17 167.75 223.49 169.08 223.49 167.61"/>
            <polygon class="cls-34" points="227.85 170.13 224.79 168.36 224.79 169.83 227.85 171.6 227.85 170.13"/>
            <polygon class="cls-34" points="234.08 173.72 229.15 170.87 229.15 172.35 234.08 175.2 234.08 173.72"/>
            <polygon class="cls-34" points="235.88 145.67 238.2 147.01 238.2 145.54 235.88 144.2 235.88 145.67"/>
            <polygon class="cls-34" points="231.52 143.16 234.58 144.92 234.58 143.45 231.52 141.68 231.52 143.16"/>
            <polygon class="cls-34" points="225.29 139.56 230.22 142.41 230.22 140.93 225.29 138.09 225.29 139.56"/>
            <polygon class="cls-34" points="239.93 151.14 244.86 153.99 244.86 152.52 239.93 149.67 239.93 151.14"/>
            <polygon class="cls-34" points="231.91 146.75 238.55 150.59 238.56 149.11 231.91 145.28 231.91 146.75"/>
            <polygon class="cls-34" points="228.53 144.8 230.61 146 230.61 144.53 228.53 143.33 228.53 144.8"/>
            <polygon class="cls-34" points="225.29 142.93 227.37 144.13 227.37 142.66 225.29 141.45 225.29 142.93"/>
            <g>
              <polygon class="cls-34" points="228.61 161.97 235.17 165.76 235.18 164.28 228.61 160.49 228.61 161.97"/>
              <polygon class="cls-34" points="225.23 160.02 227.31 161.22 227.31 159.74 225.23 158.54 225.23 160.02"/>
              <polygon class="cls-34" points="229.63 165.93 231.94 167.26 231.95 165.79 229.63 164.45 229.63 165.93"/>
              <polygon class="cls-34" points="236.67 163.23 238.98 164.56 238.98 163.09 236.67 161.75 236.67 163.23"/>
              <polygon class="cls-34" points="239.97 165.13 245.52 168.34 245.53 166.86 239.97 163.66 239.97 165.13"/>
              <polygon class="cls-34" points="246.51 168.9 249.81 170.81 249.82 169.34 246.51 167.43 246.51 168.9"/>
              <polygon class="cls-34" points="225.27 163.41 228.33 165.18 228.33 163.7 225.27 161.94 225.27 163.41"/>
              <g>
                <polygon class="cls-34" points="225.54 166.87 227.85 168.21 227.85 166.73 225.54 165.4 225.54 166.87"/>
                <polygon class="cls-34" points="221.18 164.36 224.24 166.12 224.24 164.65 221.18 162.88 221.18 164.36"/>
              </g>
              <polygon class="cls-34" points="233.31 161.29 235.39 162.49 235.39 161.02 233.31 159.81 233.31 161.29"/>
              <polygon class="cls-34" points="230.07 159.42 232.15 160.62 232.15 159.14 230.07 157.94 230.07 159.42"/>
            </g>
            <polygon class="cls-34" points="242.03 142.48 249.13 146.58 249.13 145.1 242.03 141.01 242.03 142.48"/>
            <polygon class="cls-34" points="234.09 137.9 240.73 141.73 240.74 140.26 234.09 136.42 234.09 137.9"/>
            <polygon class="cls-34" points="230.71 135.95 232.79 137.15 232.79 135.67 230.71 134.47 230.71 135.95"/>
            <polygon class="cls-34" points="227.47 134.07 229.55 135.27 229.55 133.8 227.47 132.6 227.47 134.07"/>
            <polygon class="cls-34" points="225.7 133.05 221.21 130.46 221.21 128.99 225.7 131.58 225.7 133.05"/>
          </g>
          <g>
            <polygon class="cls-24" points="277.81 78.86 209.52 39.43 277.81 0 346.11 39.43 277.81 78.86"/>
            <polygon class="cls-60" points="277.81 68.09 228.17 39.43 277.81 10.77 327.46 39.43 277.81 68.09"/>
            <polygon class="cls-23" points="277.81 12.71 325.78 40.4 327.46 39.43 277.81 10.77 228.17 39.43 229.85 40.4 277.81 12.71"/>
            <polygon class="cls-76" points="346.11 39.43 346.11 61.78 277.81 101.21 277.81 78.86 346.11 39.43"/>
            <polygon class="cls-37" points="209.52 39.43 209.52 61.78 277.81 101.21 277.81 78.86 209.52 39.43"/>
            <g class="cls-29">
              <polygon class="cls-60" points="214.14 49.47 214.14 56.51 273.19 90.6 273.19 83.56 214.14 49.47"/>
            </g>
            <polygon class="cls-23" points="277.81 77.58 210.63 38.79 209.52 39.43 277.81 78.86 346.11 39.43 345 38.79 277.81 77.58"/>
            <polygon class="cls-60" points="335.86 55.09 335.86 59.09 288.06 86.69 288.06 82.69 335.86 55.09"/>
            <polygon class="cls-30" points="209.52 39.43 209.52 61.78 277.81 101.21 277.81 78.86 209.52 39.43"/>
            <polygon class="cls-34" points="257.88 77.67 245.51 70.53 245.51 72.01 257.87 79.15 257.88 77.67"/>
            <polygon class="cls-34" points="243.73 69.52 240.38 67.58 240.37 69.06 243.72 70.99 243.73 69.52"/>
            <polygon class="cls-34" points="228.03 60.46 221.17 56.5 221.17 57.97 228.03 61.93 228.03 60.46"/>
            <polygon class="cls-34" points="234.28 64.07 229.33 61.21 229.33 62.68 234.28 65.54 234.28 64.07"/>
            <polygon class="cls-34" points="238.93 66.75 235.58 64.82 235.58 66.29 238.93 68.23 238.93 66.75"/>
            <g>
              <g>
                <polygon class="cls-34" points="277.88 20.61 275.71 19.36 277.88 18.1 280.05 19.36 277.88 20.61"/>
                <polygon class="cls-31" points="282.22 23.11 280.05 21.86 282.22 20.61 284.39 21.86 282.22 23.11"/>
                <polygon class="cls-32" points="286.56 25.62 284.39 24.36 286.56 23.11 288.73 24.36 286.56 25.62"/>
                <polygon class="cls-34" points="290.89 28.12 288.73 26.87 290.89 25.62 293.06 26.87 290.89 28.12"/>
                <polygon class="cls-32" points="295.23 30.63 293.06 29.37 295.23 28.12 297.4 29.37 295.23 30.63"/>
                <polygon class="cls-34" points="299.57 33.13 297.4 31.88 299.57 30.63 301.74 31.88 299.57 33.13"/>
                <polygon class="cls-34" points="303.91 35.63 301.74 34.38 303.91 33.13 306.08 34.38 303.91 35.63"/>
                <polygon class="cls-34" points="308.24 38.14 306.08 36.89 308.24 35.63 310.41 36.89 308.24 38.14"/>
                <polygon class="cls-31" points="312.58 40.64 310.41 39.39 312.58 38.14 314.75 39.39 312.58 40.64"/>
              </g>
              <g>
                <polygon class="cls-34" points="273.53 23.12 271.36 21.87 273.53 20.62 275.7 21.87 273.53 23.12"/>
                <polygon class="cls-34" points="277.87 25.63 275.7 24.37 277.86 23.12 280.03 24.37 277.87 25.63"/>
                <polygon class="cls-34" points="282.2 28.13 280.03 26.88 282.2 25.63 284.37 26.88 282.2 28.13"/>
                <polygon class="cls-34" points="286.54 30.64 284.37 29.38 286.54 28.13 288.71 29.38 286.54 30.64"/>
                <polygon class="cls-34" points="290.88 33.14 288.71 31.89 290.88 30.64 293.05 31.89 290.88 33.14"/>
                <polygon class="cls-34" points="295.21 35.64 293.05 34.39 295.21 33.14 297.38 34.39 295.21 35.64"/>
                <polygon class="cls-34" points="299.55 38.15 297.38 36.9 299.55 35.64 301.72 36.9 299.55 38.15"/>
                <polygon class="cls-34" points="303.89 40.65 301.72 39.4 303.89 38.15 306.06 39.4 303.89 40.65"/>
                <polygon class="cls-34" points="308.23 43.16 306.06 41.9 308.23 40.65 310.4 41.9 308.23 43.16"/>
              </g>
              <g>
                <polygon class="cls-34" points="269.17 25.64 267 24.39 269.17 23.13 271.34 24.39 269.17 25.64"/>
                <polygon class="cls-34" points="273.51 28.14 271.34 26.89 273.51 25.64 275.68 26.89 273.51 28.14"/>
                <polygon class="cls-34" points="277.85 30.65 275.68 29.39 277.85 28.14 280.02 29.39 277.85 30.65"/>
                <polygon class="cls-31" points="282.18 33.15 280.02 31.9 282.18 30.65 284.35 31.9 282.18 33.15"/>
                <polygon class="cls-32" points="286.52 35.65 284.35 34.4 286.52 33.15 288.69 34.4 286.52 35.65"/>
                <polygon class="cls-32" points="290.86 38.16 288.69 36.91 290.86 35.65 293.03 36.91 290.86 38.16"/>
                <polygon class="cls-34" points="295.2 40.66 293.03 39.41 295.2 38.16 297.37 39.41 295.2 40.66"/>
                <polygon class="cls-34" points="299.53 43.17 297.37 41.91 299.53 40.66 301.7 41.91 299.53 43.17"/>
                <polygon class="cls-34" points="303.87 45.67 301.7 44.42 303.87 43.17 306.04 44.42 303.87 45.67"/>
              </g>
              <g>
                <polygon class="cls-32" points="264.82 28.15 262.65 26.9 264.82 25.65 266.99 26.9 264.82 28.15"/>
                <polygon class="cls-32" points="269.16 30.66 266.99 29.4 269.16 28.15 271.32 29.4 269.16 30.66"/>
                <polygon class="cls-31" points="273.49 33.16 271.32 31.91 273.49 30.66 275.66 31.91 273.49 33.16"/>
                <polygon class="cls-34" points="277.83 35.66 275.66 34.41 277.83 33.16 280 34.41 277.83 35.66"/>
                <polygon class="cls-34" points="282.17 38.17 280 36.92 282.17 35.66 284.34 36.92 282.17 38.17"/>
                <polygon class="cls-34" points="286.5 40.67 284.34 39.42 286.5 38.17 288.67 39.42 286.5 40.67"/>
                <polygon class="cls-32" points="290.84 43.18 288.67 41.92 290.84 40.67 293.01 41.92 290.84 43.18"/>
                <polygon class="cls-34" points="295.18 45.68 293.01 44.43 295.18 43.18 297.35 44.43 295.18 45.68"/>
                <polygon class="cls-34" points="299.52 48.18 297.35 46.93 299.52 45.68 301.69 46.93 299.52 48.18"/>
              </g>
              <g>
                <polygon class="cls-34" points="260.46 30.67 258.29 29.41 260.46 28.16 262.63 29.41 260.46 30.67"/>
                <polygon class="cls-34" points="264.8 33.17 262.63 31.92 264.8 30.67 266.97 31.92 264.8 33.17"/>
                <polygon class="cls-34" points="269.14 35.67 266.97 34.42 269.14 33.17 271.31 34.42 269.14 35.67"/>
                <polygon class="cls-34" points="273.47 38.18 271.31 36.93 273.47 35.67 275.64 36.93 273.47 38.18"/>
                <polygon class="cls-34" points="277.81 40.68 275.64 39.43 277.81 38.18 279.98 39.43 277.81 40.68"/>
                <polygon class="cls-34" points="282.15 43.19 279.98 41.93 282.15 40.68 284.32 41.93 282.15 43.19"/>
                <polygon class="cls-34" points="286.49 45.69 284.32 44.44 286.49 43.19 288.66 44.44 286.49 45.69"/>
                <polygon class="cls-34" points="290.82 48.19 288.66 46.94 290.82 45.69 292.99 46.94 290.82 48.19"/>
                <polygon class="cls-34" points="295.16 50.7 292.99 49.45 295.16 48.19 297.33 49.45 295.16 50.7"/>
              </g>
              <g>
                <polygon class="cls-34" points="256.11 33.18 253.94 31.93 256.11 30.68 258.28 31.93 256.11 33.18"/>
                <polygon class="cls-34" points="260.45 35.68 258.28 34.43 260.45 33.18 262.61 34.43 260.45 35.68"/>
                <polygon class="cls-32" points="264.78 38.19 262.61 36.94 264.78 35.68 266.95 36.94 264.78 38.19"/>
                <polygon class="cls-34" points="269.12 40.69 266.95 39.44 269.12 38.19 271.29 39.44 269.12 40.69"/>
                <polygon class="cls-31" points="273.46 43.2 271.29 41.94 273.46 40.69 275.63 41.94 273.46 43.2"/>
                <polygon class="cls-34" points="277.79 45.7 275.63 44.45 277.79 43.2 279.96 44.45 277.79 45.7"/>
                <polygon class="cls-34" points="282.13 48.2 279.96 46.95 282.13 45.7 284.3 46.95 282.13 48.2"/>
                <polygon class="cls-34" points="286.47 50.71 284.3 49.46 286.47 48.21 288.64 49.46 286.47 50.71"/>
                <polygon class="cls-34" points="290.81 53.21 288.64 51.96 290.81 50.71 292.98 51.96 290.81 53.21"/>
              </g>
              <g>
                <polygon class="cls-34" points="251.75 35.69 249.58 34.44 251.75 33.19 253.92 34.44 251.75 35.69"/>
                <polygon class="cls-34" points="256.09 38.2 253.92 36.95 256.09 35.69 258.26 36.95 256.09 38.2"/>
                <polygon class="cls-32" points="260.43 40.7 258.26 39.45 260.43 38.2 262.6 39.45 260.43 40.7"/>
                <polygon class="cls-34" points="264.77 43.21 262.6 41.95 264.77 40.7 266.93 41.95 264.77 43.21"/>
                <polygon class="cls-34" points="269.1 45.71 266.93 44.46 269.1 43.21 271.27 44.46 269.1 45.71"/>
                <polygon class="cls-31" points="273.44 48.22 271.27 46.96 273.44 45.71 275.61 46.96 273.44 48.22"/>
                <polygon class="cls-32" points="277.78 50.72 275.61 49.47 277.78 48.22 279.95 49.47 277.78 50.72"/>
                <polygon class="cls-34" points="282.11 53.22 279.95 51.97 282.11 50.72 284.28 51.97 282.11 53.22"/>
                <polygon class="cls-31" points="286.45 55.73 284.28 54.48 286.45 53.22 288.62 54.48 286.45 55.73"/>
              </g>
              <g>
                <polygon class="cls-34" points="247.4 38.21 245.23 36.96 247.4 35.7 249.57 36.96 247.4 38.21"/>
                <polygon class="cls-32" points="251.74 40.71 249.57 39.46 251.74 38.21 253.9 39.46 251.74 40.71"/>
                <polygon class="cls-34" points="256.07 43.22 253.9 41.96 256.07 40.71 258.24 41.96 256.07 43.22"/>
                <polygon class="cls-34" points="260.41 45.72 258.24 44.47 260.41 43.22 262.58 44.47 260.41 45.72"/>
                <polygon class="cls-34" points="264.75 48.23 262.58 46.97 264.75 45.72 266.92 46.97 264.75 48.23"/>
                <polygon class="cls-34" points="269.08 50.73 266.92 49.48 269.08 48.23 271.25 49.48 269.08 50.73"/>
                <polygon class="cls-34" points="273.42 53.23 271.25 51.98 273.42 50.73 275.59 51.98 273.42 53.23"/>
                <polygon class="cls-32" points="277.76 55.74 275.59 54.49 277.76 53.23 279.93 54.49 277.76 55.74"/>
                <polygon class="cls-34" points="282.1 58.24 279.93 56.99 282.1 55.74 284.27 56.99 282.1 58.24"/>
              </g>
              <g>
                <polygon class="cls-34" points="243.04 40.72 240.87 39.47 243.04 38.22 245.21 39.47 243.04 40.72"/>
                <polygon class="cls-31" points="247.38 43.23 245.21 41.97 247.38 40.72 249.55 41.98 247.38 43.23"/>
                <polygon class="cls-34" points="251.72 45.73 249.55 44.48 251.72 43.23 253.89 44.48 251.72 45.73"/>
                <polygon class="cls-34" points="256.06 48.24 253.89 46.98 256.06 45.73 258.22 46.98 256.06 48.24"/>
                <polygon class="cls-34" points="260.39 50.74 258.22 49.49 260.39 48.24 262.56 49.49 260.39 50.74"/>
                <polygon class="cls-34" points="264.73 53.24 262.56 51.99 264.73 50.74 266.9 51.99 264.73 53.24"/>
                <polygon class="cls-32" points="269.07 55.75 266.9 54.5 269.07 53.24 271.24 54.5 269.07 55.75"/>
                <polygon class="cls-34" points="273.4 58.25 271.24 57 273.4 55.75 275.57 57 273.4 58.25"/>
                <polygon class="cls-34" points="277.74 60.76 275.57 59.5 277.74 58.25 279.91 59.5 277.74 60.76"/>
              </g>
            </g>
          </g>
        </g>
      </g>
      <g>
        <g>
          <path class="cls-55" d="M82.22,225.36c-1.05,0-2.07-.27-2.97-.79l-34.34-19.83c-.54-.31-.85-.86-.85-1.48s.32-1.17,.85-1.48l62.3-35.97,.45,.26,36.86,21.28c.53,.31,.85,.86,.85,1.48s-.32,1.17-.85,1.48l-59.32,34.25c-.9,.52-1.93,.79-2.97,.79Zm24.98-58.79l-61.97,35.78c-.33,.19-.53,.53-.53,.91s.2,.72,.53,.91l34.34,19.83c1.6,.92,3.69,.92,5.29,0l59.32-34.25c.33-.19,.53-.53,.53-.91s-.2-.72-.53-.91l-36.99-21.35Z"/>
          <g>
            <g>
              <path class="cls-70" d="M107.28,152.04l-8.26-49.03,.66-.28-1-.57h0c-.19-.12-.47-.12-.77,.06L31.87,140.35c-.54,.31-.95,1.12-.86,1.68l8.33,49.42c.04,.26,.17,.43,.35,.5h0s.98,.56,.98,.56l.17-.91-.06,.02,65.65-37.9c.54-.31,.95-1.12,.86-1.68Z"/>
              <path class="cls-68" d="M32.23,141.69l-1.09-.48c-.12,.28-.18,.57-.14,.82l8.33,49.42c.04,.26,.17,.43,.35,.5h0s.98,.56,.98,.56l.17-.91-.06,.02,3.32-1.92-11.86-48.01Z"/>
              <path class="cls-37" d="M107.46,154.32l-66.05,38.13c-.51,.29-.95,.12-1.04-.4l-8.33-49.42c-.1-.56,.32-1.36,.86-1.68l66.05-38.13c.51-.29,.95-.12,1.04,.4l8.33,49.42c.1,.56-.32,1.36-.86,1.68Z"/>
              <g class="cls-29">
                <polygon class="cls-60" points="98.09 105.97 34.42 142.73 42.32 189.27 105.94 152.54 98.09 105.97"/>
              </g>
            </g>
            <g>
              <path class="cls-83" d="M148.98,177.72l-3.6,1.88-36.14-20.87c-.6-.35-1.66-.31-2.36,.1l-62.34,35.99c-.6-.33-3.32-1.64-3.32-1.64l1.32,3.44h0c.05,.15,.17,.29,.37,.41l38.07,21.98c.6,.35,1.66,.31,2.36-.1l63.79-36.83c.29-.17,.46-.37,.54-.57h0s1.31-3.79,1.31-3.79Z"/>
              <path class="cls-65" d="M148.42,178.31l-65.38,37.75c-.72,.41-1.8,.46-2.42,.1l-39.01-22.52c-.62-.36-.54-.98,.17-1.4l65.38-37.75c.72-.41,1.8-.46,2.42-.1l39.01,22.52c.62,.36,.54,.98-.17,1.4Z"/>
              <path class="cls-23" d="M148.42,177.93l-65.38,37.75c-.72,.41-1.8,.46-2.42,.1l-39.01-22.52c-.2-.12-.32-.26-.38-.42-.1,.29,.02,.59,.38,.8l39.01,22.52c.62,.36,1.7,.31,2.42-.1l65.38-37.75c.48-.28,.67-.65,.55-.97-.07,.21-.25,.42-.55,.6Z"/>
              <path class="cls-26" d="M63.32,207.89v-.72c0-.07,.04-.1,.09-.07l2.53,1.46c.05,.03,.09,.11,.09,.18v.72c0,.07-.04,.1-.09,.07l-2.53-1.46c-.05-.03-.09-.11-.09-.18Z"/>
              <path class="cls-26" d="M67.11,210.07v-.72c0-.07,.04-.1,.09-.07l2.53,1.46c.05,.03,.09,.11,.09,.18v.72c0,.07-.04,.1-.09,.07l-2.53-1.46c-.05-.03-.09-.11-.09-.18Z"/>
              <path class="cls-77" d="M51.78,191.52l54.33-31.37c.36-.21,.81-.21,1.17,0l19.35,11.19c.28,.16,.28,.56,0,.72l-54.3,31.35c-.36,.21-.81,.21-1.17,0l-19.37-11.18c-.28-.16-.28-.56,0-.72Z"/>
              <path class="cls-84" d="M51.78,192.24l.19,.11,54.14-31.26c.36-.21,.81-.21,1.17,0l19.15,11.08,.19-.11c.28-.16,.28-.56,0-.72l-19.35-11.19c-.36-.21-.81-.21-1.17,0l-54.33,31.37c-.28,.16-.28,.56,0,.72Z"/>
              <g>
                <polygon class="cls-37" points="108.74 162.99 61.55 190.24 59.45 189.02 106.65 161.78 108.74 162.99"/>
                <polygon class="cls-37" points="113.89 165.96 69.62 191.51 67.53 190.3 111.79 164.75 113.89 165.96"/>
                <polygon class="cls-37" points="117.24 167.89 65.12 197.98 63.02 196.77 115.14 166.68 117.24 167.89"/>
                <polygon class="cls-37" points="120.59 169.83 68.47 199.92 66.37 198.71 118.49 168.62 120.59 169.83"/>
                <polygon class="cls-37" points="123.94 171.76 71.82 201.85 69.72 200.64 121.84 170.55 123.94 171.76"/>
                <polygon class="cls-37" points="58.7 191.88 56.6 193.09 54.5 191.88 56.6 190.67 58.7 191.88"/>
                <polygon class="cls-37" points="66.1 193.55 61.75 196.06 59.65 194.85 64 192.34 66.1 193.55"/>
              </g>
              <path class="cls-72" d="M108.21,199.11l14.65-8.46c.57-.33,.57-.87,0-1.2l-10.02-5.78c-.57-.33-1.5-.33-2.07,0l-14.65,8.46c-.57,.33-.57,.87,0,1.2l10.02,5.78c.57,.33,1.5,.33,2.07,0Z"/>
              <path class="cls-84" d="M96.12,192.62l14.65-8.46c.57-.33,1.5-.33,2.07,0l10.02,5.78c.18,.1,.29,.22,.36,.35,.15-.29,.04-.61-.36-.84l-10.02-5.78c-.57-.33-1.5-.33-2.07,0l-14.65,8.46c-.4,.23-.51,.55-.36,.84,.07-.13,.18-.25,.36-.35Z"/>
            </g>
          </g>
          <g class="cls-64">
            <g class="cls-71">
              <g>
                <path class="cls-78" d="M107.23,154.41l-65.38,37.75c-.72,.41-1.8,.46-2.42,.1L.42,169.73c-.62-.36-.54-.98,.17-1.4l65.38-37.75c.72-.41,1.8-.46,2.42-.1l39.01,22.52c.62,.36,.54,.98-.17,1.4Z"/>
                <path class="cls-27" d="M41.66,161.18l14.65-8.46c.57-.33,.57-.87,0-1.2l-10.02-5.78c-.57-.33-1.5-.33-2.07,0l-14.65,8.46c-.57,.33-.57,.87,0,1.2l10.02,5.78c.57,.33,1.5,.33,2.07,0Z"/>
                <path class="cls-84" d="M29.56,154.69l14.65-8.46c.57-.33,1.5-.33,2.07,0l10.02,5.78c.18,.1,.29,.22,.36,.35,.15-.29,.04-.61-.36-.84l-10.02-5.78c-.57-.33-1.5-.33-2.07,0l-14.65,8.46c-.4,.23-.51,.55-.36,.84,.07-.13,.18-.25,.36-.35Z"/>
                <g>
                  <path class="cls-77" d="M23.13,174.39l54.33-31.37c.36-.21,.81-.21,1.17,0l19.35,11.19c.28,.16,.28,.56,0,.72l-54.31,31.35c-.36,.21-.81,.21-1.17,0l-19.37-11.18c-.28-.16-.28-.56,0-.72Z"/>
                  <path class="cls-84" d="M23.13,175.12l.19,.11,54.14-31.26c.36-.21,.81-.21,1.17,0l19.15,11.08,.19-.11c.28-.16,.28-.56,0-.72l-19.35-11.19c-.36-.21-.81-.21-1.17,0l-54.33,31.37c-.28,.16-.28,.56,0,.72Z"/>
                  <g>
                    <polygon class="cls-37" points="92.91 153.46 45.58 180.78 47.45 181.87 94.78 154.54 92.91 153.46"/>
                    <polygon class="cls-37" points="87.92 150.58 42.94 176.55 44.81 177.63 89.8 151.66 87.92 150.58"/>
                    <polygon class="cls-37" points="39.58 178.49 35.37 180.92 37.25 182 41.45 179.57 39.58 178.49"/>
                    <polygon class="cls-37" points="43.29 182.11 40.36 183.8 42.24 184.88 45.16 183.19 43.29 182.11"/>
                    <polygon class="cls-37" points="84.8 148.77 32.25 179.11 34.12 180.2 86.67 149.86 84.8 148.77"/>
                    <polygon class="cls-37" points="81.67 146.97 29.12 177.31 31 178.39 83.55 148.05 81.67 146.97"/>
                    <polygon class="cls-37" points="78.55 145.17 26 175.5 27.87 176.59 80.42 146.25 78.55 145.17"/>
                  </g>
                </g>
              </g>
            </g>
          </g>
        </g>
        <g>
          <polygon class="cls-34" points="58.4 171.53 63.55 168.55 63.7 169.44 58.55 172.42 58.4 171.53"/>
          <polygon class="cls-34" points="64.37 168.07 67.18 166.45 67.33 167.35 64.53 168.97 64.37 168.07"/>
          <polygon class="cls-34" points="71.55 163.93 73.58 162.76 73.73 163.65 71.7 164.82 71.55 163.93"/>
          <polygon class="cls-34" points="70.07 164.79 70.76 164.39 70.91 165.28 70.22 165.68 70.07 164.79"/>
          <polygon class="cls-34" points="68.02 165.97 69.28 165.24 69.43 166.14 68.17 166.86 68.02 165.97"/>
          <polygon class="cls-34" points="62.47 164.68 64.5 163.51 64.65 164.4 62.62 165.58 62.47 164.68"/>
          <polygon class="cls-34" points="57.71 167.44 61.68 165.14 61.84 166.03 57.86 168.33 57.71 167.44"/>
          <g>
            <polygon class="cls-34" points="63.41 152.94 67.39 150.64 67.54 151.54 63.56 153.84 63.41 152.94"/>
            <polygon class="cls-34" points="61.36 154.13 62.62 153.4 62.77 154.29 61.51 155.02 61.36 154.13"/>
          </g>
          <polygon class="cls-34" points="64.07 157.03 68.05 154.73 68.2 155.63 64.22 157.93 64.07 157.03"/>
          <polygon class="cls-34" points="62.03 158.22 63.29 157.49 63.44 158.38 62.18 159.11 62.03 158.22"/>
          <polygon class="cls-34" points="60.47 135.28 52.98 139.62 52.83 138.72 60.32 134.39 60.47 135.28"/>
          <polygon class="cls-34" points="63.11 133.76 61.26 134.83 61.11 133.93 62.96 132.86 63.11 133.76"/>
          <polygon class="cls-34" points="76.29 132.89 68.79 137.22 68.64 136.32 76.13 131.99 76.29 132.89"/>
          <polygon class="cls-34" points="78.93 131.36 77.07 132.43 76.92 131.54 78.78 130.47 78.93 131.36"/>
          <polygon class="cls-34" points="55.35 140.48 53.32 141.66 53.17 140.76 55.2 139.59 55.35 140.48"/>
          <polygon class="cls-34" points="67.71 137.83 65.68 139.01 65.53 138.11 67.56 136.94 67.71 137.83"/>
          <polygon class="cls-34" points="60.12 137.73 56.14 140.03 55.99 139.14 59.97 136.84 60.12 137.73"/>
          <polygon class="cls-34" points="62.17 136.55 60.91 137.28 60.75 136.38 62.02 135.65 62.17 136.55"/>
          <polygon class="cls-34" points="66.97 133.78 62.99 136.08 62.84 135.18 66.82 132.88 66.97 133.78"/>
          <polygon class="cls-34" points="69.02 132.59 67.76 133.32 67.6 132.43 68.86 131.7 69.02 132.59"/>
          <polygon class="cls-34" points="67.36 135.79 65.33 136.96 65.18 136.07 67.21 134.9 67.36 135.79"/>
          <polygon class="cls-34" points="72.13 133.04 68.15 135.34 68 134.44 71.98 132.14 72.13 133.04"/>
          <polygon class="cls-34" points="74.18 131.85 72.92 132.58 72.76 131.69 74.02 130.96 74.18 131.85"/>
          <polygon class="cls-34" points="57.82 141.3 53.67 143.7 53.52 142.81 57.67 140.41 57.82 141.3"/>
          <polygon class="cls-34" points="61.61 139.11 58.61 140.85 58.46 139.95 61.46 138.21 61.61 139.11"/>
          <polygon class="cls-34" points="64.43 137.48 62.4 138.65 62.25 137.76 64.28 136.59 64.43 137.48"/>
          <polygon class="cls-34" points="84.13 128.36 79.97 130.77 79.82 129.87 83.98 127.47 84.13 128.36"/>
          <polygon class="cls-34" points="87.92 126.17 84.91 127.91 84.76 127.02 87.77 125.28 87.92 126.17"/>
          <polygon class="cls-34" points="90.74 124.54 88.71 125.72 88.55 124.82 90.58 123.65 90.74 124.54"/>
          <polygon class="cls-34" points="82.5 155.36 86.66 152.96 86.81 153.86 82.65 156.26 82.5 155.36"/>
          <polygon class="cls-34" points="78.71 157.55 81.72 155.82 81.87 156.71 78.86 158.45 78.71 157.55"/>
          <polygon class="cls-34" points="75.89 159.18 77.92 158.01 78.08 158.9 76.05 160.08 75.89 159.18"/>
          <polygon class="cls-34" points="81.12 158.41 85.28 156.01 85.43 156.9 81.28 159.3 81.12 158.41"/>
          <polygon class="cls-34" points="77.33 160.6 80.34 158.87 80.49 159.76 77.48 161.5 77.33 160.6"/>
          <polygon class="cls-34" points="74.52 162.23 76.55 161.06 76.7 161.95 74.67 163.12 74.52 162.23"/>
          <polygon class="cls-34" points="64.35 154.63 65.75 153.82 65.9 154.72 64.5 155.53 64.35 154.63"/>
          <polygon class="cls-34" points="61.71 156.16 63.56 155.09 63.71 155.98 61.86 157.05 61.71 156.16"/>
          <polygon class="cls-34" points="58.19 143.33 54.04 145.73 53.89 144.84 58.04 142.44 58.19 143.33"/>
          <polygon class="cls-34" points="61.99 141.14 58.98 142.88 58.83 141.98 61.84 140.25 61.99 141.14"/>
          <polygon class="cls-34" points="64.8 139.51 62.77 140.68 62.62 139.79 64.65 138.62 64.8 139.51"/>
          <polygon class="cls-34" points="55.79 146.96 54.38 147.78 54.23 146.88 55.64 146.07 55.79 146.96"/>
          <polygon class="cls-34" points="58.43 145.44 56.57 146.51 56.42 145.62 58.28 144.54 58.43 145.44"/>
          <polygon class="cls-34" points="62.2 143.26 59.22 144.98 59.07 144.09 62.05 142.36 62.2 143.26"/>
          <polygon class="cls-34" points="66.26 160.27 67.66 159.45 67.81 160.35 66.41 161.16 66.26 160.27"/>
          <polygon class="cls-34" points="63.62 161.79 65.47 160.72 65.62 161.62 63.77 162.69 63.62 161.79"/>
          <polygon class="cls-34" points="59.84 163.97 62.83 162.25 62.98 163.14 59.99 164.87 59.84 163.97"/>
          <polygon class="cls-34" points="68.39 156.95 71.38 155.22 71.53 156.12 68.55 157.84 68.39 156.95"/>
          <polygon class="cls-34" points="63.51 159.61 67.53 157.28 67.69 158.18 63.66 160.51 63.51 159.61"/>
          <polygon class="cls-34" points="61.46 160.8 62.72 160.07 62.87 160.96 61.61 161.69 61.46 160.8"/>
          <polygon class="cls-34" points="59.49 161.93 60.76 161.2 60.91 162.1 59.65 162.83 59.49 161.93"/>
          <g>
            <polygon class="cls-34" points="59.76 150.39 63.74 148.09 63.89 148.98 59.92 151.28 59.76 150.39"/>
            <polygon class="cls-34" points="57.72 151.57 58.98 150.84 59.13 151.74 57.87 152.46 57.72 151.57"/>
            <polygon class="cls-34" points="60.04 147.98 61.44 147.17 61.59 148.07 60.19 148.88 60.04 147.98"/>
            <polygon class="cls-34" points="64.99 149.62 66.4 148.81 66.55 149.7 65.14 150.52 64.99 149.62"/>
            <polygon class="cls-34" points="66.99 148.47 70.36 146.52 70.51 147.42 67.14 149.36 66.99 148.47"/>
            <polygon class="cls-34" points="70.96 146.18 72.96 145.02 73.11 145.91 71.11 147.07 70.96 146.18"/>
            <polygon class="cls-34" points="57.4 149.51 59.25 148.44 59.4 149.33 57.55 150.4 57.4 149.51"/>
            <g>
              <polygon class="cls-34" points="57.22 147.41 58.63 146.6 58.78 147.49 57.37 148.31 57.22 147.41"/>
              <polygon class="cls-34" points="54.58 148.94 56.44 147.87 56.59 148.76 54.73 149.83 54.58 148.94"/>
            </g>
            <polygon class="cls-34" points="62.96 150.8 64.22 150.07 64.37 150.96 63.11 151.69 62.96 150.8"/>
            <polygon class="cls-34" points="60.99 151.93 62.25 151.2 62.4 152.1 61.14 152.83 60.99 151.93"/>
          </g>
          <polygon class="cls-34" points="70.67 162.2 74.97 159.72 75.12 160.61 70.82 163.09 70.67 162.2"/>
          <polygon class="cls-34" points="65.86 164.98 69.89 162.65 70.04 163.55 66.01 165.88 65.86 164.98"/>
          <polygon class="cls-34" points="63.81 166.17 65.07 165.44 65.22 166.33 63.96 167.06 63.81 166.17"/>
          <polygon class="cls-34" points="61.85 167.3 63.11 166.57 63.26 167.47 62 168.2 61.85 167.3"/>
          <polygon class="cls-34" points="60.77 167.92 58.05 169.49 58.2 170.39 60.92 168.82 60.77 167.92"/>
        </g>
      </g>
      <g>
        <g>
          <path class="cls-55" d="M470.17,225.36c-1.04,0-2.07-.27-2.97-.79l-59.32-34.25c-.53-.31-.85-.86-.85-1.48s.32-1.17,.85-1.48l37.31-21.54,.16,.09,62.13,35.87c.54,.31,.85,.86,.85,1.48s-.32,1.17-.85,1.48l-34.34,19.83c-.9,.52-1.93,.79-2.97,.79Zm-2.65-1.36c1.6,.92,3.69,.92,5.29,0l34.34-19.83c.33-.19,.53-.53,.53-.91s-.2-.72-.53-.91l-61.97-35.78-.12,.07-36.86,21.28c-.33,.19-.53,.53-.53,.91s.2,.72,.53,.91l59.32,34.25Z"/>
          <g>
            <g>
              <path class="cls-62" d="M445.11,152.04l8.26-49.03-.66-.28,1-.57h0c.19-.12,.47-.12,.77,.06l66.05,38.13c.54,.31,.95,1.12,.86,1.68l-8.33,49.42c-.04,.26-.17,.43-.35,.5h0s-.98,.56-.98,.56l-.17-.91,.06,.02-65.65-37.9c-.54-.31-.95-1.12-.86-1.68Z"/>
              <path class="cls-66" d="M520.16,141.69l1.09-.48c.12,.28,.18,.57,.14,.82l-8.33,49.42c-.04,.26-.17,.43-.35,.5h0s-.98,.56-.98,.56l-.17-.91,.06,.02-3.32-1.92,11.86-48.01Z"/>
              <path class="cls-37" d="M444.93,154.32l66.05,38.13c.51,.29,.95,.12,1.04-.4l8.33-49.42c.1-.56-.32-1.36-.86-1.68l-66.05-38.13c-.51-.29-.95-.12-1.04,.4l-8.33,49.42c-.1,.56,.32,1.36,.86,1.68Z"/>
              <g class="cls-29">
                <polygon class="cls-60" points="454.31 105.97 517.97 142.73 510.08 189.27 446.45 152.54 454.31 105.97"/>
              </g>
            </g>
            <g>
              <path class="cls-67" d="M403.41,177.72l3.6,1.88,36.14-20.87c.6-.35,1.66-.31,2.36,.1l62.34,35.99c.6-.33,3.32-1.64,3.32-1.64l-1.32,3.44s0,0,0,0c-.05,.15-.17,.3-.37,.41l-38.07,21.98c-.6,.35-1.66,.31-2.36-.1l-63.79-36.83c-.29-.17-.46-.37-.54-.57h0s-1.31-3.79-1.31-3.79Z"/>
              <path class="cls-56" d="M403.97,178.31l65.38,37.75c.72,.41,1.8,.46,2.42,.1l39.01-22.52c.62-.36,.54-.98-.17-1.4l-65.38-37.75c-.72-.41-1.8-.46-2.42-.1l-39.01,22.52c-.62,.36-.54,.98,.17,1.4Z"/>
              <path class="cls-23" d="M403.97,177.93l65.38,37.75c.72,.41,1.8,.46,2.42,.1l39.01-22.52c.2-.12,.32-.26,.38-.42,.1,.29-.02,.59-.38,.8l-39.01,22.52c-.62,.36-1.7,.31-2.42-.1l-65.38-37.75c-.48-.28-.67-.65-.55-.97,.07,.21,.25,.42,.55,.6Z"/>
              <path class="cls-26" d="M489.07,207.89v-.72c0-.07-.04-.1-.09-.07l-2.53,1.46c-.05,.03-.09,.11-.09,.18v.72c0,.07,.04,.1,.09,.07l2.53-1.46c.05-.03,.09-.11,.09-.18Z"/>
              <path class="cls-26" d="M485.29,210.07v-.72c0-.07-.04-.1-.09-.07l-2.53,1.46c-.05,.03-.09,.11-.09,.18v.72c0,.07,.04,.1,.09,.07l2.53-1.46c.05-.03,.09-.11,.09-.18Z"/>
              <path class="cls-77" d="M500.61,191.52l-54.33-31.37c-.36-.21-.81-.21-1.17,0l-19.35,11.19c-.28,.16-.28,.56,0,.72l54.31,31.35c.36,.21,.81,.21,1.17,0l19.37-11.18c.28-.16,.28-.56,0-.72Z"/>
              <path class="cls-84" d="M500.61,192.24l-.19,.11-54.14-31.26c-.36-.21-.81-.21-1.17,0l-19.15,11.08-.19-.11c-.28-.16-.28-.56,0-.72l19.35-11.19c.36-.21,.81-.21,1.17,0l54.33,31.37c.28,.16,.28,.56,0,.72Z"/>
              <g>
                <polygon class="cls-37" points="443.65 162.99 490.84 190.24 492.94 189.02 445.75 161.78 443.65 162.99"/>
                <polygon class="cls-37" points="438.51 165.96 482.77 191.51 484.87 190.3 440.6 164.75 438.51 165.96"/>
                <polygon class="cls-37" points="435.16 167.89 487.27 197.98 489.37 196.77 437.25 166.68 435.16 167.89"/>
                <polygon class="cls-37" points="431.81 169.83 483.92 199.92 486.02 198.71 433.9 168.62 431.81 169.83"/>
                <polygon class="cls-37" points="428.45 171.76 480.57 201.85 482.67 200.64 430.55 170.55 428.45 171.76"/>
                <polygon class="cls-37" points="493.7 191.88 495.79 193.09 497.89 191.88 495.79 190.67 493.7 191.88"/>
                <polygon class="cls-37" points="486.29 193.55 490.65 196.06 492.75 194.85 488.39 192.34 486.29 193.55"/>
              </g>
              <path class="cls-39" d="M444.19,199.11l-14.65-8.46c-.57-.33-.57-.87,0-1.2l10.02-5.78c.57-.33,1.5-.33,2.07,0l14.65,8.46c.57,.33,.57,.87,0,1.2l-10.02,5.78c-.57,.33-1.5,.33-2.07,0Z"/>
              <path class="cls-84" d="M456.28,192.62l-14.65-8.46c-.57-.33-1.5-.33-2.07,0l-10.02,5.78c-.18,.1-.29,.22-.36,.35-.15-.29-.04-.61,.36-.84l10.02-5.78c.57-.33,1.5-.33,2.07,0l14.65,8.46c.4,.23,.51,.55,.36,.84-.07-.13-.18-.25-.36-.35Z"/>
            </g>
          </g>
          <g class="cls-64">
            <g class="cls-63">
              <g>
                <path class="cls-38" d="M445.17,154.41l65.38,37.75c.72,.41,1.8,.46,2.42,.1l39.01-22.52c.62-.36,.54-.98-.17-1.4l-65.38-37.75c-.72-.41-1.8-.46-2.42-.1l-39.01,22.52c-.62,.36-.54,.98,.17,1.4Z"/>
                <path class="cls-73" d="M510.74,161.18l-14.65-8.46c-.57-.33-.57-.87,0-1.2l10.02-5.78c.57-.33,1.5-.33,2.07,0l14.65,8.46c.57,.33,.57,.87,0,1.2l-10.02,5.78c-.57,.33-1.5,.33-2.07,0Z"/>
                <path class="cls-84" d="M522.83,154.69l-14.65-8.46c-.57-.33-1.5-.33-2.07,0l-10.02,5.78c-.18,.1-.29,.22-.36,.35-.15-.29-.04-.61,.36-.84l10.02-5.78c.57-.33,1.5-.33,2.07,0l14.65,8.46c.4,.23,.51,.55,.36,.84-.07-.13-.18-.25-.36-.35Z"/>
                <g>
                  <path class="cls-77" d="M529.27,174.39l-54.33-31.37c-.36-.21-.81-.21-1.17,0l-19.35,11.19c-.28,.16-.28,.56,0,.72l54.3,31.35c.36,.21,.81,.21,1.17,0l19.37-11.18c.28-.16,.28-.56,0-.72Z"/>
                  <path class="cls-84" d="M529.27,175.12l-.19,.11-54.14-31.26c-.36-.21-.81-.21-1.17,0l-19.15,11.08-.19-.11c-.28-.16-.28-.56,0-.72l19.35-11.19c.36-.21,.81-.21,1.17,0l54.33,31.37c.28,.16,.28,.56,0,.72Z"/>
                  <g>
                    <polygon class="cls-37" points="459.49 153.46 506.82 180.78 504.94 181.87 457.61 154.54 459.49 153.46"/>
                    <polygon class="cls-37" points="464.47 150.58 509.46 176.55 507.59 177.63 462.6 151.66 464.47 150.58"/>
                    <polygon class="cls-37" points="512.82 178.49 517.02 180.92 515.15 182 510.95 179.57 512.82 178.49"/>
                    <polygon class="cls-37" points="509.11 182.11 512.03 183.8 510.16 184.88 507.23 183.19 509.11 182.11"/>
                    <polygon class="cls-37" points="467.6 148.77 520.15 179.11 518.27 180.2 465.72 149.86 467.6 148.77"/>
                    <polygon class="cls-37" points="470.72 146.97 523.27 177.31 521.4 178.39 468.85 148.05 470.72 146.97"/>
                    <polygon class="cls-37" points="473.85 145.17 526.4 175.5 524.52 176.59 471.97 146.25 473.85 145.17"/>
                  </g>
                </g>
              </g>
            </g>
          </g>
        </g>
        <g>
          <polygon class="cls-34" points="468.32 123.45 473.47 126.43 473.63 125.53 468.47 122.56 468.32 123.45"/>
          <polygon class="cls-34" points="474.3 126.9 477.11 128.53 477.26 127.63 474.45 126.01 474.3 126.9"/>
          <polygon class="cls-34" points="481.48 131.05 483.51 132.22 483.66 131.33 481.63 130.15 481.48 131.05"/>
          <polygon class="cls-34" points="480 130.19 480.69 130.59 480.84 129.7 480.15 129.3 480 130.19"/>
          <polygon class="cls-34" points="477.95 129.01 479.21 129.74 479.36 128.84 478.1 128.11 477.95 129.01"/>
          <polygon class="cls-34" points="472.4 130.29 474.43 131.47 474.58 130.57 472.55 129.4 472.4 130.29"/>
          <polygon class="cls-34" points="467.63 127.54 471.61 129.84 471.76 128.94 467.78 126.64 467.63 127.54"/>
          <g>
            <polygon class="cls-34" points="473.34 142.03 477.32 144.33 477.47 143.44 473.49 141.14 473.34 142.03"/>
            <polygon class="cls-34" points="471.29 140.85 472.55 141.58 472.7 140.68 471.44 139.96 471.29 140.85"/>
          </g>
          <polygon class="cls-34" points="474 137.94 477.98 140.24 478.13 139.35 474.15 137.05 474 137.94"/>
          <polygon class="cls-34" points="471.95 136.76 473.21 137.49 473.37 136.59 472.11 135.86 471.95 136.76"/>
          <polygon class="cls-34" points="470.4 159.69 462.9 155.36 462.75 156.26 470.25 160.59 470.4 159.69"/>
          <polygon class="cls-34" points="473.04 161.22 471.19 160.15 471.04 161.04 472.89 162.11 473.04 161.22"/>
          <polygon class="cls-34" points="486.21 162.09 478.72 157.76 478.57 158.65 486.06 162.98 486.21 162.09"/>
          <polygon class="cls-34" points="488.85 163.62 487 162.54 486.85 163.44 488.7 164.51 488.85 163.62"/>
          <polygon class="cls-34" points="465.28 154.49 463.25 153.32 463.1 154.21 465.13 155.39 465.28 154.49"/>
          <polygon class="cls-34" points="477.64 157.14 475.61 155.97 475.45 156.86 477.48 158.04 477.64 157.14"/>
          <polygon class="cls-34" points="470.05 157.25 466.07 154.95 465.92 155.84 469.9 158.14 470.05 157.25"/>
          <polygon class="cls-34" points="472.09 158.43 470.83 157.7 470.68 158.6 471.94 159.32 472.09 158.43"/>
          <polygon class="cls-34" points="476.9 161.2 472.92 158.9 472.77 159.79 476.74 162.09 476.9 161.2"/>
          <polygon class="cls-34" points="478.94 162.38 477.68 161.65 477.53 162.55 478.79 163.28 478.94 162.38"/>
          <polygon class="cls-34" points="477.29 159.19 475.26 158.01 475.11 158.91 477.14 160.08 477.29 159.19"/>
          <polygon class="cls-34" points="482.06 161.94 478.08 159.64 477.93 160.54 481.91 162.83 482.06 161.94"/>
          <polygon class="cls-34" points="484.1 163.12 482.84 162.4 482.69 163.29 483.95 164.02 484.1 163.12"/>
          <polygon class="cls-34" points="467.75 153.68 463.59 151.27 463.44 152.17 467.6 154.57 467.75 153.68"/>
          <polygon class="cls-34" points="471.54 155.87 468.54 154.13 468.39 155.03 471.39 156.76 471.54 155.87"/>
          <polygon class="cls-34" points="474.36 157.5 472.33 156.32 472.18 157.22 474.21 158.39 474.36 157.5"/>
          <polygon class="cls-34" points="494.05 166.61 489.9 164.21 489.75 165.1 493.9 167.51 494.05 166.61"/>
          <polygon class="cls-34" points="497.85 168.8 494.84 167.07 494.69 167.96 497.69 169.7 497.85 168.8"/>
          <polygon class="cls-34" points="500.66 170.43 498.63 169.26 498.48 170.15 500.51 171.33 500.66 170.43"/>
          <polygon class="cls-34" points="492.43 139.61 496.59 142.02 496.74 141.12 492.58 138.72 492.43 139.61"/>
          <polygon class="cls-34" points="488.64 137.42 491.64 139.16 491.8 138.26 488.79 136.53 488.64 137.42"/>
          <polygon class="cls-34" points="485.82 135.79 487.85 136.97 488 136.07 485.97 134.9 485.82 135.79"/>
          <polygon class="cls-34" points="491.05 136.57 495.21 138.97 495.36 138.07 491.2 135.67 491.05 136.57"/>
          <polygon class="cls-34" points="487.26 134.37 490.27 136.11 490.42 135.22 487.41 133.48 487.26 134.37"/>
          <polygon class="cls-34" points="484.44 132.75 486.47 133.92 486.62 133.03 484.59 131.85 484.44 132.75"/>
          <polygon class="cls-34" points="474.28 140.34 475.68 141.16 475.83 140.26 474.43 139.45 474.28 140.34"/>
          <polygon class="cls-34" points="471.63 138.82 473.49 139.89 473.64 139 471.78 137.92 471.63 138.82"/>
          <polygon class="cls-34" points="468.12 151.65 463.97 149.24 463.82 150.14 467.97 152.54 468.12 151.65"/>
          <polygon class="cls-34" points="471.91 153.84 468.91 152.1 468.76 152.99 471.76 154.73 471.91 153.84"/>
          <polygon class="cls-34" points="474.73 155.47 472.7 154.29 472.55 155.19 474.58 156.36 474.73 155.47"/>
          <polygon class="cls-34" points="465.72 148.01 464.31 147.2 464.16 148.1 465.56 148.91 465.72 148.01"/>
          <polygon class="cls-34" points="468.36 149.54 466.5 148.47 466.35 149.36 468.21 150.43 468.36 149.54"/>
          <polygon class="cls-34" points="472.13 151.72 469.14 149.99 468.99 150.89 471.98 152.61 472.13 151.72"/>
          <polygon class="cls-34" points="476.18 134.71 477.59 135.52 477.74 134.63 476.34 133.82 476.18 134.71"/>
          <polygon class="cls-34" points="473.54 133.18 475.4 134.26 475.55 133.36 473.69 132.29 473.54 133.18"/>
          <polygon class="cls-34" points="469.77 131 472.76 132.73 472.91 131.83 469.92 130.11 469.77 131"/>
          <polygon class="cls-34" points="478.32 138.03 481.31 139.75 481.46 138.86 478.47 137.13 478.32 138.03"/>
          <polygon class="cls-34" points="473.43 135.36 477.46 137.69 477.61 136.8 473.59 134.47 473.43 135.36"/>
          <polygon class="cls-34" points="471.39 134.18 472.65 134.91 472.8 134.01 471.54 133.29 471.39 134.18"/>
          <polygon class="cls-34" points="469.42 133.04 470.68 133.77 470.83 132.88 469.57 132.15 469.42 133.04"/>
          <g>
            <polygon class="cls-34" points="469.69 144.59 473.67 146.89 473.82 146 469.84 143.7 469.69 144.59"/>
            <polygon class="cls-34" points="467.65 143.41 468.91 144.14 469.06 143.24 467.8 142.51 467.65 143.41"/>
            <polygon class="cls-34" points="469.97 146.99 471.37 147.8 471.52 146.91 470.12 146.1 469.97 146.99"/>
            <polygon class="cls-34" points="474.92 145.36 476.32 146.17 476.48 145.27 475.07 144.46 474.92 145.36"/>
            <polygon class="cls-34" points="476.92 146.51 480.29 148.46 480.44 147.56 477.07 145.62 476.92 146.51"/>
            <polygon class="cls-34" points="480.89 148.8 482.89 149.96 483.04 149.06 481.04 147.9 480.89 148.8"/>
            <polygon class="cls-34" points="467.32 145.47 469.18 146.54 469.33 145.64 467.48 144.57 467.32 145.47"/>
            <g>
              <polygon class="cls-34" points="467.15 147.57 468.55 148.38 468.7 147.48 467.3 146.67 467.15 147.57"/>
              <polygon class="cls-34" points="464.51 146.04 466.36 147.11 466.51 146.22 464.66 145.14 464.51 146.04"/>
            </g>
            <polygon class="cls-34" points="472.88 144.18 474.14 144.91 474.3 144.01 473.04 143.29 472.88 144.18"/>
            <polygon class="cls-34" points="470.92 143.04 472.18 143.77 472.33 142.88 471.07 142.15 470.92 143.04"/>
          </g>
          <polygon class="cls-34" points="480.6 132.78 484.9 135.26 485.05 134.37 480.75 131.88 480.6 132.78"/>
          <polygon class="cls-34" points="475.79 129.99 479.81 132.32 479.96 131.43 475.94 129.1 475.79 129.99"/>
          <polygon class="cls-34" points="473.74 128.81 475 129.54 475.15 128.64 473.89 127.92 473.74 128.81"/>
          <polygon class="cls-34" points="471.77 127.67 473.03 128.4 473.18 127.51 471.92 126.78 471.77 127.67"/>
          <polygon class="cls-34" points="470.7 127.05 467.98 125.48 468.13 124.59 470.85 126.16 470.7 127.05"/>
        </g>
      </g>
      <path class="cls-55" d="M192.56,268.89c-.86,0-1.72-.22-2.49-.67l-74.1-42.78c-.5-.29-.79-.8-.79-1.37s.3-1.09,.79-1.37l65.12-37.6,.33,.57-65.12,37.6c-.29,.17-.46,.47-.46,.8s.17,.63,.46,.8l74.1,42.78c1.34,.77,2.99,.77,4.33,0l38.4-22.17,.33,.57-38.4,22.17c-.77,.44-1.63,.67-2.49,.67Z"/>
      <g>
        <circle class="cls-14" cx="153.38" cy="246.56" r="9.38" transform="translate(-84.52 80.06) rotate(-23.13)"/>
        <path class="cls-28" d="M155.59,245.28c-.71-1.22-2.27-1.62-3.49-.91s-1.62,2.27-.91,3.49c.71,1.22,2.27,1.62,3.49,.91,1.22-.71,1.62-2.27,.91-3.49Z"/>
      </g>
      <g>
        <circle class="cls-20" cx="219.95" cy="253.06" r="9.38" transform="translate(-81.72 106.72) rotate(-23.13)"/>
        <path class="cls-69" d="M222.15,251.78c-.71-1.22-2.27-1.62-3.49-.91-1.22,.71-1.62,2.27-.91,3.49,.71,1.22,2.27,1.62,3.49,.91,1.22-.71,1.62-2.27,.91-3.49Z"/>
      </g>
      <g>
        <circle class="cls-2" cx="334.14" cy="252.31" r="9.38" transform="translate(-72.25 151.51) rotate(-23.13)"/>
        <path class="cls-58" d="M336.34,251.03c-.71-1.22-2.27-1.62-3.49-.91s-1.62,2.27-.91,3.49c.71,1.22,2.27,1.62,3.49,.91,1.22-.71,1.62-2.27,.91-3.49Z"/>
      </g>
      <g>
        <path class="cls-19" d="M354.5,254.77c-2.61-4.47-8.36-5.98-12.83-3.36-4.47,2.61-5.98,8.36-3.36,12.83,2.61,4.47,8.36,5.98,12.83,3.36,4.47-2.61,5.98-8.36,3.36-12.83Z"/>
        <circle class="cls-82" cx="346.41" cy="259.5" r="2.55"/>
      </g>
      <g>
        <circle class="cls-5" cx="413.32" cy="240.12" r="9.38" transform="translate(-63.46 205.93) rotate(-26.05)"/>
        <path class="cls-22" d="M415.52,238.84c-.71-1.22-2.27-1.62-3.49-.91-1.22,.71-1.62,2.27-.91,3.49,.71,1.22,2.27,1.62,3.49,.91,1.22-.71,1.62-2.27,.91-3.49Z"/>
      </g>
      <g>
        <path class="cls-7" d="M437.2,212.22c-2.61-4.47-8.36-5.98-12.83-3.36-4.47,2.61-5.98,8.36-3.36,12.83,2.61,4.47,8.36,5.98,12.83,3.36,4.47-2.61,5.98-8.36,3.36-12.83Z"/>
        <path class="cls-40" d="M431.31,215.67c-.71-1.22-2.27-1.62-3.49-.91s-1.62,2.27-.91,3.49c.71,1.22,2.27,1.62,3.49,.91,1.22-.71,1.62-2.27,.91-3.49Z"/>
      </g>
      <g>
        <path class="cls-16" d="M422.77,203.71c-2.61-4.47-8.36-5.98-12.83-3.36s-5.98,8.36-3.36,12.83c2.61,4.47,8.36,5.98,12.83,3.36,4.47-2.61,5.98-8.36,3.36-12.83Z"/>
        <path class="cls-79" d="M416.87,207.15c-.71-1.22-2.27-1.62-3.49-.91s-1.62,2.27-.91,3.49c.71,1.22,2.27,1.62,3.49,.91,1.22-.71,1.62-2.27,.91-3.49Z"/>
      </g>
      <g>
        <path class="cls-21" d="M408.33,195.78c-2.61-4.47-8.36-5.98-12.83-3.36-4.47,2.61-5.98,8.36-3.36,12.83,2.61,4.47,8.36,5.98,12.83,3.36,4.47-2.61,5.98-8.36,3.36-12.83Z"/>
        <path class="cls-61" d="M402.44,199.23c-.71-1.22-2.27-1.62-3.49-.91s-1.62,2.27-.91,3.49c.71,1.22,2.27,1.62,3.49,.91,1.22-.71,1.62-2.27,.91-3.49Z"/>
      </g>
      <g>
        <path class="cls-11" d="M149.81,235.04c-2.61-4.47-8.36-5.98-12.83-3.36-4.47,2.61-5.98,8.36-3.36,12.83,2.61,4.47,8.36,5.98,12.83,3.36,4.47-2.61,5.98-8.36,3.36-12.83Z"/>
        <circle class="cls-85" cx="141.72" cy="239.77" r="2.55"/>
      </g>
      <g>
        <circle class="cls-8" cx="130.05" cy="232.98" r="9.38" transform="translate(-128.3 299.7) rotate(-75.31)"/>
        <path class="cls-81" d="M132.26,231.7c-.71-1.22-2.27-1.62-3.49-.91-1.22,.71-1.62,2.27-.91,3.49,.71,1.22,2.27,1.62,3.49,.91,1.22-.71,1.62-2.27,.91-3.49Z"/>
      </g>
      <g>
        <path class="cls-10" d="M166.49,193.25c-2.61-4.47-8.36-5.98-12.83-3.36s-5.98,8.36-3.36,12.83c2.61,4.47,8.36,5.98,12.83,3.36,4.47-2.61,5.98-8.36,3.36-12.83Z"/>
        <path class="cls-74" d="M160.59,196.7c-.71-1.22-2.27-1.62-3.49-.91-1.22,.71-1.62,2.27-.91,3.49,.71,1.22,2.27,1.62,3.49,.91,1.22-.71,1.62-2.27,.91-3.49Z"/>
      </g>
      <g>
        <path class="cls-1" d="M178.95,186.7c-2.61-4.47-8.36-5.98-12.83-3.36-4.47,2.61-5.98,8.36-3.36,12.83,2.61,4.47,8.36,5.98,12.83,3.36,4.47-2.61,5.98-8.36,3.36-12.83Z"/>
        <path class="cls-41" d="M173.06,190.14c-.71-1.22-2.27-1.62-3.49-.91-1.22,.71-1.62,2.27-.91,3.49,.71,1.22,2.27,1.62,3.49,.91s1.62-2.27,.91-3.49Z"/>
      </g>
    </g>
  </g>
</svg>