<svg width="1440" height="1197" viewBox="0 0 1440 1197" fill="none" xmlns="http://www.w3.org/2000/svg">
<path opacity="0.7" d="M-221.306 967.758C64.9792 733.855 34.1719 808.599 254.648 784.815C475.125 761.032 337.491 658.177 597.118 599.533C856.746 540.889 761.072 327.677 981.125 328.868C1201.18 330.059 1246.13 373.076 1351.01 296.598C1434.91 235.416 1550.1 218.799 1597.22 218.139" stroke="#F0D283" stroke-opacity="0.33" stroke-width="3"/>
<path opacity="0.7" d="M-219.068 972.008C67.2175 738.105 36.4102 812.849 256.887 789.066C477.363 765.282 339.729 662.427 599.356 603.783C858.984 545.139 763.311 331.927 983.363 333.118C1203.42 334.309 1248.37 377.327 1353.25 300.849C1437.15 239.666 1552.34 223.05 1599.45 222.389" stroke="#DBCE8D" stroke-opacity="0.3" stroke-width="3"/>
<path opacity="0.7" d="M-216.83 976.258C69.4557 742.356 38.6485 817.099 259.125 793.316C479.602 769.533 341.967 666.678 601.595 608.034C861.222 549.389 765.549 336.177 985.601 337.368C1205.65 338.559 1250.61 381.577 1355.48 305.099C1439.39 243.917 1554.58 227.3 1601.69 226.64" stroke="#C5CA97" stroke-opacity="0.27" stroke-width="3"/>
<path opacity="0.7" d="M-214.593 980.509C71.6921 746.606 40.8848 821.349 261.361 797.566C481.838 773.783 344.203 670.928 603.831 612.284C863.458 553.64 767.785 340.428 987.838 341.619C1207.89 342.81 1252.85 385.827 1357.72 309.349C1441.62 248.167 1556.82 231.55 1603.93 230.89" stroke="#AFC6A1" stroke-opacity="0.24" stroke-width="3"/>
<path opacity="0.7" d="M-212.359 984.759C73.9264 750.856 43.1192 825.6 263.596 801.817C484.072 778.033 346.438 675.178 606.065 616.534C865.693 557.89 770.02 344.678 990.072 345.869C1210.12 347.06 1255.08 390.078 1359.96 313.6C1443.86 252.417 1559.05 235.801 1606.16 235.14" stroke="#9AC1AB" stroke-opacity="0.21" stroke-width="3"/>
<path opacity="0.7" d="M-210.117 989.009C76.1686 755.107 45.3614 829.85 265.838 806.067C486.315 782.283 348.68 679.428 608.308 620.784C867.935 562.14 772.262 348.928 992.314 350.119C1212.37 351.31 1257.32 394.328 1362.2 317.85C1446.1 256.667 1561.29 240.051 1608.4 239.39" stroke="#84BDB5" stroke-opacity="0.18" stroke-width="3"/>
<path opacity="0.7" d="M-207.88 993.26C78.405 759.357 47.5977 834.101 268.074 810.317C488.551 786.534 350.916 683.679 610.544 625.035C870.171 566.391 774.498 353.179 994.551 354.37C1214.6 355.561 1259.56 398.578 1364.43 322.1C1448.34 260.918 1563.53 244.301 1610.64 243.641" stroke="#6FB9BE" stroke-opacity="0.15" stroke-width="3"/>
<path opacity="0.7" d="M-205.646 997.51C80.6393 763.607 49.8321 838.35 270.309 814.567C490.785 790.784 353.151 687.929 612.778 629.285C872.406 570.64 776.732 357.428 996.785 358.619C1216.84 359.81 1261.79 402.828 1366.67 326.35C1450.57 265.168 1565.77 248.551 1612.88 247.891" stroke="#59B5C8" stroke-opacity="0.12" stroke-width="3"/>
<path opacity="0.7" d="M-203.408 1001.76C82.8776 767.858 52.0703 842.601 272.547 818.818C493.024 795.034 355.389 692.179 615.016 633.535C874.644 574.891 778.971 361.679 999.023 362.87C1219.08 364.061 1264.03 407.079 1368.91 330.601C1452.81 269.418 1568 252.802 1615.11 252.141" stroke="#44B1D2" stroke-opacity="0.09" stroke-width="3"/>
<path opacity="0.7" d="M-201.168 1006.01C85.1179 772.108 54.3106 846.851 274.787 823.068C495.264 799.285 357.629 696.43 617.257 637.786C876.884 579.141 781.211 365.929 1001.26 367.12C1221.32 368.311 1266.27 411.329 1371.15 334.851C1455.05 273.669 1570.24 257.052 1617.35 256.392" stroke="#2EADDC" stroke-opacity="0.06" stroke-width="3"/>
<path opacity="0.7" d="M-198.933 1010.26C87.3522 776.359 56.545 851.102 277.022 827.319C497.498 803.535 359.864 700.68 619.491 642.036C879.119 583.392 783.445 370.18 1003.5 371.371C1223.55 372.562 1268.51 415.58 1373.38 339.102C1457.28 277.919 1572.48 261.303 1619.59 260.642" stroke="#19A9E6" stroke-opacity="0.03" stroke-width="3"/>
<path d="M-276.683 932.468C9.60223 698.565 -21.205 773.309 199.272 749.526C419.748 725.742 282.114 622.887 541.741 564.243C801.369 505.599 705.695 292.387 925.748 293.578C1145.8 294.769 1190.76 337.787 1295.63 261.309C1379.53 200.126 1494.73 183.51 1541.84 182.849" stroke="#E1AA9A" stroke-opacity="0.6" stroke-width="3"/>
<path opacity="0.919091" d="M-274.445 936.718C11.8405 702.816 -18.9668 777.559 201.51 753.776C421.986 729.993 284.352 627.138 543.979 568.493C803.607 509.849 707.934 296.637 927.986 297.828C1148.04 299.019 1192.99 342.037 1297.87 265.559C1381.77 204.377 1496.97 187.76 1544.08 187.099" stroke="#D5A395" stroke-opacity="0.545455" stroke-width="3"/>
<path opacity="0.838182" d="M-272.207 940.969C14.0788 707.066 -16.7285 781.81 203.748 758.026C424.225 734.243 286.59 631.388 546.218 572.744C805.845 514.1 710.172 300.888 930.224 302.079C1150.28 303.27 1195.23 346.287 1300.11 269.809C1384.01 208.627 1499.2 192.01 1546.31 191.35" stroke="#CA9C8F" stroke-opacity="0.490909" stroke-width="3"/>
<path opacity="0.757273" d="M-269.97 945.219C16.3151 711.316 -14.4922 786.06 205.984 762.276C426.461 738.493 288.826 635.638 548.454 576.994C808.081 518.35 712.408 305.138 932.461 306.329C1152.51 307.52 1197.47 350.538 1302.34 274.06C1386.25 212.877 1501.44 196.261 1548.55 195.6" stroke="#BE958A" stroke-opacity="0.436364" stroke-width="3"/>
<path opacity="0.676364" d="M-267.736 949.469C18.5495 715.567 -12.2578 790.31 208.219 766.527C428.695 742.744 291.061 639.888 550.688 581.244C810.316 522.6 714.643 309.388 934.695 310.579C1154.75 311.77 1199.7 354.788 1304.58 278.31C1388.48 217.128 1503.68 200.511 1550.79 199.85" stroke="#B28F85" stroke-opacity="0.381818" stroke-width="3"/>
<path opacity="0.595455" d="M-265.494 953.72C20.7917 719.817 -10.0156 794.56 210.461 770.777C430.938 746.994 293.303 644.139 552.931 585.495C812.558 526.851 716.885 313.639 936.937 314.83C1156.99 316.021 1201.94 359.038 1306.82 282.56C1390.72 221.378 1505.92 204.761 1553.03 204.101" stroke="#A6887F" stroke-opacity="0.327273" stroke-width="3"/>
<path opacity="0.514545" d="M-263.257 957.97C23.028 724.068 -7.77926 798.811 212.697 775.028C433.174 751.245 295.539 648.389 555.167 589.745C814.794 531.101 719.121 317.889 939.174 319.08C1159.23 320.271 1204.18 363.289 1309.06 286.811C1392.96 225.629 1508.15 209.012 1555.26 208.351" stroke="#9B817A" stroke-opacity="0.272727" stroke-width="3"/>
<path opacity="0.433636" d="M-261.023 962.22C25.2624 728.317 -5.54489 803.061 214.932 779.277C435.408 755.494 297.774 652.639 557.401 593.995C817.029 535.351 721.356 322.139 941.408 323.33C1161.46 324.521 1206.42 367.538 1311.29 291.06C1395.19 229.878 1510.39 213.261 1557.5 212.601" stroke="#8F7A75" stroke-opacity="0.218182" stroke-width="3"/>
<path opacity="0.352727" d="M-258.785 966.471C27.5007 732.568 -3.30661 807.311 217.17 783.528C437.647 759.745 300.012 656.89 559.64 598.246C819.267 539.602 723.594 326.39 943.646 327.581C1163.7 328.772 1208.65 371.789 1313.53 295.311C1397.43 234.129 1512.63 217.512 1559.74 216.852" stroke="#837470" stroke-opacity="0.163636" stroke-width="3"/>
<path opacity="0.271818" d="M-256.544 970.721C29.7409 736.818 -1.06637 811.562 219.41 787.778C439.887 763.995 302.252 661.14 561.88 602.496C821.507 543.852 725.834 330.64 945.887 331.831C1165.94 333.022 1210.89 376.039 1315.77 299.561C1399.67 238.379 1514.87 221.762 1561.98 221.102" stroke="#776D6A" stroke-opacity="0.109091" stroke-width="3"/>
<path opacity="0.190909" d="M-254.31 974.971C31.9753 741.069 1.168 815.812 221.645 792.029C442.121 768.246 304.487 665.391 564.114 606.746C823.742 548.102 728.068 334.89 948.121 336.081C1168.17 337.272 1213.13 380.29 1318 303.812C1401.91 242.63 1517.1 226.013 1564.21 225.353" stroke="#6B6665" stroke-opacity="0.0545455" stroke-width="3"/>
<ellipse cx="1417.01" cy="543.718" rx="96.5899" ry="148.076" transform="rotate(24.327 1417.01 543.718)" fill="#7FBA03" fill-opacity="0.1"/>
</svg>
