<svg width="1440" height="1812" viewBox="0 0 1440 1812" fill="none" xmlns="http://www.w3.org/2000/svg">
<path opacity="0.7" d="M-270.936 854.079C88.1503 766.176 28.1716 820.381 237.417 893.812C446.662 967.242 366.7 815.161 626.289 873.977C885.878 932.793 891.291 699.162 1089.4 794.952C1287.52 890.743 1309.58 948.921 1437.16 925.031C1539.23 905.919 1650.36 940.503 1693.16 960.184" stroke="#F0D283" stroke-opacity="0.33" stroke-width="3"/>
<path opacity="0.7" d="M-270.744 858.88C88.3417 770.976 28.363 825.182 237.608 898.612C446.853 972.043 366.892 819.962 626.48 878.777C886.069 937.593 891.483 703.962 1089.6 799.752C1287.71 895.543 1309.77 953.721 1437.35 929.831C1539.42 910.719 1650.55 945.303 1693.36 964.984" stroke="#DBCE8D" stroke-opacity="0.3" stroke-width="3"/>
<path opacity="0.7" d="M-270.555 863.679C88.5312 775.775 28.5525 829.981 237.798 903.411C447.043 976.842 367.081 824.761 626.67 883.577C886.259 942.392 891.672 708.761 1089.79 804.552C1287.9 900.342 1309.96 958.521 1437.54 934.631C1539.61 915.518 1650.74 950.102 1693.55 969.784" stroke="#C5CA97" stroke-opacity="0.27" stroke-width="3"/>
<path opacity="0.7" d="M-270.365 868.478C88.7206 780.575 28.7419 834.78 237.987 908.21C447.232 981.641 367.271 829.56 626.859 888.376C886.448 947.191 891.862 713.56 1089.97 809.351C1288.09 905.141 1310.15 963.32 1437.73 939.43C1539.8 920.317 1650.93 954.902 1693.74 974.583" stroke="#AFC6A1" stroke-opacity="0.24" stroke-width="3"/>
<path opacity="0.7" d="M-270.176 873.277C88.9101 785.373 28.9314 839.578 238.177 913.009C447.422 986.44 367.46 834.359 627.049 893.174C886.637 951.99 892.051 718.359 1090.16 814.149C1288.28 909.94 1310.34 968.118 1437.92 944.228C1539.99 925.116 1651.12 959.7 1693.92 979.381" stroke="#9AC1AB" stroke-opacity="0.21" stroke-width="3"/>
<path opacity="0.7" d="M-269.983 878.077C89.1034 790.174 29.1247 844.379 238.37 917.81C447.615 991.24 367.653 839.159 627.242 897.975C886.831 956.791 892.245 723.16 1090.36 818.95C1288.47 914.741 1310.53 972.919 1438.11 949.029C1540.18 929.917 1651.31 964.501 1694.12 984.182" stroke="#84BDB5" stroke-opacity="0.18" stroke-width="3"/>
<path opacity="0.7" d="M-269.793 882.877C89.2929 794.973 29.3142 849.179 238.559 922.609C447.804 996.04 367.843 843.959 627.432 902.775C887.02 961.59 892.434 727.959 1090.55 823.75C1288.66 919.54 1310.72 977.719 1438.3 953.829C1540.37 934.716 1651.5 969.3 1694.31 988.982" stroke="#6FB9BE" stroke-opacity="0.15" stroke-width="3"/>
<path opacity="0.7" d="M-269.606 887.675C89.4804 799.772 29.5017 853.977 238.747 927.407C447.992 1000.84 368.03 848.757 627.619 907.573C887.208 966.388 892.622 732.757 1090.73 828.548C1288.85 924.338 1310.91 982.517 1438.49 958.627C1540.56 939.514 1651.69 974.099 1694.49 993.78" stroke="#59B5C8" stroke-opacity="0.12" stroke-width="3"/>
<path opacity="0.7" d="M-269.416 892.475C89.6699 804.571 29.6912 858.776 238.936 932.207C448.181 1005.64 368.22 853.557 627.808 912.372C887.397 971.188 892.811 737.557 1090.92 833.347C1289.04 929.138 1311.1 987.316 1438.68 963.426C1540.75 944.314 1651.88 978.898 1694.68 998.579" stroke="#44B1D2" stroke-opacity="0.09" stroke-width="3"/>
<path opacity="0.7" d="M-269.223 897.276C89.8632 809.372 29.8845 863.578 239.13 937.008C448.375 1010.44 368.413 858.358 628.002 917.173C887.591 975.989 893.004 742.358 1091.12 838.148C1289.23 933.939 1311.29 992.117 1438.87 968.227C1540.94 949.115 1652.07 983.699 1694.88 1003.38" stroke="#2EADDC" stroke-opacity="0.06" stroke-width="3"/>
<path opacity="0.7" d="M-269.035 902.074C90.0507 814.171 30.072 868.376 239.317 941.807C448.562 1015.24 368.601 863.157 628.189 921.972C887.778 980.788 893.192 747.157 1091.3 842.947C1289.42 938.738 1311.48 996.916 1439.06 973.026C1541.13 953.914 1652.26 988.498 1695.07 1008.18" stroke="#19A9E6" stroke-opacity="0.03" stroke-width="3"/>
<path d="M-305.731 798.39C53.3554 710.487 -6.6233 764.692 202.622 838.123C411.867 911.553 331.905 759.472 591.494 818.288C851.083 877.104 856.497 643.473 1054.61 739.263C1252.72 835.054 1274.78 893.232 1402.37 869.342C1504.43 850.23 1615.56 884.814 1658.37 904.495" stroke="#E1AA9A" stroke-opacity="0.6" stroke-width="3"/>
<path opacity="0.919091" d="M-305.539 803.191C53.5468 715.287 -6.43189 769.493 202.813 842.923C412.058 916.354 332.097 764.273 591.685 823.088C851.274 881.904 856.688 648.273 1054.8 744.063C1252.91 839.854 1274.98 898.033 1402.56 874.142C1504.62 855.03 1615.75 889.614 1658.56 909.295" stroke="#D5A395" stroke-opacity="0.545455" stroke-width="3"/>
<path opacity="0.838182" d="M-305.35 807.99C53.7363 720.087 -6.24244 774.292 203.003 847.722C412.248 921.153 332.286 769.072 591.875 827.888C851.464 886.703 856.877 653.072 1054.99 748.863C1253.1 844.653 1275.17 902.832 1402.75 878.942C1504.81 859.829 1615.94 894.414 1658.75 914.095" stroke="#CA9C8F" stroke-opacity="0.490909" stroke-width="3"/>
<path opacity="0.757273" d="M-305.16 812.789C53.9257 724.886 -6.05299 779.091 203.192 852.521C412.437 925.952 332.476 773.871 592.064 832.687C851.653 891.502 857.067 657.871 1055.18 753.662C1253.29 849.452 1275.35 907.631 1402.94 883.741C1505 864.628 1616.13 899.213 1658.94 918.894" stroke="#BE958A" stroke-opacity="0.436364" stroke-width="3"/>
<path opacity="0.676364" d="M-304.971 817.588C54.1152 729.684 -5.86353 783.89 203.382 857.32C412.627 930.751 332.665 778.67 592.254 837.485C851.843 896.301 857.256 662.67 1055.37 758.46C1253.48 854.251 1275.54 912.429 1403.13 888.539C1505.19 869.427 1616.32 904.011 1659.13 923.692" stroke="#B28F85" stroke-opacity="0.381818" stroke-width="3"/>
<path opacity="0.595455" d="M-304.777 822.389C54.3085 734.485 -5.67017 788.691 203.575 862.121C412.82 935.552 332.858 783.471 592.447 842.286C852.036 901.102 857.45 667.471 1055.56 763.261C1253.68 859.052 1275.74 917.231 1403.32 893.34C1505.38 874.228 1616.52 908.812 1659.32 928.493" stroke="#A6887F" stroke-opacity="0.327273" stroke-width="3"/>
<path opacity="0.514545" d="M-304.588 827.188C54.498 739.285 -5.48072 793.49 203.764 866.921C413.01 940.351 333.048 788.27 592.637 847.086C852.225 905.901 857.639 672.271 1055.75 768.061C1253.87 863.852 1275.93 922.03 1403.51 898.14C1505.57 879.028 1616.71 913.612 1659.51 933.293" stroke="#9B817A" stroke-opacity="0.272727" stroke-width="3"/>
<path opacity="0.433636" d="M-304.401 831.986C54.6855 744.083 -5.29322 798.288 203.952 871.718C413.197 945.149 333.235 793.068 592.824 851.884C852.413 910.699 857.827 677.068 1055.94 772.859C1254.05 868.649 1276.11 926.828 1403.7 902.938C1505.76 883.825 1616.89 918.41 1659.7 938.091" stroke="#8F7A75" stroke-opacity="0.218182" stroke-width="3"/>
<path opacity="0.352727" d="M-304.211 836.786C54.8749 748.882 -5.10377 803.088 204.141 876.518C413.387 949.949 333.425 797.868 593.014 856.684C852.602 915.499 858.016 681.868 1056.13 777.659C1254.24 873.449 1276.3 931.628 1403.89 907.737C1505.95 888.625 1617.08 923.209 1659.89 942.891" stroke="#837470" stroke-opacity="0.163636" stroke-width="3"/>
<path opacity="0.271818" d="M-304.018 841.587C55.0683 753.683 -4.91041 807.889 204.335 881.319C413.58 954.75 333.618 802.669 593.207 861.484C852.796 920.3 858.209 686.669 1056.32 782.459C1254.44 878.25 1276.5 936.429 1404.08 912.538C1506.14 893.426 1617.28 928.01 1660.08 947.691" stroke="#776D6A" stroke-opacity="0.109091" stroke-width="3"/>
<path opacity="0.190909" d="M-303.83 846.386C55.2558 758.482 -4.72291 812.687 204.522 886.118C413.767 959.548 333.806 807.468 593.394 866.283C852.983 925.099 858.397 691.468 1056.51 787.258C1254.62 883.049 1276.68 941.227 1404.27 917.337C1506.33 898.225 1617.46 932.809 1660.27 952.49" stroke="#6B6665" stroke-opacity="0.0545455" stroke-width="3"/>
</svg>
