<svg width="1440" height="2070" viewBox="0 0 1440 2070" fill="none" xmlns="http://www.w3.org/2000/svg">
<path opacity="0.7" d="M-190.437 598.274C173.623 662.537 96.8862 687.974 258.795 839.504C420.703 991.033 408.811 819.625 622.684 978.067C836.557 1136.51 935.665 924.872 1078.37 1092.38C1221.08 1259.89 1217.83 1322.02 1344.22 1351.57C1445.33 1375.21 1533.1 1451.65 1564.35 1486.92" stroke="#F0D283" stroke-opacity="0.33" stroke-width="3"/>
<path opacity="0.7" d="M-192.195 602.745C171.866 667.008 95.1284 692.445 257.037 843.974C418.945 995.504 407.053 824.095 620.926 982.537C834.799 1140.98 933.907 929.343 1076.62 1096.85C1219.33 1264.36 1216.07 1326.49 1342.46 1356.04C1443.57 1379.68 1531.34 1456.12 1562.59 1491.39" stroke="#DBCE8D" stroke-opacity="0.3" stroke-width="3"/>
<path opacity="0.7" d="M-193.957 607.214C170.104 671.476 93.3666 696.914 255.275 848.443C417.184 999.973 405.291 828.564 619.164 987.006C833.037 1145.45 932.145 933.811 1074.85 1101.32C1217.56 1268.83 1214.31 1330.96 1340.7 1360.51C1441.81 1384.15 1529.58 1460.59 1560.83 1495.85" stroke="#C5CA97" stroke-opacity="0.27" stroke-width="3"/>
<path opacity="0.7" d="M-195.718 611.682C168.342 675.945 91.6049 701.382 253.513 852.912C415.422 1004.44 403.53 833.032 617.403 991.475C831.275 1149.92 930.383 938.28 1073.09 1105.79C1215.8 1273.29 1212.55 1335.43 1338.94 1364.98C1440.05 1388.62 1527.82 1465.06 1559.07 1500.32" stroke="#AFC6A1" stroke-opacity="0.24" stroke-width="3"/>
<path opacity="0.7" d="M-197.48 616.15C166.58 680.412 89.8432 705.85 251.752 857.379C413.66 1008.91 401.768 837.5 615.641 995.942C829.514 1154.38 928.622 942.747 1071.33 1110.25C1214.04 1277.76 1210.79 1339.9 1337.18 1369.45C1438.29 1393.09 1526.06 1469.53 1557.3 1504.79" stroke="#9AC1AB" stroke-opacity="0.21" stroke-width="3"/>
<path opacity="0.7" d="M-199.238 620.621C164.823 684.884 88.0854 710.321 249.994 861.851C411.902 1013.38 400.01 841.971 613.883 1000.41C827.756 1158.86 926.864 947.219 1069.57 1114.73C1212.28 1282.23 1209.03 1344.37 1335.42 1373.92C1436.53 1397.56 1524.3 1474 1555.55 1509.26" stroke="#84BDB5" stroke-opacity="0.18" stroke-width="3"/>
<path opacity="0.7" d="M-200.996 625.09C163.065 689.353 86.3276 714.79 248.236 866.32C410.145 1017.85 398.252 846.44 612.125 1004.88C825.998 1163.33 925.106 951.688 1067.82 1119.2C1210.52 1286.7 1207.27 1348.84 1333.66 1378.39C1434.77 1402.03 1522.54 1478.47 1553.79 1513.73" stroke="#6FB9BE" stroke-opacity="0.15" stroke-width="3"/>
<path opacity="0.7" d="M-202.757 629.557C161.303 693.82 84.5659 719.257 246.474 870.787C408.383 1022.32 396.491 850.907 610.363 1009.35C824.236 1167.79 923.344 956.155 1066.05 1123.66C1208.76 1291.17 1205.51 1353.3 1331.9 1382.86C1433.01 1406.5 1520.78 1482.93 1552.03 1518.2" stroke="#59B5C8" stroke-opacity="0.12" stroke-width="3"/>
<path opacity="0.7" d="M-204.519 634.026C159.541 698.289 82.8041 723.726 244.713 875.256C406.621 1026.79 394.729 855.376 608.602 1013.82C822.475 1172.26 921.583 960.624 1064.29 1128.13C1207 1295.64 1203.75 1357.77 1330.14 1387.33C1431.25 1410.97 1519.02 1487.4 1550.26 1522.67" stroke="#44B1D2" stroke-opacity="0.09" stroke-width="3"/>
<path opacity="0.7" d="M-206.277 638.498C157.784 702.761 81.0463 728.198 242.955 879.728C404.863 1031.26 392.971 859.848 606.844 1018.29C820.717 1176.73 919.825 965.096 1062.53 1132.6C1205.24 1300.11 1201.99 1362.25 1328.38 1391.8C1429.49 1415.44 1517.26 1491.88 1548.51 1527.14" stroke="#2EADDC" stroke-opacity="0.06" stroke-width="3"/>
<path opacity="0.7" d="M-208.039 642.966C156.022 707.228 79.2846 732.666 241.193 884.195C403.102 1035.72 391.209 864.316 605.082 1022.76C818.955 1181.2 918.063 969.563 1060.77 1137.07C1203.48 1304.58 1200.23 1366.71 1326.62 1396.26C1427.73 1419.91 1515.5 1496.34 1546.74 1531.61" stroke="#19A9E6" stroke-opacity="0.03" stroke-width="3"/>
<path d="M-199.839 533.285C164.221 597.548 87.4838 622.985 249.392 774.515C411.301 926.044 399.409 754.636 613.281 913.078C827.154 1071.52 926.262 859.883 1068.97 1027.39C1211.68 1194.9 1208.43 1257.03 1334.82 1286.58C1435.93 1310.23 1523.7 1386.66 1554.94 1421.93" stroke="#E1AA9A" stroke-opacity="0.6" stroke-width="3"/>
<path opacity="0.919091" d="M-201.597 537.756C162.463 602.019 85.726 627.456 247.635 778.985C409.543 930.515 397.651 759.106 611.524 917.548C825.396 1075.99 924.505 864.354 1067.21 1031.86C1209.92 1199.37 1206.67 1261.5 1333.06 1291.05C1434.17 1314.7 1521.94 1391.13 1553.19 1426.4" stroke="#D5A395" stroke-opacity="0.545455" stroke-width="3"/>
<path opacity="0.838182" d="M-203.359 542.225C160.702 606.487 83.9643 631.925 245.873 783.454C407.781 934.984 395.889 763.575 609.762 922.017C823.635 1080.46 922.743 868.822 1065.45 1036.33C1208.16 1203.84 1204.91 1265.97 1331.3 1295.52C1432.41 1319.16 1520.18 1395.6 1551.42 1430.87" stroke="#CA9C8F" stroke-opacity="0.490909" stroke-width="3"/>
<path opacity="0.757273" d="M-205.121 546.693C158.94 610.956 82.2026 636.393 244.111 787.923C406.02 939.452 394.127 768.043 608 926.486C821.873 1084.93 920.981 873.291 1063.69 1040.8C1206.4 1208.31 1203.14 1270.44 1329.54 1299.99C1430.65 1323.63 1518.42 1400.07 1549.66 1435.33" stroke="#BE958A" stroke-opacity="0.436364" stroke-width="3"/>
<path opacity="0.676364" d="M-206.882 551.161C157.178 615.423 80.4409 640.861 242.349 792.39C404.258 943.92 392.366 772.511 606.238 930.953C820.111 1089.4 919.219 877.758 1061.93 1045.27C1204.64 1212.77 1201.38 1274.91 1327.77 1304.46C1428.89 1328.1 1516.66 1404.54 1547.9 1439.8" stroke="#B28F85" stroke-opacity="0.381818" stroke-width="3"/>
<path opacity="0.595455" d="M-208.64 555.633C155.42 619.895 78.6831 645.333 240.592 796.862C402.5 948.392 390.608 776.983 604.481 935.425C818.353 1093.87 917.462 882.23 1060.17 1049.74C1202.88 1217.24 1199.62 1279.38 1326.02 1308.93C1427.13 1332.57 1514.9 1409.01 1546.14 1444.27" stroke="#A6887F" stroke-opacity="0.327273" stroke-width="3"/>
<path opacity="0.514545" d="M-210.398 560.102C153.663 624.364 76.9252 649.802 238.834 801.331C400.742 952.861 388.85 781.452 602.723 939.894C816.596 1098.34 915.704 886.699 1058.41 1054.21C1201.12 1221.71 1197.87 1283.85 1324.26 1313.4C1425.37 1337.04 1513.14 1413.48 1544.39 1448.74" stroke="#9B817A" stroke-opacity="0.272727" stroke-width="3"/>
<path opacity="0.433636" d="M-212.16 564.568C151.901 628.831 75.1635 654.268 237.072 805.798C398.981 957.327 387.088 785.918 600.961 944.361C814.834 1102.8 913.942 891.166 1056.65 1058.67C1199.36 1226.18 1196.11 1288.32 1322.5 1317.87C1423.61 1341.51 1511.38 1417.95 1542.62 1453.21" stroke="#8F7A75" stroke-opacity="0.218182" stroke-width="3"/>
<path opacity="0.352727" d="M-213.921 569.037C150.139 633.3 73.4018 658.737 235.31 810.267C397.219 961.796 385.327 790.387 599.199 948.83C813.072 1107.27 912.18 895.635 1054.89 1063.14C1197.6 1230.65 1194.34 1292.79 1320.73 1322.34C1421.85 1345.98 1509.62 1422.41 1540.86 1457.68" stroke="#837470" stroke-opacity="0.163636" stroke-width="3"/>
<path opacity="0.271818" d="M-215.679 573.509C148.381 637.772 71.644 663.209 233.552 814.739C395.461 966.268 383.569 794.859 597.442 953.302C811.314 1111.74 910.423 900.107 1053.13 1067.61C1195.84 1235.12 1192.59 1297.26 1318.98 1326.81C1420.09 1350.45 1507.86 1426.89 1539.1 1462.15" stroke="#776D6A" stroke-opacity="0.109091" stroke-width="3"/>
<path opacity="0.190909" d="M-217.441 577.977C146.62 642.239 69.8823 667.677 231.791 819.206C393.699 970.736 381.807 799.327 595.68 957.769C809.553 1116.21 908.661 904.574 1051.37 1072.08C1194.08 1239.59 1190.82 1301.72 1317.21 1331.28C1418.33 1354.92 1506.1 1431.35 1537.34 1466.62" stroke="#6B6665" stroke-opacity="0.0545455" stroke-width="3"/>
</svg>
