<svg width="1393" height="466" viewBox="0 0 1393 466" fill="none" xmlns="http://www.w3.org/2000/svg">
<path opacity="0.1" d="M3.5 0C656 220.521 570 -42.4707 812.5 115.433C1055 273.337 1092 196.019 1182 271.704C1272 347.389 1399 269.526 1444.5 327.787" stroke="white"/>
<path opacity="0.1" d="M3 19.6018C655.5 240.123 569.5 -22.8689 812 135.035C1054.5 292.939 1091.5 215.621 1181.5 291.306C1271.5 366.991 1398.5 289.128 1444 347.389" stroke="white"/>
<path opacity="0.1" d="M2.5 39.2039C655 259.725 569 -3.26687 811.5 154.637C1054 312.541 1091 235.223 1181 310.908C1271 386.593 1398 308.73 1443.5 366.991" stroke="white"/>
<path opacity="0.1" d="M2 58.8057C654.5 279.327 568.5 16.3349 811 174.239C1053.5 332.143 1090.5 254.824 1180.5 330.509C1270.5 406.194 1397.5 328.331 1443 386.593" stroke="white"/>
<path opacity="0.1" d="M1.5 78.4075C654 298.929 568 35.9367 810.5 193.841C1053 351.745 1090 274.426 1180 350.111C1270 425.796 1397 347.933 1442.5 406.194" stroke="white"/>
<path opacity="0.1" d="M1 98.0093C653.5 318.53 567.5 55.5386 810 213.443C1052.5 371.347 1089.5 294.028 1179.5 369.713C1269.5 445.398 1396.5 367.535 1442 425.796" stroke="white"/>
<path opacity="0.1" d="M0.5 117.611C653 338.132 567 75.1406 809.5 233.045C1052 390.949 1089 313.63 1179 389.315C1269 465 1396 387.137 1441.5 445.398" stroke="white"/>
<path opacity="0.1" d="M0 137.213C652.5 357.734 566.5 94.7424 809 252.646C1051.5 410.55 1088.5 333.232 1178.5 408.917C1268.5 484.602 1395.5 406.739 1441 465" stroke="white"/>
</svg>
