<svg width="20" height="20" viewBox="0 0 20 20" fill="none" xmlns="http://www.w3.org/2000/svg">
<rect y="1" width="17.5" height="16.5278" rx="2.33333" fill="#97AAB6"/>
<path d="M12.2083 9.53704H14.0988V11.0494H10.3179V6.51235H15.6111C15.6111 5.68056 14.9306 5 14.0988 5H10.3179C9.48611 5 8.80556 5.68056 8.80556 6.51235V11.0494C8.80556 11.8812 9.48611 12.5617 10.3179 12.5617H14.0988C14.9306 12.5617 15.6111 11.8812 15.6111 11.0494V8.02469H12.2083V9.53704ZM2 9.53704H5.78086V11.0494H2V12.5617H5.78086C6.61265 12.5617 7.29321 11.8812 7.29321 11.0494V9.53704C7.29321 8.70525 6.61265 8.02469 5.78086 8.02469H3.51235V6.51235H7.29321V5H2V9.53704Z" fill="#E5E5E5"/>
</svg>
