<svg width="90" height="91" viewBox="0 0 90 91" fill="none" xmlns="http://www.w3.org/2000/svg">
<path d="M85.0429 44.7455H75H74.5V45.2455C74.5 61.5443 61.2989 74.7455 45 74.7455C39.4363 74.7455 34.2474 73.1789 29.8248 70.5028L34.5921 65.7355C37.7013 67.3522 41.263 68.2455 45 68.2455C57.6886 68.2455 68 57.9341 68 45.2455V44.7455H67.5H57.4571L71.25 30.9526L85.0429 44.7455ZM22 45.2455V45.7455H22.5H32.5429L18.75 59.5384L4.95711 45.7455H15H15.5V45.2455C15.5 28.9466 28.7011 15.7455 45 15.7455C50.5637 15.7455 55.7526 17.3121 60.1752 19.9881L55.4079 24.7555C52.2987 23.1387 48.737 22.2455 45 22.2455C32.3114 22.2455 22 32.5568 22 45.2455Z" fill="#ED7D31" stroke="white"/>
</svg>
