<svg width="90" height="90" viewBox="0 0 90 90" fill="none" xmlns="http://www.w3.org/2000/svg">
<path d="M85.0429 44.5H75H74.5V45C74.5 61.2989 61.2989 74.5 45 74.5C39.4363 74.5 34.2474 72.9334 29.8248 70.2573L34.5921 65.49C37.7013 67.1068 41.263 68 45 68C57.6886 68 68 57.6886 68 45V44.5H67.5H57.4571L71.25 30.7071L85.0429 44.5ZM22 45V45.5H22.5H32.5429L18.75 59.2929L4.95711 45.5H15H15.5V45C15.5 28.7011 28.7011 15.5 45 15.5C50.5637 15.5 55.7526 17.0666 60.1752 19.7427L55.4079 24.51C52.2987 22.8932 48.737 22 45 22C32.3114 22 22 32.3114 22 45Z" fill="#F64E1F" stroke="white"/>
</svg>
