<svg width="50" height="50" viewBox="0 0 50 50" fill="none" xmlns="http://www.w3.org/2000/svg">
<path d="M41.6875 32.0417C39.125 32.0417 36.6458 31.625 34.3333 30.875C33.9711 30.7522 33.5815 30.734 33.2093 30.8224C32.8372 30.9108 32.4975 31.1024 32.2292 31.375L28.9583 35.4792C23.0625 32.6667 17.5417 27.3542 14.6042 21.25L18.6667 17.7917C19.2292 17.2083 19.3958 16.3958 19.1667 15.6667C18.3958 13.3542 18 10.875 18 8.3125C18 7.1875 17.0625 6.25 15.9375 6.25H8.72917C7.60417 6.25 6.25 6.75 6.25 8.3125C6.25 27.6667 22.3542 43.75 41.6875 43.75C43.1667 43.75 43.75 42.4375 43.75 41.2917V34.1042C43.75 32.9792 42.8125 32.0417 41.6875 32.0417Z" fill="#EB4D23"/>
</svg>
