<svg width="91" height="91" viewBox="0 0 91 91" fill="none" xmlns="http://www.w3.org/2000/svg">
<path d="M62.4871 56.7781L62.4871 56.7782L62.4934 56.7802C66.7039 58.1458 71.2184 58.9046 75.8852 58.9046C77.634 58.9046 79.0977 60.3683 79.0977 62.1171V75.0546C79.0977 76.0118 78.8522 77.0098 78.3306 77.7534C77.8232 78.4765 77.0438 78.9796 75.8852 78.9796C41.3611 78.9796 12.5977 50.2533 12.5977 15.6921C12.5977 14.4573 13.1199 13.6832 13.8474 13.1969C14.6013 12.6929 15.6092 12.4796 16.5602 12.4796H29.5352C31.284 12.4796 32.7477 13.9433 32.7477 15.6921C32.7477 20.3546 33.4676 24.8691 34.8719 29.0835C35.2274 30.2193 34.971 31.479 34.1042 32.3904L26.811 38.5989L26.5174 38.8489L26.6846 39.1964C32.0236 50.2909 42.0464 59.9339 52.7574 65.0434L53.116 65.2145L53.3637 64.9037L59.2343 57.5374C59.6485 57.1232 60.1698 56.8319 60.7401 56.6964C61.3185 56.5589 61.924 56.5873 62.4871 56.7781Z" fill="#ED7D31" stroke="white"/>
</svg>
