<svg width="20" height="20" viewBox="0 0 20 20" fill="none" xmlns="http://www.w3.org/2000/svg">
<path d="M10 1.25C8.26942 1.25 6.57769 1.76318 5.13876 2.72464C3.69983 3.6861 2.57832 5.05267 1.91606 6.65152C1.25379 8.25037 1.08051 10.0097 1.41813 11.707C1.75575 13.4044 2.58911 14.9635 3.81282 16.1872C5.03653 17.4109 6.59563 18.2442 8.29296 18.5819C9.9903 18.9195 11.7496 18.7462 13.3485 18.0839C14.9473 17.4217 16.3139 16.3002 17.2754 14.8612C18.2368 13.4223 18.75 11.7306 18.75 10C18.7474 7.68017 17.8246 5.45611 16.1843 3.81574C14.5439 2.17537 12.3198 1.25265 10 1.25ZM2.5 10C2.501 8.81138 2.78494 7.64007 3.32834 6.58293C3.87175 5.52579 4.659 4.6132 5.625 3.92062V5.625C5.625 5.79076 5.69085 5.94973 5.80806 6.06694C5.92527 6.18415 6.08424 6.25 6.25 6.25H8.36375C8.47979 6.24994 8.59352 6.21757 8.69221 6.15653C8.79089 6.09549 8.87064 6.00818 8.9225 5.90437L9.375 5H11.875V8.75H8.2725C8.17555 8.74991 8.0799 8.77238 7.99313 8.81562L5.97063 9.8275C5.86683 9.87937 5.77952 9.95911 5.71847 10.0578C5.65743 10.1565 5.62507 10.2702 5.625 10.3862V12.7019C5.62496 12.8269 5.66239 12.949 5.73247 13.0525C5.80255 13.156 5.90205 13.2361 6.01813 13.2825L8.75 14.375L9.265 17.4625C7.41314 17.278 5.69574 16.4125 4.44581 15.0337C3.19587 13.6549 2.50246 11.861 2.5 10ZM13.75 16.485V14.375L14.8469 12.73C14.8951 12.6575 14.9277 12.5758 14.9426 12.49C14.9574 12.4043 14.9542 12.3163 14.9331 12.2319L14.375 10V8.125H17.2531C17.672 9.70974 17.5556 11.3885 16.9221 12.9003C16.2886 14.4121 15.1735 15.6722 13.75 16.485Z" fill="#97AAB6"/>
</svg>
