<svg width="17" height="16" viewBox="0 0 17 16" fill="none" xmlns="http://www.w3.org/2000/svg">
<path fill-rule="evenodd" clip-rule="evenodd" d="M7.5 0.5C6.83696 0.5 6.20107 0.763392 5.73223 1.23223C5.26339 1.70107 5 2.33696 5 3V3.83333H2.5C1.83696 3.83333 1.20107 4.09673 0.732233 4.56557C0.263392 5.03441 0 5.67029 0 6.33333V13C0 13.663 0.263392 14.2989 0.732233 14.7678C1.20107 15.2366 1.83696 15.5 2.5 15.5H14.1667C14.8297 15.5 15.4656 15.2366 15.9344 14.7678C16.4033 14.2989 16.6667 13.663 16.6667 13V6.33333C16.6667 5.67029 16.4033 5.03441 15.9344 4.56557C15.4656 4.09673 14.8297 3.83333 14.1667 3.83333H11.6667V3C11.6667 2.33696 11.4033 1.70107 10.9344 1.23223C10.4656 0.763392 9.82971 0.5 9.16667 0.5H7.5ZM10 3.83333H6.66667V3C6.66667 2.77899 6.75446 2.56702 6.91074 2.41074C7.06702 2.25446 7.27899 2.16667 7.5 2.16667H9.16667C9.38768 2.16667 9.59964 2.25446 9.75592 2.41074C9.9122 2.56702 10 2.77899 10 3V3.83333Z" fill="#97AAB6"/>
</svg>
