<svg width="50" height="50" viewBox="0 0 50 50" fill="none" xmlns="http://www.w3.org/2000/svg">
<path d="M4.16732 43.75C3.57704 43.75 3.0826 43.55 2.68398 43.15C2.28398 42.7514 2.08398 42.2569 2.08398 41.6667C2.08398 41.0764 2.28398 40.5819 2.68398 40.1833C3.0826 39.7833 3.57704 39.5833 4.16732 39.5833H45.834C46.4243 39.5833 46.9187 39.7833 47.3173 40.1833C47.7173 40.5819 47.9173 41.0764 47.9173 41.6667C47.9173 42.2569 47.7173 42.7514 47.3173 43.15C46.9187 43.55 46.4243 43.75 45.834 43.75H4.16732ZM8.33398 37.5C7.18815 37.5 6.2076 37.0924 5.39232 36.2771C4.57565 35.4604 4.16732 34.4792 4.16732 33.3333V10.4167C4.16732 9.27083 4.57565 8.28958 5.39232 7.47292C6.2076 6.65764 7.18815 6.25 8.33398 6.25H41.6673C42.8131 6.25 43.7944 6.65764 44.6111 7.47292C45.4263 8.28958 45.834 9.27083 45.834 10.4167V33.3333C45.834 34.4792 45.4263 35.4604 44.6111 36.2771C43.7944 37.0924 42.8131 37.5 41.6673 37.5H8.33398Z" fill="#EB4D23"/>
</svg>
