<svg width="50" height="50" viewBox="0 0 50 50" fill="none" xmlns="http://www.w3.org/2000/svg">
<path d="M9.61058 8.49028C10.2774 9.14306 10.2764 10.2004 9.60817 10.8519C5.78251 14.5819 3.4186 19.7344 3.4186 25.4296C3.4186 31.1912 5.83814 36.3978 9.7431 40.1376C10.4172 40.7833 10.428 41.8405 9.76712 42.4991C9.10627 43.1577 8.02405 43.1682 7.34993 42.5226C2.81612 38.1805 0 32.1248 0 25.4296C0 18.8119 2.75131 12.8188 7.19326 8.48792C7.86145 7.83644 8.94372 7.83749 9.61058 8.49028Z" fill="white"/>
<path d="M39.5792 8.65144C40.2534 8.00582 41.3356 8.01633 41.9964 8.67491C46.3269 12.9905 49 18.9067 49 25.4296C49 32.0299 46.263 38.009 41.8415 42.3372C41.1746 42.99 40.0923 42.9911 39.4242 42.3396C38.756 41.6881 38.7549 40.6308 39.4217 39.978C43.2298 36.2503 45.5814 31.1098 45.5814 25.4296C45.5814 19.8158 43.2846 14.7295 39.5552 11.0129C38.8944 10.3543 38.9051 9.29706 39.5792 8.65144Z" fill="white"/>
<path d="M16.0885 15.3825C16.7335 16.0559 16.6976 17.1127 16.0084 17.7428C13.8457 19.7199 12.5349 22.4243 12.5349 25.39C12.5349 28.3902 13.8766 31.1234 16.0847 33.1063C16.7797 33.7304 16.8252 34.7868 16.1863 35.4658C15.5475 36.1448 14.4662 36.1892 13.7711 35.5651C10.916 33.0011 9.11628 29.3981 9.11628 25.39C9.11628 21.4285 10.8745 17.8622 13.6725 15.3043C14.3618 14.6741 15.4435 14.7091 16.0885 15.3825Z" fill="white"/>
<path d="M33.0303 15.4672C33.6828 14.8007 34.7648 14.7772 35.447 15.4147C38.1755 17.9643 39.8837 21.4855 39.8837 25.39C39.8837 29.3411 38.1346 32.8991 35.3494 35.4557C34.6614 36.0872 33.5796 36.0542 32.9332 35.3821C32.2868 34.71 32.3206 33.6532 33.0085 33.0217C35.1611 31.0459 36.4651 28.348 36.4651 25.39C36.4651 22.4664 35.1914 19.7975 33.084 17.8282C32.4018 17.1907 32.3777 16.1337 33.0303 15.4672Z" fill="white"/>
<path d="M24.5 29.8827C27.0174 29.8827 29.0581 27.889 29.0581 25.4296C29.0581 22.9703 27.0174 20.9766 24.5 20.9766C21.9826 20.9766 19.9419 22.9703 19.9419 25.4296C19.9419 27.889 21.9826 29.8827 24.5 29.8827Z" fill="white"/>
</svg>
