<svg width="91" height="91" viewBox="0 0 91 91" fill="none" xmlns="http://www.w3.org/2000/svg">
<path d="M79.1582 42.1183H79.6582V41.6183V30.3683V29.8683H79.1582H11.6582H11.1582V30.3683V41.6183V42.1183H11.6582H79.1582ZM15.4082 15.8683H75.4082C77.2647 15.8683 79.0452 16.6058 80.3579 17.9185C81.6707 19.2313 82.4082 21.0118 82.4082 22.8683V67.8683C82.4082 69.7248 81.6707 71.5053 80.3579 72.818C79.0452 74.1308 77.2647 74.8683 75.4082 74.8683H15.4082C13.5517 74.8683 11.7712 74.1308 10.4585 72.818C9.1457 71.5053 8.4082 69.7248 8.4082 67.8683V22.8683C8.4082 21.0118 9.1457 19.2313 10.4585 17.9185C11.7712 16.6058 13.5517 15.8683 15.4082 15.8683Z" fill="#ED7D31" stroke="white"/>
</svg>
