<svg width="42" height="34" viewBox="0 0 42 34" fill="none" xmlns="http://www.w3.org/2000/svg">
<path d="M37.666 0.333374H4.33268C3.22761 0.333374 2.16781 0.772361 1.3864 1.55376C0.605002 2.33516 0.166016 3.39497 0.166016 4.50004V29.5C0.166016 30.6051 0.605002 31.6649 1.3864 32.4463C2.16781 33.2277 3.22761 33.6667 4.33268 33.6667H37.666C38.7711 33.6667 39.8309 33.2277 40.6123 32.4463C41.3937 31.6649 41.8327 30.6051 41.8327 29.5V4.50004C41.8327 3.39497 41.3937 2.33516 40.6123 1.55376C39.8309 0.772361 38.7711 0.333374 37.666 0.333374ZM39.7494 14.9167H2.24935V8.66671H39.7494V14.9167Z" fill="#ED7D31"/>
</svg>
