<svg width="20" height="20" viewBox="0 0 20 20" fill="none" xmlns="http://www.w3.org/2000/svg">
<path d="M5.41732 17.5C5.0701 17.5 4.7751 17.3783 4.53232 17.135C4.28898 16.8922 4.16732 16.5972 4.16732 16.25V14.9583C3.91732 14.6805 3.71593 14.3713 3.56315 14.0308C3.41037 13.6908 3.33398 13.3194 3.33398 12.9166V4.99996C3.33398 3.84718 3.86871 3.00329 4.93815 2.46829C6.0076 1.93385 7.6951 1.66663 10.0007 1.66663C12.3895 1.66663 14.0979 1.92357 15.1257 2.43746C16.1534 2.95135 16.6673 3.80551 16.6673 4.99996V12.9166C16.6673 13.3194 16.5909 13.6908 16.4382 14.0308C16.2854 14.3713 16.084 14.6805 15.834 14.9583V16.25C15.834 16.5972 15.7123 16.8922 15.469 17.135C15.2262 17.3783 14.9312 17.5 14.584 17.5C14.2368 17.5 13.9418 17.3783 13.699 17.135C13.4557 16.8922 13.334 16.5972 13.334 16.25V15.8333H6.66732V16.25C6.66732 16.5972 6.54565 16.8922 6.30232 17.135C6.05954 17.3783 5.76454 17.5 5.41732 17.5ZM5.00065 8.33329H15.0007V5.83329H5.00065V8.33329ZM7.08398 13.3333C7.43121 13.3333 7.72621 13.2116 7.96898 12.9683C8.21232 12.7255 8.33398 12.4305 8.33398 12.0833C8.33398 11.7361 8.21232 11.4411 7.96898 11.1983C7.72621 10.955 7.43121 10.8333 7.08398 10.8333C6.73676 10.8333 6.44176 10.955 6.19898 11.1983C5.95565 11.4411 5.83398 11.7361 5.83398 12.0833C5.83398 12.4305 5.95565 12.7255 6.19898 12.9683C6.44176 13.2116 6.73676 13.3333 7.08398 13.3333ZM12.9173 13.3333C13.2645 13.3333 13.5595 13.2116 13.8023 12.9683C14.0457 12.7255 14.1673 12.4305 14.1673 12.0833C14.1673 11.7361 14.0457 11.4411 13.8023 11.1983C13.5595 10.955 13.2645 10.8333 12.9173 10.8333C12.5701 10.8333 12.2751 10.955 12.0323 11.1983C11.789 11.4411 11.6673 11.7361 11.6673 12.0833C11.6673 12.4305 11.789 12.7255 12.0323 12.9683C12.2751 13.2116 12.5701 13.3333 12.9173 13.3333Z" fill="#97AAB6"/>
</svg>
