<svg width="20" height="20" viewBox="0 0 20 20" fill="none" xmlns="http://www.w3.org/2000/svg">
<g clip-path="url(#clip0_1213_1756)">
<mask id="path-1-inside-1_1213_1756" fill="white">
<path d="M5 8.33337V12.5H15V8.33337H5ZM10.8333 10.8334H5.83333V10H10.8333V10.8334ZM12.0833 10.8334C12.0009 10.8334 11.9204 10.8089 11.8518 10.7632C11.7833 10.7174 11.7299 10.6523 11.6984 10.5762C11.6668 10.5 11.6586 10.4162 11.6747 10.3354C11.6907 10.2546 11.7304 10.1804 11.7887 10.1221C11.847 10.0638 11.9212 10.0241 12.002 10.008C12.0829 9.99197 12.1666 10.0002 12.2428 10.0318C12.3189 10.0633 12.384 10.1167 12.4298 10.1852C12.4756 10.2537 12.5 10.3343 12.5 10.4167C12.5 10.5272 12.4561 10.6332 12.378 10.7113C12.2998 10.7895 12.1938 10.8334 12.0833 10.8334ZM13.75 10.8334C13.6676 10.8334 13.587 10.8089 13.5185 10.7632C13.45 10.7174 13.3966 10.6523 13.3651 10.5762C13.3335 10.5 13.3253 10.4162 13.3413 10.3354C13.3574 10.2546 13.3971 10.1804 13.4554 10.1221C13.5136 10.0638 13.5879 10.0241 13.6687 10.008C13.7495 9.99197 13.8333 10.0002 13.9095 10.0318C13.9856 10.0633 14.0507 10.1167 14.0964 10.1852C14.1422 10.2537 14.1667 10.3343 14.1667 10.4167C14.1667 10.5272 14.1228 10.6332 14.0446 10.7113C13.9665 10.7895 13.8605 10.8334 13.75 10.8334ZM5 14.1667V18.3334H15V14.1667H5ZM10.8333 16.6667H5.83333V15.8334H10.8333V16.6667ZM12.0833 16.6667C12.0009 16.6667 11.9204 16.6423 11.8518 16.5965C11.7833 16.5507 11.7299 16.4856 11.6984 16.4095C11.6668 16.3334 11.6586 16.2496 11.6747 16.1688C11.6907 16.0879 11.7304 16.0137 11.7887 15.9554C11.847 15.8971 11.9212 15.8575 12.002 15.8414C12.0829 15.8253 12.1666 15.8336 12.2428 15.8651C12.3189 15.8966 12.384 15.95 12.4298 16.0186C12.4756 16.0871 12.5 16.1676 12.5 16.25C12.5 16.3605 12.4561 16.4665 12.378 16.5447C12.2998 16.6228 12.1938 16.6667 12.0833 16.6667ZM13.75 16.6667C13.6676 16.6667 13.587 16.6423 13.5185 16.5965C13.45 16.5507 13.3966 16.4856 13.3651 16.4095C13.3335 16.3334 13.3253 16.2496 13.3413 16.1688C13.3574 16.0879 13.3971 16.0137 13.4554 15.9554C13.5136 15.8971 13.5879 15.8575 13.6687 15.8414C13.7495 15.8253 13.8333 15.8336 13.9095 15.8651C13.9856 15.8966 14.0507 15.95 14.0964 16.0186C14.1422 16.0871 14.1667 16.1676 14.1667 16.25C14.1667 16.3605 14.1228 16.4665 14.0446 16.5447C13.9665 16.6228 13.8605 16.6667 13.75 16.6667Z"/>
</mask>
<path d="M5 8.33337V12.5H15V8.33337H5ZM10.8333 10.8334H5.83333V10H10.8333V10.8334ZM12.0833 10.8334C12.0009 10.8334 11.9204 10.8089 11.8518 10.7632C11.7833 10.7174 11.7299 10.6523 11.6984 10.5762C11.6668 10.5 11.6586 10.4162 11.6747 10.3354C11.6907 10.2546 11.7304 10.1804 11.7887 10.1221C11.847 10.0638 11.9212 10.0241 12.002 10.008C12.0829 9.99197 12.1666 10.0002 12.2428 10.0318C12.3189 10.0633 12.384 10.1167 12.4298 10.1852C12.4756 10.2537 12.5 10.3343 12.5 10.4167C12.5 10.5272 12.4561 10.6332 12.378 10.7113C12.2998 10.7895 12.1938 10.8334 12.0833 10.8334ZM13.75 10.8334C13.6676 10.8334 13.587 10.8089 13.5185 10.7632C13.45 10.7174 13.3966 10.6523 13.3651 10.5762C13.3335 10.5 13.3253 10.4162 13.3413 10.3354C13.3574 10.2546 13.3971 10.1804 13.4554 10.1221C13.5136 10.0638 13.5879 10.0241 13.6687 10.008C13.7495 9.99197 13.8333 10.0002 13.9095 10.0318C13.9856 10.0633 14.0507 10.1167 14.0964 10.1852C14.1422 10.2537 14.1667 10.3343 14.1667 10.4167C14.1667 10.5272 14.1228 10.6332 14.0446 10.7113C13.9665 10.7895 13.8605 10.8334 13.75 10.8334ZM5 14.1667V18.3334H15V14.1667H5ZM10.8333 16.6667H5.83333V15.8334H10.8333V16.6667ZM12.0833 16.6667C12.0009 16.6667 11.9204 16.6423 11.8518 16.5965C11.7833 16.5507 11.7299 16.4856 11.6984 16.4095C11.6668 16.3334 11.6586 16.2496 11.6747 16.1688C11.6907 16.0879 11.7304 16.0137 11.7887 15.9554C11.847 15.8971 11.9212 15.8575 12.002 15.8414C12.0829 15.8253 12.1666 15.8336 12.2428 15.8651C12.3189 15.8966 12.384 15.95 12.4298 16.0186C12.4756 16.0871 12.5 16.1676 12.5 16.25C12.5 16.3605 12.4561 16.4665 12.378 16.5447C12.2998 16.6228 12.1938 16.6667 12.0833 16.6667ZM13.75 16.6667C13.6676 16.6667 13.587 16.6423 13.5185 16.5965C13.45 16.5507 13.3966 16.4856 13.3651 16.4095C13.3335 16.3334 13.3253 16.2496 13.3413 16.1688C13.3574 16.0879 13.3971 16.0137 13.4554 15.9554C13.5136 15.8971 13.5879 15.8575 13.6687 15.8414C13.7495 15.8253 13.8333 15.8336 13.9095 15.8651C13.9856 15.8966 14.0507 15.95 14.0964 16.0186C14.1422 16.0871 14.1667 16.1676 14.1667 16.25C14.1667 16.3605 14.1228 16.4665 14.0446 16.5447C13.9665 16.6228 13.8605 16.6667 13.75 16.6667Z" fill="#97AAB6"/>
<path d="M5 8.33337V7.33337H4V8.33337H5ZM5 12.5H4V13.5H5V12.5ZM15 12.5V13.5H16V12.5H15ZM15 8.33337H16V7.33337H15V8.33337ZM10.8333 10.8334V11.8334H11.8333V10.8334H10.8333ZM5.83333 10.8334H4.83333V11.8334H5.83333V10.8334ZM5.83333 10V9.00004H4.83333V10H5.83333ZM10.8333 10H11.8333V9.00004H10.8333V10ZM5 14.1667V13.1667H4V14.1667H5ZM5 18.3334H4V19.3334H5V18.3334ZM15 18.3334V19.3334H16V18.3334H15ZM15 14.1667H16V13.1667H15V14.1667ZM10.8333 16.6667V17.6667H11.8333V16.6667H10.8333ZM5.83333 16.6667H4.83333V17.6667H5.83333V16.6667ZM5.83333 15.8334V14.8334H4.83333V15.8334H5.83333ZM10.8333 15.8334H11.8333V14.8334H10.8333V15.8334ZM11.6984 16.4095L12.6223 16.0268L11.6984 16.4095ZM13.3651 16.4095L14.2889 16.0268L13.3651 16.4095ZM4 8.33337V12.5H6V8.33337H4ZM5 13.5H15V11.5H5V13.5ZM16 12.5V8.33337H14V12.5H16ZM15 7.33337H5V9.33337H15V7.33337ZM10.8333 9.83337H5.83333V11.8334H10.8333V9.83337ZM6.83333 10.8334V10H4.83333V10.8334H6.83333ZM5.83333 11H10.8333V9.00004H5.83333V11ZM9.83333 10V10.8334H11.8333V10H9.83333ZM12.0833 9.83337C12.1987 9.83337 12.3115 9.86758 12.4074 9.93168L11.2963 11.5946C11.5292 11.7503 11.8031 11.8334 12.0833 11.8334V9.83337ZM12.4074 9.93168C12.5033 9.99578 12.5781 10.0869 12.6223 10.1935L10.7745 10.9588C10.8817 11.2177 11.0633 11.439 11.2963 11.5946L12.4074 9.93168ZM12.6223 10.1935C12.6664 10.3001 12.678 10.4174 12.6555 10.5305L10.6939 10.1403C10.6392 10.4151 10.6673 10.7 10.7745 10.9588L12.6223 10.1935ZM12.6555 10.5305C12.6329 10.6437 12.5774 10.7476 12.4958 10.8292L11.0816 9.41497C10.8835 9.6131 10.7485 9.86552 10.6939 10.1403L12.6555 10.5305ZM12.4958 10.8292C12.4142 10.9108 12.3103 10.9663 12.1971 10.9888L11.807 9.02726C11.5322 9.08192 11.2797 9.21685 11.0816 9.41497L12.4958 10.8292ZM12.1971 10.9888C12.084 11.0113 11.9667 10.9998 11.8601 10.9556L12.6255 9.10788C12.3666 9.00065 12.0818 8.9726 11.807 9.02726L12.1971 10.9888ZM11.8601 10.9556C11.7535 10.9115 11.6624 10.8367 11.5983 10.7408L13.2612 9.62965C13.1056 9.39668 12.8843 9.2151 12.6255 9.10788L11.8601 10.9556ZM11.5983 10.7408C11.5342 10.6449 11.5 10.5321 11.5 10.4167H13.5C13.5 10.1365 13.4169 9.86262 13.2612 9.62965L11.5983 10.7408ZM11.5 10.4167C11.5 10.262 11.5615 10.1136 11.6709 10.0042L13.0851 11.4184C13.3507 11.1528 13.5 10.7924 13.5 10.4167H11.5ZM11.6709 10.0042C11.7803 9.89483 11.9286 9.83337 12.0833 9.83337V11.8334C12.4591 11.8334 12.8194 11.6841 13.0851 11.4184L11.6709 10.0042ZM13.75 9.83337C13.8654 9.83337 13.9782 9.86759 14.0741 9.93168L12.9629 11.5946C13.1959 11.7503 13.4698 11.8334 13.75 11.8334V9.83337ZM14.0741 9.93168C14.17 9.99579 14.2448 10.0869 14.2889 10.1935L12.4412 10.9588C12.5484 11.2177 12.73 11.439 12.9629 11.5946L14.0741 9.93168ZM14.2889 10.1935C14.3331 10.3001 14.3446 10.4173 14.3221 10.5305L12.3606 10.1403C12.3059 10.4151 12.334 10.7 12.4412 10.9588L14.2889 10.1935ZM14.3221 10.5305C14.2996 10.6437 14.2441 10.7476 14.1625 10.8292L12.7483 9.41497C12.5501 9.6131 12.4152 9.86552 12.3606 10.1403L14.3221 10.5305ZM14.1625 10.8292C14.0809 10.9108 13.977 10.9663 13.8638 10.9888L13.4736 9.02726C13.1988 9.08192 12.9464 9.21685 12.7483 9.41497L14.1625 10.8292ZM13.8638 10.9888C13.7506 11.0113 13.6334 10.9998 13.5268 10.9556L14.2921 9.10788C14.0333 9.00065 13.7484 8.9726 13.4736 9.02726L13.8638 10.9888ZM13.5268 10.9556C13.4202 10.9115 13.3291 10.8367 13.265 10.7408L14.9279 9.62965C14.7722 9.39668 14.551 9.2151 14.2921 9.10788L13.5268 10.9556ZM13.265 10.7408C13.2009 10.6449 13.1667 10.5321 13.1667 10.4167H15.1667C15.1667 10.1365 15.0836 9.86262 14.9279 9.62965L13.265 10.7408ZM13.1667 10.4167C13.1667 10.262 13.2281 10.1136 13.3375 10.0042L14.7517 11.4184C15.0174 11.1528 15.1667 10.7924 15.1667 10.4167H13.1667ZM13.3375 10.0042C13.4469 9.89483 13.5953 9.83337 13.75 9.83337V11.8334C14.1257 11.8334 14.4861 11.6841 14.7517 11.4184L13.3375 10.0042ZM4 14.1667V18.3334H6V14.1667H4ZM5 19.3334H15V17.3334H5V19.3334ZM16 18.3334V14.1667H14V18.3334H16ZM15 13.1667H5V15.1667H15V13.1667ZM10.8333 15.6667H5.83333V17.6667H10.8333V15.6667ZM6.83333 16.6667V15.8334H4.83333V16.6667H6.83333ZM5.83333 16.8334H10.8333V14.8334H5.83333V16.8334ZM9.83333 15.8334V16.6667H11.8333V15.8334H9.83333ZM12.0833 15.6667C12.1987 15.6667 12.3115 15.7009 12.4074 15.765L11.2963 17.428C11.5292 17.5836 11.8031 17.6667 12.0833 17.6667V15.6667ZM12.4074 15.765C12.5033 15.8291 12.5781 15.9202 12.6223 16.0268L10.7745 16.7922C10.8817 17.051 11.0633 17.2723 11.2963 17.428L12.4074 15.765ZM12.6223 16.0268C12.6664 16.1334 12.678 16.2507 12.6555 16.3638L10.6939 15.9737C10.6392 16.2485 10.6673 16.5333 10.7745 16.7922L12.6223 16.0268ZM12.6555 16.3638C12.6329 16.477 12.5774 16.5809 12.4958 16.6625L11.0816 15.2483C10.8835 15.4464 10.7485 15.6989 10.6939 15.9737L12.6555 16.3638ZM12.4958 16.6625C12.4142 16.7441 12.3103 16.7997 12.1971 16.8222L11.807 14.8606C11.5321 14.9153 11.2797 15.0502 11.0816 15.2483L12.4958 16.6625ZM12.1971 16.8222C12.084 16.8447 11.9667 16.8331 11.8601 16.789L12.6255 14.9412C12.3666 14.834 12.0818 14.8059 11.807 14.8606L12.1971 16.8222ZM11.8601 16.789C11.7535 16.7448 11.6624 16.6701 11.5983 16.5741L13.2612 15.463C13.1056 15.23 12.8843 15.0484 12.6255 14.9412L11.8601 16.789ZM11.5983 16.5741C11.5342 16.4782 11.5 16.3654 11.5 16.25H13.5C13.5 15.9699 13.4169 15.696 13.2612 15.463L11.5983 16.5741ZM11.5 16.25C11.5 16.0953 11.5615 15.947 11.6709 15.8376L13.0851 17.2518C13.3507 16.9861 13.5 16.6258 13.5 16.25H11.5ZM11.6709 15.8376C11.7803 15.7282 11.9286 15.6667 12.0833 15.6667V17.6667C12.4591 17.6667 12.8194 17.5175 13.0851 17.2518L11.6709 15.8376ZM13.75 15.6667C13.8654 15.6667 13.9782 15.7009 14.0741 15.765L12.9629 17.428C13.1959 17.5836 13.4698 17.6667 13.75 17.6667V15.6667ZM14.0741 15.765C14.17 15.8291 14.2448 15.9202 14.2889 16.0268L12.4412 16.7922C12.5484 17.051 12.73 17.2723 12.9629 17.428L14.0741 15.765ZM14.2889 16.0268C14.3331 16.1334 14.3446 16.2507 14.3221 16.3638L12.3606 15.9737C12.3059 16.2485 12.334 16.5333 12.4412 16.7922L14.2889 16.0268ZM14.3221 16.3638C14.2996 16.477 14.2441 16.5809 14.1625 16.6625L12.7483 15.2483C12.5501 15.4464 12.4152 15.6989 12.3606 15.9737L14.3221 16.3638ZM14.1625 16.6625C14.0809 16.7441 13.977 16.7997 13.8638 16.8222L13.4736 14.8606C13.1988 14.9153 12.9464 15.0502 12.7483 15.2483L14.1625 16.6625ZM13.8638 16.8222C13.7506 16.8447 13.6333 16.8331 13.5268 16.789L14.2921 14.9412C14.0333 14.834 13.7484 14.8059 13.4736 14.8606L13.8638 16.8222ZM13.5268 16.789C13.4202 16.7448 13.3291 16.6701 13.265 16.5741L14.9279 15.463C14.7722 15.23 14.551 15.0484 14.2921 14.9412L13.5268 16.789ZM13.265 16.5741C13.2009 16.4782 13.1667 16.3654 13.1667 16.25H15.1667C15.1667 15.9699 15.0836 15.696 14.9279 15.463L13.265 16.5741ZM13.1667 16.25C13.1667 16.0953 13.2281 15.947 13.3375 15.8376L14.7517 17.2518C15.0174 16.9861 15.1667 16.6258 15.1667 16.25H13.1667ZM13.3375 15.8376C13.4469 15.7282 13.5953 15.6667 13.75 15.6667V17.6667C14.1257 17.6667 14.4861 17.5175 14.7517 17.2518L13.3375 15.8376Z" fill="#97AAB6" mask="url(#path-1-inside-1_1213_1756)"/>
<path d="M15.634 5.13002L15.7056 5.49279L16.0734 5.53057C16.5929 5.58392 17.0966 5.73953 17.5557 5.98841C18.0134 6.23657 18.4176 6.57259 18.7453 6.9772C19.2317 7.60381 19.497 8.37393 19.4995 9.16728C19.4991 10.0122 19.2071 10.8311 18.6727 11.4856C18.2711 11.9776 17.7512 12.354 17.1662 12.5827V6.66652V6.16652H16.6662L3.33287 6.16652H2.83287L2.83287 6.66652V12.2734C2.23785 11.9481 1.72144 11.4904 1.32564 10.932L0.917721 11.2212L1.32564 10.932C0.788504 10.1742 0.5 9.2683 0.5 8.33944C0.5 7.41057 0.788504 6.50464 1.32564 5.74684C1.86278 4.98903 2.62203 4.41677 3.49847 4.10913L3.49849 4.1092L3.50625 4.10633C3.8324 3.98575 4.17163 3.90409 4.51692 3.86302L4.77975 3.83176L4.90167 3.59683C5.45012 2.54001 6.31347 1.67976 7.37226 1.13512C8.43106 0.590478 9.63295 0.388368 10.8116 0.556753C11.9903 0.725138 13.0876 1.25569 13.9515 2.07501C14.8155 2.89433 15.4034 3.9619 15.634 5.13002Z" fill="#97AAB6" stroke="#97AAB6"/>
</g>
<defs>
<clipPath id="clip0_1213_1756">
<rect width="20" height="20" fill="white"/>
</clipPath>
</defs>
</svg>
