<svg width="20" height="20" viewBox="0 0 20 20" fill="none" xmlns="http://www.w3.org/2000/svg">
<g clip-path="url(#clip0_1240_1950)">
<path d="M10.0001 17.5C15.5235 17.5 20.0001 13.8633 20.0001 9.375C20.0001 4.88672 15.5235 1.25 10.0001 1.25C4.47664 1.25 7.63191e-05 4.88672 7.63191e-05 9.375C7.63191e-05 11.1367 0.691483 12.7656 1.86336 14.0977C1.78914 15.0547 1.41805 15.9062 1.02742 16.5547C0.812576 16.9141 0.593826 17.2031 0.43367 17.3984C0.351639 17.4961 0.289139 17.5703 0.242264 17.6211C0.218826 17.6445 0.203201 17.6641 0.191483 17.6758L0.179764 17.6875C7.632e-05 17.8672 -0.0507049 18.1328 0.0469513 18.3672C0.144608 18.6016 0.37117 18.7539 0.625076 18.7539C1.74617 18.7539 2.87508 18.4062 3.81258 18C4.70711 17.6094 5.46883 17.1445 5.93367 16.8047C7.17586 17.2539 8.55086 17.5039 10.0001 17.5039V17.5ZM7.92586 6.90625C8.17976 6.82031 8.46101 6.91016 8.62508 7.125L10.0001 8.95703L11.3751 7.125C11.5352 6.91016 11.8165 6.82031 12.0743 6.90625C12.3321 6.99219 12.5001 7.23047 12.5001 7.5V11.25C12.5001 11.5938 12.2188 11.875 11.8751 11.875C11.5313 11.875 11.2501 11.5938 11.2501 11.25V9.375L10.5001 10.375C10.3829 10.5312 10.1954 10.625 10.0001 10.625C9.80476 10.625 9.61726 10.5312 9.50008 10.375L8.75008 9.375V11.25C8.75008 11.5938 8.46883 11.875 8.12508 11.875C7.78133 11.875 7.50008 11.5938 7.50008 11.25V7.5C7.50008 7.23047 7.67195 6.99219 7.92586 6.90625ZM14.6876 8.39062V8.40625C14.6915 8.41016 14.711 8.4375 14.7735 8.47266C14.9259 8.5625 15.1485 8.63281 15.4884 8.73828L15.5118 8.74609C15.8009 8.83203 16.1876 8.94922 16.4962 9.14453C16.8516 9.36719 17.1759 9.73828 17.1837 10.3125C17.1915 10.8984 16.8868 11.3281 16.4884 11.5742C16.1173 11.8047 15.672 11.8828 15.2891 11.8711C14.8126 11.8555 14.3634 11.6992 14.0157 11.582C13.961 11.5625 13.9102 11.5469 13.8595 11.5273C13.5313 11.418 13.3555 11.0625 13.4649 10.7383C13.5743 10.4141 13.9298 10.2344 14.254 10.3438C14.3204 10.3672 14.3829 10.3867 14.4454 10.4062C14.8009 10.5273 15.0548 10.6133 15.3282 10.6211C15.5352 10.6289 15.7188 10.582 15.8282 10.5117C15.8751 10.4805 15.8985 10.4531 15.9102 10.4336C15.918 10.418 15.9337 10.3867 15.9337 10.3281V10.3203C15.9337 10.293 15.9337 10.2656 15.8282 10.1992C15.6798 10.1055 15.4532 10.0312 15.1251 9.92969L15.0782 9.91406C14.797 9.82812 14.4259 9.71875 14.129 9.53906C13.7774 9.32812 13.4376 8.96484 13.4376 8.39062C13.4337 7.79688 13.7735 7.38672 14.1602 7.15625C14.5274 6.94141 14.961 6.86328 15.3204 6.86719C15.711 6.875 16.0899 6.95703 16.4102 7.03906C16.7423 7.12891 16.9415 7.46875 16.8516 7.80469C16.7618 8.14062 16.422 8.33594 16.086 8.24609C15.8009 8.17188 15.5352 8.11719 15.3009 8.11328C15.1095 8.10938 14.918 8.15625 14.797 8.22656C14.7423 8.25781 14.7149 8.28906 14.7032 8.30469C14.6954 8.31641 14.6876 8.33594 14.6876 8.37891V8.39062ZM4.06258 8.39062V8.40625C4.06648 8.41016 4.08601 8.4375 4.14851 8.47266C4.30086 8.5625 4.52351 8.63281 4.86336 8.73828L4.8868 8.74609C5.17586 8.83203 5.56258 8.94922 5.87117 9.14453C6.22664 9.36719 6.55086 9.73828 6.55867 10.3125C6.56648 10.8984 6.2618 11.3281 5.86336 11.5742C5.49226 11.8047 5.04695 11.8828 4.66414 11.8711C4.18367 11.8555 3.71883 11.6953 3.36726 11.5742C3.31648 11.5586 3.26961 11.543 3.22664 11.5273C2.89851 11.418 2.72273 11.0625 2.83211 10.7383C2.94148 10.4141 3.29695 10.2344 3.62117 10.3438C3.67586 10.3633 3.72664 10.3789 3.77742 10.3984C4.14851 10.5234 4.42195 10.6172 4.7032 10.625C4.91023 10.6328 5.09383 10.5859 5.2032 10.5156C5.25008 10.4844 5.27351 10.457 5.28523 10.4375C5.29305 10.4219 5.30867 10.3906 5.30867 10.332V10.3242C5.30867 10.2969 5.30867 10.2695 5.2032 10.2031C5.05476 10.1094 4.8282 10.0352 4.50008 9.93359L4.4532 9.91797C4.17195 9.83203 3.80086 9.72266 3.50398 9.54297C3.15633 9.33594 2.81648 8.97266 2.81258 8.39844C2.80867 7.80469 3.14851 7.39453 3.53523 7.16406C3.90242 6.94922 4.33601 6.87109 4.69539 6.875C5.06648 6.87891 5.56258 6.95703 5.91023 7.04688C6.24226 7.13672 6.44148 7.47656 6.35164 7.8125C6.2618 8.14844 5.92195 8.34375 5.58601 8.25391C5.3282 8.18359 4.92976 8.125 4.67586 8.12109C4.48445 8.11719 4.29305 8.16406 4.17195 8.23438C4.11726 8.26562 4.08992 8.29688 4.0782 8.3125C4.07039 8.32422 4.06258 8.34375 4.06258 8.38672V8.39062Z" fill="#97AAB6"/>
</g>
<defs>
<clipPath id="clip0_1240_1950">
<rect width="20" height="20" fill="white"/>
</clipPath>
</defs>
</svg>
