<svg width="18" height="12" viewBox="0 0 18 12" fill="none" xmlns="http://www.w3.org/2000/svg">
<path d="M14.9003 1.5C14.3003 0.5 13.2003 0 12.0003 0H6.00034C4.80034 0 3.70034 0.5 3.10034 1.5C0.800338 5 0.300338 10.3 1.90034 11.4C3.50034 12.5 7.10034 7.7 9.00034 7.7C10.9003 7.7 14.4003 12.5 16.1003 11.4C17.7003 10.3 17.2003 5 14.9003 1.5ZM7.00034 5H6.00034V6H5.00034V5H4.00034V4H5.00034V3H6.00034V4H7.00034V5ZM12.4003 5.5C12.4003 6 12.0003 6.4 11.5003 6.4C11.0003 6.4 10.6003 6 10.6003 5.5C10.6003 5 11.0003 4.6 11.5003 4.6C12.0003 4.6 12.4003 5 12.4003 5.5ZM14.3003 3.5C14.3003 4 13.9003 4.4 13.4003 4.4C12.9003 4.4 12.5003 4 12.5003 3.5C12.5003 3 12.9003 2.6 13.4003 2.6C13.9003 2.6 14.3003 3 14.3003 3.5Z" fill="#97AAB6"/>
</svg>
