<svg width="50" height="50" viewBox="0 0 50 50" fill="none" xmlns="http://www.w3.org/2000/svg">
<path d="M25 3.125C20.6735 3.125 16.4442 4.40795 12.8469 6.8116C9.24959 9.21526 6.44581 12.6317 4.79014 16.6288C3.13448 20.6259 2.70128 25.0243 3.54533 29.2676C4.38938 33.5109 6.47277 37.4087 9.53205 40.468C12.5913 43.5272 16.4891 45.6106 20.7324 46.4547C24.9757 47.2987 29.3741 46.8655 33.3712 45.2099C37.3683 43.5542 40.7848 40.7504 43.1884 37.1531C45.5921 33.5558 46.875 29.3265 46.875 25C46.8684 19.2004 44.5616 13.6403 40.4607 9.53935C36.3597 5.43842 30.7996 3.13162 25 3.125V3.125ZM6.25001 25C6.2525 22.0284 6.96235 19.1002 8.32086 16.4573C9.67937 13.8145 11.6475 11.533 14.0625 9.80156V14.0625C14.0625 14.4769 14.2271 14.8743 14.5202 15.1674C14.8132 15.4604 15.2106 15.625 15.625 15.625H20.9094C21.1995 15.6248 21.4838 15.5439 21.7305 15.3913C21.9772 15.2387 22.1766 15.0204 22.3063 14.7609L23.4375 12.5H29.6875V21.875H20.6813C20.4389 21.8748 20.1998 21.9309 19.9828 22.0391L14.9266 24.5687C14.6671 24.6984 14.4488 24.8978 14.2962 25.1445C14.1436 25.3912 14.0627 25.6755 14.0625 25.9656V31.7547C14.0624 32.0672 14.156 32.3725 14.3312 32.6313C14.5064 32.89 14.7551 33.0903 15.0453 33.2063L21.875 35.9375L23.1625 43.6563C18.5328 43.1951 14.2394 41.0312 11.1145 37.5842C7.98968 34.1371 6.25614 29.6526 6.25001 25V25ZM34.375 41.2125V35.9375L37.1172 31.825C37.2378 31.6438 37.3193 31.4395 37.3564 31.2251C37.3935 31.0107 37.3855 30.7908 37.3328 30.5797L35.9375 25V20.3125H43.1328C44.1799 24.2744 43.889 28.4711 42.3053 32.2506C40.7215 36.0301 37.9337 39.1806 34.375 41.2125V41.2125Z" fill="#ED7D31"/>
</svg>
