<svg width="50" height="50" viewBox="0 0 50 50" fill="none" xmlns="http://www.w3.org/2000/svg">
<path d="M18.7494 17.1875C18.7494 18.4307 18.2555 19.623 17.3764 20.5021C16.4973 21.3811 15.3051 21.875 14.0618 21.875C13.4462 21.8751 12.8366 21.754 12.2679 21.5185C11.6991 21.2829 11.1823 20.9377 10.747 20.5024C10.3117 20.0671 9.96641 19.5503 9.73089 18.9815C9.49537 18.4127 9.37421 17.8031 9.37435 17.1875C9.37435 14.5979 11.4723 12.5 14.0618 12.5C16.6514 12.5 18.7494 14.5979 18.7494 17.1875ZM4.16602 29.5135C4.16602 25.8198 10.7598 23.9583 14.0618 23.9583C17.3639 23.9583 23.9577 25.8198 23.9577 29.5135V37.5H4.16602V29.5135ZM40.6244 17.1875C40.6244 18.4307 40.1305 19.623 39.2514 20.5021C38.3723 21.3811 37.1801 21.875 35.9369 21.875C35.3212 21.8751 34.7116 21.754 34.1429 21.5185C33.5741 21.2829 33.0573 20.9377 32.622 20.5024C32.1867 20.0671 31.8414 19.5503 31.6059 18.9815C31.3704 18.4127 31.2492 17.8031 31.2494 17.1875C31.2494 14.5979 33.3473 12.5 35.9369 12.5C38.5264 12.5 40.6244 14.5979 40.6244 17.1875ZM28.1244 15.625C28.1244 16.4538 27.7951 17.2487 27.2091 17.8347C26.623 18.4208 25.8282 18.75 24.9994 18.75C24.1705 18.75 23.3757 18.4208 22.7896 17.8347C22.2036 17.2487 21.8744 16.4538 21.8744 15.625C21.8744 14.7962 22.2036 14.0013 22.7896 13.4153C23.3757 12.8292 24.1705 12.5 24.9994 12.5C25.8282 12.5 26.623 12.8292 27.2091 13.4153C27.7951 14.0013 28.1244 14.7962 28.1244 15.625V15.625ZM26.041 29.5135C26.041 25.8198 32.6348 23.9583 35.9369 23.9583C39.2389 23.9583 45.8327 25.8198 45.8327 29.5135V37.5H26.041V29.5135Z" fill="#ED7D31"/>
<path fill-rule="evenodd" clip-rule="evenodd" d="M29.9477 23.1094C29.6706 23.2115 29.3956 23.3198 29.1268 23.4354C27.9081 23.9562 26.6758 24.6604 25.7185 25.6021C25.4622 25.8552 25.2185 26.1312 24.9997 26.4323C24.7831 26.1365 24.5427 25.8588 24.281 25.6021C23.3237 24.6604 22.0924 23.9562 20.8716 23.4354C20.6008 23.3197 20.3271 23.211 20.0508 23.1094C21.6372 22.2875 23.6768 21.875 24.9997 21.875C26.3227 21.875 28.3622 22.2875 29.9477 23.1094Z" fill="#ED7D31"/>
</svg>
