<svg width="76" height="46" viewBox="0 0 76 46" fill="none" xmlns="http://www.w3.org/2000/svg">
<path d="M18.3125 16.9784H18.3124C17.27 16.9786 16.2377 16.7735 15.2746 16.3747C14.3115 15.9759 13.4364 15.3912 12.6993 14.6541C11.9622 13.917 11.3775 13.0419 10.9787 12.0788C10.5799 11.1157 10.3748 10.0834 10.375 9.041V9.04089C10.375 4.65579 13.9274 1.10339 18.3125 1.10339C22.6976 1.10339 26.25 4.65579 26.25 9.04089C26.25 11.146 25.4137 13.165 23.9252 14.6536C22.4366 16.1421 20.4177 16.9784 18.3125 16.9784ZM57.6875 16.9784H57.6874C56.645 16.9786 55.6127 16.7735 54.6496 16.3747C53.6865 15.9759 52.8114 15.3912 52.0743 14.6541C51.3372 13.917 50.7525 13.0419 50.3537 12.0788C49.9549 11.1157 49.7498 10.0834 49.75 9.04101V9.04089C49.75 4.65579 53.3024 1.10339 57.6875 1.10339C62.0726 1.10339 65.625 4.65579 65.625 9.04089C65.625 11.146 64.7887 13.165 63.3002 14.6536C61.8116 16.1421 59.7927 16.9784 57.6875 16.9784ZM1 31.2278C1 29.7281 1.66571 28.3903 2.80713 27.2077C3.95329 26.0201 5.56128 25.0099 7.38244 24.1908C11.0281 22.5511 15.4113 21.7284 18.3125 21.7284C21.2137 21.7284 25.5969 22.5511 29.2426 24.1908C31.0637 25.0099 32.6717 26.0201 33.8179 27.2077C34.9593 28.3903 35.625 29.7281 35.625 31.2278V45.1034H1V31.2278ZM43.125 6.22839C43.125 7.58763 42.585 8.89119 41.6239 9.85232C40.6628 10.8134 39.3592 11.3534 38 11.3534C36.6408 11.3534 35.3372 10.8134 34.3761 9.85232C33.415 8.89119 32.875 7.58763 32.875 6.22839C32.875 4.86916 33.415 3.56559 34.3761 2.60447C35.3372 1.64335 36.6408 1.10339 38 1.10339C39.3592 1.10339 40.6628 1.64335 41.6239 2.60447C42.585 3.56559 43.125 4.86916 43.125 6.22839ZM40.375 31.2278C40.375 29.7281 41.0407 28.3903 42.1821 27.2077C43.3283 26.0201 44.9363 25.0099 46.7574 24.1908C50.4031 22.5511 54.7863 21.7284 57.6875 21.7284C60.5887 21.7284 64.9719 22.5511 68.6176 24.1908C70.4387 25.0099 72.0467 26.0201 73.1929 27.2077C74.3343 28.3903 75 29.7281 75 31.2278V45.1034H40.375V31.2278Z" fill="#ED7D31" stroke="white"/>
<path d="M38.943 23.8307L38.9423 23.8314C38.6159 24.1539 38.299 24.4976 37.9995 24.8639C37.7046 24.5024 37.3898 24.1574 37.0566 23.8305C35.2732 22.0762 32.9958 20.7788 30.7658 19.8274C30.6296 19.7692 30.4931 19.712 30.3562 19.6557C32.9469 18.54 35.9708 17.9784 37.9999 17.9784C40.0289 17.9784 43.0522 18.5399 45.6415 19.6553C45.5042 19.7117 45.3675 19.7691 45.2316 19.8276C43.0056 20.7789 40.7264 22.0764 38.943 23.8307Z" fill="#ED7D31" stroke="white"/>
</svg>
