<svg width="18" height="18" viewBox="0 0 18 18" fill="none" xmlns="http://www.w3.org/2000/svg">
<path d="M9.09562 2.99531L6.37313 5.75156C5.92031 6.20859 5.83313 7.03125 6.17625 7.61836C6.53906 8.24414 7.245 8.36719 7.73156 7.89258L10.5244 5.17852C10.7213 4.98867 11.0025 5.03086 11.1572 5.27695C11.3119 5.52305 11.2753 5.87461 11.0784 6.06797L10.4906 6.6375L14.4 11.1375V4.5H14.3803L14.2706 4.41211L12.2287 2.77734C11.7984 2.43281 11.295 2.25 10.7831 2.25C10.17 2.25 9.57375 2.51367 9.09562 2.99531ZM9.73688 7.36875L8.28281 8.78203C7.39687 9.64687 6.11156 9.42188 5.44781 8.28281C4.82344 7.21055 4.98094 5.71289 5.805 4.87969L8.145 2.51367C7.81875 2.34141 7.46719 2.25352 7.11 2.25352C6.58125 2.25 6.06656 2.44688 5.625 2.8125L3.6 4.5V12.375H4.39312L6.96375 15.307C7.515 15.9363 8.36719 15.8871 8.87062 15.198C9.02531 14.9836 9.12937 14.734 9.18281 14.4738L9.66094 15.0223C10.2094 15.6516 11.0644 15.6059 11.5678 14.9203C11.6944 14.748 11.7872 14.5477 11.8462 14.3402C12.3919 14.7973 13.1344 14.7023 13.5928 14.0766C14.0962 13.391 14.0597 12.3223 13.5112 11.693L9.73688 7.36875ZM2.7 4.5H0V12.375C0 12.9973 0.402187 13.5 0.9 13.5H1.8C2.29781 13.5 2.7 12.9973 2.7 12.375V4.5ZM1.35 12.375C1.1025 12.375 0.9 12.1219 0.9 11.8125C0.9 11.5031 1.1025 11.25 1.35 11.25C1.5975 11.25 1.8 11.5031 1.8 11.8125C1.8 12.1219 1.5975 12.375 1.35 12.375ZM15.3 4.5V12.375C15.3 12.9973 15.7022 13.5 16.2 13.5H17.1C17.5978 13.5 18 12.9973 18 12.375V4.5H15.3ZM17.1 11.8125C17.1 12.1219 16.8975 12.375 16.65 12.375C16.4025 12.375 16.2 12.1219 16.2 11.8125C16.2 11.5031 16.4025 11.25 16.65 11.25C16.8975 11.25 17.1 11.5031 17.1 11.8125Z" fill="#97AAB6"/>
</svg>
