<svg width="20" height="20" viewBox="0 0 20 20" fill="none" xmlns="http://www.w3.org/2000/svg">
<path d="M4.16667 14.7917V11.6533L7.55 13.8642C8.27847 14.3401 9.12982 14.5936 10 14.5936C10.8702 14.5936 11.7215 14.3401 12.45 13.8642L15.8333 11.6533V14.7917C15.8333 14.9269 15.7895 15.0585 15.7083 15.1667L15.7075 15.1675L15.7067 15.1692L15.7042 15.1725L15.6967 15.1808L15.6867 15.1942L15.6758 15.2083L15.6042 15.2925C15.5201 15.3879 15.432 15.4797 15.34 15.5675C15.1092 15.79 14.765 16.0792 14.2983 16.3658C13.3642 16.9408 11.9492 17.5 10 17.5C8.05083 17.5 6.63667 16.9417 5.70083 16.3658C5.32636 16.1376 4.97718 15.8703 4.65917 15.5683C4.533 15.4466 4.41418 15.3175 4.30333 15.1817L4.29583 15.1733L4.29333 15.1692V15.1675C4.2117 15.0592 4.16727 14.9273 4.16667 14.7917ZM18.4667 8.44001L11.7667 12.8175C11.2414 13.1608 10.6275 13.3436 10 13.3436C9.3725 13.3436 8.75859 13.1608 8.23333 12.8175L2.5 9.07168V13.5417C2.5 13.7074 2.43415 13.8664 2.31694 13.9836C2.19973 14.1008 2.04076 14.1667 1.875 14.1667C1.70924 14.1667 1.55027 14.1008 1.43306 13.9836C1.31585 13.8664 1.25 13.7074 1.25 13.5417V8.33334C1.25 8.26001 1.2625 8.19001 1.28583 8.12501C1.2389 7.99218 1.23822 7.84739 1.2839 7.71413C1.32959 7.58087 1.41895 7.46695 1.5375 7.39084L8.2575 3.08251C8.77755 2.74919 9.3823 2.57202 10 2.57202C10.6177 2.57202 11.2224 2.74919 11.7425 3.08251L18.4625 7.39084C18.5503 7.44719 18.6225 7.52461 18.6727 7.61604C18.7229 7.70746 18.7494 7.81 18.7498 7.91429C18.7502 8.01859 18.7246 8.12133 18.6751 8.21315C18.6256 8.30498 18.554 8.38297 18.4667 8.44001Z" fill="#97AAB6"/>
</svg>
