<svg width="14" height="18" viewBox="0 0 14 18" fill="none" xmlns="http://www.w3.org/2000/svg">
<path d="M6.9987 9C7.45703 9 7.84953 8.83667 8.1762 8.51C8.50231 8.18389 8.66536 7.79167 8.66536 7.33334C8.66536 6.875 8.50231 6.4825 8.1762 6.15584C7.84953 5.82973 7.45703 5.66667 6.9987 5.66667C6.54036 5.66667 6.14814 5.82973 5.82203 6.15584C5.49536 6.4825 5.33203 6.875 5.33203 7.33334C5.33203 7.79167 5.49536 8.18389 5.82203 8.51C6.14814 8.83667 6.54036 9 6.9987 9ZM6.9987 17.3333C4.76259 15.4306 3.09259 13.6631 1.9887 12.0308C0.884253 10.3992 0.332031 8.88889 0.332031 7.5C0.332031 5.41667 1.00231 3.75695 2.34286 2.52084C3.68286 1.28473 5.23481 0.666672 6.9987 0.666672C8.76259 0.666672 10.3145 1.28473 11.6545 2.52084C12.9951 3.75695 13.6654 5.41667 13.6654 7.5C13.6654 8.88889 13.1134 10.3992 12.0095 12.0308C10.9051 13.6631 9.23481 15.4306 6.9987 17.3333Z" fill="#97AAB6"/>
</svg>
