<svg width="18" height="18" viewBox="0 0 18 18" fill="none" xmlns="http://www.w3.org/2000/svg">
<path d="M7.7625 10.75L12 6.5125L10.9125 5.425L7.7475 8.5975L6.1725 7.0225L5.1 8.0875M4.875 13C3.735 13 2.7625 12.6075 1.9575 11.8225C1.1525 11.0325 0.75 10.07 0.75 8.935C0.75 7.96 1.0425 7.09 1.6275 6.325C2.2175 5.56 2.9875 5.0725 3.9375 4.8625C4.2525 3.7125 4.8775 2.7825 5.8125 2.0725C6.7525 1.3575 7.815 1 9 1C10.465 1 11.705 1.51 12.72 2.53C13.74 3.545 14.25 4.785 14.25 6.25C15.115 6.35 15.83 6.725 16.395 7.375C16.965 8.015 17.25 8.765 17.25 9.625C17.25 10.565 16.9225 11.3625 16.2675 12.0175C15.6125 12.6725 14.815 13 13.875 13H4.875Z" fill="#97AAB6"/>
</svg>
