<svg width="20" height="20" viewBox="0 0 20 20" fill="none" xmlns="http://www.w3.org/2000/svg">
<path d="M10 0.833374L2.5 4.16671V9.16671C2.5 13.7917 5.7 18.1167 10 19.1667C14.3 18.1167 17.5 13.7917 17.5 9.16671V4.16671L10 0.833374ZM10 5.83337C11.1667 5.83337 12.3333 6.75004 12.3333 7.91671V9.16671C12.8333 9.16671 13.3333 9.66671 13.3333 10.25V13.1667C13.3333 13.6667 12.8333 14.1667 12.25 14.1667H7.66667C7.16667 14.1667 6.66667 13.6667 6.66667 13.0834V10.1667C6.66667 9.66671 7.16667 9.16671 7.66667 9.16671V7.91671C7.66667 6.75004 8.83333 5.83337 10 5.83337ZM10 6.83337C9.33333 6.83337 8.75 7.25004 8.75 7.91671V9.16671H11.25V7.91671C11.25 7.25004 10.6667 6.83337 10 6.83337Z" fill="#97AAB6"/>
</svg>
