<svg width="20" height="20" viewBox="0 0 20 20" fill="none" xmlns="http://www.w3.org/2000/svg">
<path d="M16.666 3.33337H3.33268C2.89065 3.33337 2.46673 3.50897 2.15417 3.82153C1.84161 4.13409 1.66602 4.55801 1.66602 5.00004V15C1.66602 15.4421 1.84161 15.866 2.15417 16.1786C2.46673 16.4911 2.89065 16.6667 3.33268 16.6667H16.666C17.108 16.6667 17.532 16.4911 17.8445 16.1786C18.1571 15.866 18.3327 15.4421 18.3327 15V5.00004C18.3327 4.55801 18.1571 4.13409 17.8445 3.82153C17.532 3.50897 17.108 3.33337 16.666 3.33337ZM17.4993 9.16671H2.49935V6.66671H17.4993V9.16671Z" fill="#97AAB6"/>
</svg>
