<svg width="18" height="10" viewBox="0 0 18 10" fill="none" xmlns="http://www.w3.org/2000/svg">
<path d="M6.49935 1.875C6.49935 2.37228 6.30181 2.84919 5.95017 3.20082C5.59854 3.55246 5.12163 3.75 4.62435 3.75C4.37811 3.75005 4.13426 3.70159 3.90675 3.60739C3.67924 3.51318 3.47252 3.37507 3.2984 3.20095C3.12428 3.02683 2.98617 2.82011 2.89196 2.5926C2.79776 2.36509 2.74929 2.12124 2.74935 1.875C2.74935 0.839167 3.58852 0 4.62435 0C5.66018 0 6.49935 0.839167 6.49935 1.875ZM0.666016 6.80542C0.666016 5.32792 3.30352 4.58333 4.62435 4.58333C5.94518 4.58333 8.58268 5.32792 8.58268 6.80542V10H0.666016V6.80542ZM15.2493 1.875C15.2493 2.37228 15.0518 2.84919 14.7002 3.20082C14.3485 3.55246 13.8716 3.75 13.3743 3.75C13.1281 3.75005 12.8843 3.70159 12.6568 3.60739C12.4292 3.51318 12.2225 3.37507 12.0484 3.20095C11.8743 3.02683 11.7362 2.82011 11.642 2.5926C11.5478 2.36509 11.4993 2.12124 11.4993 1.875C11.4993 0.839167 12.3385 0 13.3743 0C14.4102 0 15.2493 0.839167 15.2493 1.875ZM10.2493 1.25C10.2493 1.58152 10.1177 1.89946 9.88323 2.13388C9.64881 2.3683 9.33087 2.5 8.99935 2.5C8.66783 2.5 8.34989 2.3683 8.11547 2.13388C7.88105 1.89946 7.74935 1.58152 7.74935 1.25C7.74935 0.918479 7.88105 0.600537 8.11547 0.366116C8.34989 0.131696 8.66783 0 8.99935 0C9.33087 0 9.64881 0.131696 9.88323 0.366116C10.1177 0.600537 10.2493 0.918479 10.2493 1.25ZM9.41602 6.80542C9.41602 5.32792 12.0535 4.58333 13.3743 4.58333C14.6952 4.58333 17.3327 5.32792 17.3327 6.80542V10H9.41602V6.80542Z" fill="#97AAB6"/>
<path fill-rule="evenodd" clip-rule="evenodd" d="M10.9783 4.24375C10.8674 4.28458 10.7574 4.32792 10.6499 4.37417C10.1624 4.5825 9.66953 4.86417 9.28661 5.24083C9.18411 5.34208 9.08661 5.4525 8.99911 5.57292C8.91246 5.4546 8.81631 5.34354 8.71161 5.24083C8.3287 4.86417 7.8362 4.5825 7.34786 4.37417C7.23956 4.32788 7.13008 4.2844 7.01953 4.24375C7.65411 3.915 8.46995 3.75 8.99911 3.75C9.52828 3.75 10.3441 3.915 10.9783 4.24375Z" fill="#97AAB6"/>
</svg>
