<svg width="20" height="20" viewBox="0 0 20 20" fill="none" xmlns="http://www.w3.org/2000/svg">
<path d="M16.875 4.99996V8.74996C16.8744 8.84688 16.8516 8.94237 16.8082 9.02906C16.7649 9.11576 16.7022 9.19133 16.625 9.24996C16.5464 9.30808 16.4556 9.34745 16.3594 9.36506C16.2633 9.38266 16.1644 9.37803 16.0703 9.35152L10.625 7.71871V14.375C10.625 15.1166 10.4051 15.8417 9.99301 16.4584C9.58096 17.075 8.99529 17.5557 8.31007 17.8395C7.62484 18.1233 6.87084 18.1976 6.14341 18.0529C5.41598 17.9082 4.7478 17.5511 4.22335 17.0266C3.6989 16.5022 3.34175 15.834 3.19706 15.1066C3.05236 14.3791 3.12662 13.6251 3.41045 12.9399C3.69428 12.2547 4.17493 11.669 4.79161 11.257C5.4083 10.8449 6.13332 10.625 6.875 10.625C7.79904 10.6221 8.69075 10.9649 9.375 11.5859V3.12496C9.3756 3.02804 9.39845 2.93255 9.4418 2.84586C9.48514 2.75917 9.54782 2.68359 9.625 2.62496C9.70359 2.56684 9.79443 2.52747 9.89057 2.50987C9.98671 2.49226 10.0856 2.49689 10.1797 2.5234L16.4297 4.3984C16.5582 4.43828 16.6707 4.51811 16.7508 4.62629C16.8309 4.73447 16.8744 4.86537 16.875 4.99996Z" fill="#97AAB6"/>
</svg>
