<svg width="50" height="50" viewBox="0 0 50 50" fill="none" xmlns="http://www.w3.org/2000/svg">
<path d="M25 2.08337L6.25 10.4167V22.9167C6.25 34.4792 14.25 45.2917 25 47.9167C35.75 45.2917 43.75 34.4792 43.75 22.9167V10.4167L25 2.08337ZM25 14.5834C27.9167 14.5834 30.8333 16.875 30.8333 19.7917V22.9167C32.0833 22.9167 33.3333 24.1667 33.3333 25.625V32.9167C33.3333 34.1667 32.0833 35.4167 30.625 35.4167H19.1667C17.9167 35.4167 16.6667 34.1667 16.6667 32.7084V25.4167C16.6667 24.1667 17.9167 22.9167 19.1667 22.9167V19.7917C19.1667 16.875 22.0833 14.5834 25 14.5834ZM25 17.0834C23.3333 17.0834 21.875 18.125 21.875 19.7917V22.9167H28.125V19.7917C28.125 18.125 26.6667 17.0834 25 17.0834Z" fill="#F64E1F"/>
</svg>
