<svg width="90" height="90" viewBox="0 0 90 90" fill="none" xmlns="http://www.w3.org/2000/svg">
<path d="M72.7099 42.0515L72.4899 42.2183L72.5139 42.4933C72.5877 43.3421 72.6245 44.1527 72.6245 45C72.6245 45.8476 72.5876 46.65 72.4787 47.4853L72.4411 47.7731L72.6724 47.9485L79.6432 53.2327C79.644 53.2333 79.6448 53.2339 79.6456 53.2346C80.9465 54.2446 81.3036 56.0311 80.4908 57.4637C80.4904 57.4643 80.4901 57.4649 80.4897 57.4655L73.4792 69.5745L73.4772 69.578C72.6654 71.0069 70.9133 71.5891 69.4238 70.9414L69.4194 70.9395L61.3569 67.527L61.1014 67.4189L60.8745 67.5784C59.5087 68.5382 58.0719 69.3852 56.5642 70.0838L56.3129 70.2003L56.2784 70.4752L55.1909 79.1377L55.1905 79.1404C54.9957 80.7642 53.5963 82 51.9745 82H37.987C36.3652 82 34.9658 80.7642 34.7709 79.1404L34.7706 79.1377L33.6831 70.4752L33.6486 70.2003L33.3972 70.0838C31.8896 69.3852 30.4528 68.5382 29.087 67.5784L28.86 67.4189L28.6046 67.527L20.5421 70.9395L20.5376 70.9415C19.0482 71.5891 17.2961 71.0069 16.4842 69.578L16.4822 69.5745L9.47171 57.4655C9.47139 57.4649 9.47107 57.4644 9.47075 57.4638C8.65489 56.026 9.02016 54.2064 10.312 53.2375L10.314 53.236L17.289 47.9485L17.5104 47.7806L17.4849 47.504C17.3322 45.8507 17.3322 44.1868 17.4849 42.5335L17.5104 42.2569L17.289 42.089L10.3183 36.8048C10.3176 36.8043 10.3169 36.8038 10.3163 36.8032C9.01488 35.7931 8.65771 34.0062 9.47091 32.5734C9.47118 32.5729 9.47144 32.5725 9.47171 32.572L16.4825 20.4249L16.4825 20.4249L16.4842 20.422C17.2961 18.9931 19.0482 18.4109 20.5376 19.0585L20.5421 19.0605L28.6046 22.473L28.86 22.5811L29.087 22.4216C30.4528 21.4618 31.8896 20.6148 33.3972 19.9162L33.6486 19.7997L33.6831 19.5248L34.7706 10.8623L34.7709 10.8596C34.9654 9.23887 36.362 8 38.0245 8H52.012C53.6338 8 55.0332 9.2358 55.228 10.8596L55.2284 10.8623L56.3159 19.5248L56.3504 19.7997L56.6017 19.9162C58.1094 20.6148 59.5462 21.4618 60.912 22.4216L61.1389 22.5811L61.3944 22.473L69.4569 19.0605L69.4601 19.0591C70.1849 18.7463 70.9998 18.7123 71.7481 18.9638C72.4964 19.2152 73.1255 19.7343 73.5143 20.4213L73.5168 20.4255L80.5272 32.5345C80.5276 32.5351 80.5279 32.5357 80.5283 32.5363C81.3441 33.9741 80.9788 35.7937 79.687 36.7625L79.6849 36.764L72.7099 42.0515ZM31.5245 45C31.5245 52.5136 37.6358 58.625 45.1495 58.625C52.6631 58.625 58.7745 52.5136 58.7745 45C58.7745 37.4864 52.6631 31.375 45.1495 31.375C37.6358 31.375 31.5245 37.4864 31.5245 45Z" fill="#F64E1F" stroke="white"/>
</svg>
