<svg width="18" height="18" viewBox="0 0 18 18" fill="none" xmlns="http://www.w3.org/2000/svg">
<g opacity="0.8">
<path d="M1 16.5V4.5H4C4 3.675 4.29375 2.96875 4.88125 2.38125C5.46875 1.79375 6.175 1.5 7 1.5C7.825 1.5 8.53125 1.79375 9.11875 2.38125C9.70625 2.96875 10 3.675 10 4.5H13V16.5H1ZM7 3C6.5875 3 6.2345 3.147 5.941 3.441C5.647 3.7345 5.5 4.0875 5.5 4.5H8.5C8.5 4.0875 8.35325 3.7345 8.05975 3.441C7.76575 3.147 7.4125 3 7 3ZM4 8.25H5.5V6H4V8.25ZM8.5 8.25H10V6H8.5V8.25Z" fill="#97AAB6"/>
</g>
</svg>
