<svg width="90" height="90" viewBox="0 0 90 90" fill="none" xmlns="http://www.w3.org/2000/svg">
<path d="M61.875 55.3436H62.375V54.8436V50.6249C62.375 49.0004 61.7297 47.4425 60.581 46.2938C59.4324 45.1452 57.8745 44.4999 56.25 44.4999H33.75C32.1255 44.4999 30.5676 45.1452 29.419 46.2938C28.2703 47.4425 27.625 49.0004 27.625 50.6249V54.8436V55.3436H28.125H32.3437C33.703 55.3436 35.0065 55.8836 35.9677 56.8447C36.9288 57.8058 37.4687 59.1094 37.4687 60.4686L37.4687 74.5311C37.4687 75.8904 36.9288 77.1939 35.9677 78.1551C35.0065 79.1162 33.703 79.6561 32.3437 79.6561H18.2812C16.922 79.6561 15.6185 79.1162 14.6573 78.1551C13.6962 77.1939 13.1562 75.8904 13.1562 74.5311V60.4686C13.1562 59.1094 13.6962 57.8058 14.6573 56.8447C15.6185 55.8836 16.922 55.3436 18.2812 55.3436L22.5 55.3436H23V54.8436L23 50.6264C23 50.626 23 50.6256 23 50.6252C23.0092 47.7769 24.1447 45.0478 26.1588 43.0337C28.173 41.0196 30.902 39.8841 33.7504 39.8749C33.7508 39.8749 33.7512 39.8749 33.7516 39.8749L42.1875 39.8749H42.6875V39.3749V29.5311V29.0311H42.1875H39.375C38.0158 29.0311 36.7122 28.4912 35.7511 27.53C34.79 26.5689 34.25 25.2654 34.25 23.9061V12.6561C34.25 11.2969 34.79 9.99333 35.7511 9.03221C36.7122 8.07108 38.0158 7.53113 39.375 7.53113L50.625 7.53113C51.9842 7.53113 53.2878 8.07108 54.2489 9.03221C55.21 9.99333 55.75 11.2969 55.75 12.6561V23.9061C55.75 25.2654 55.21 26.5689 54.2489 27.53C53.2878 28.4912 51.9842 29.0311 50.625 29.0311L47.8125 29.0311H47.3125V29.5311L47.3125 39.3749V39.8749H47.8125L56.2484 39.8749C56.2488 39.8749 56.2492 39.8749 56.2496 39.8749C59.098 39.8841 61.827 41.0196 63.8412 43.0337C65.8553 45.0479 66.9909 47.7771 67 50.6255V54.8436V55.3436H67.5H71.7187C73.078 55.3436 74.3815 55.8836 75.3427 56.8447C76.3038 57.8058 76.8437 59.1094 76.8437 60.4686V74.5311C76.8437 75.8904 76.3038 77.1939 75.3427 78.1551C74.3815 79.1162 73.078 79.6561 71.7187 79.6561H57.6562C56.297 79.6561 54.9935 79.1162 54.0323 78.1551C53.0712 77.1939 52.5312 75.8904 52.5312 74.5311V60.4686C52.5312 59.1094 53.0712 57.8058 54.0323 56.8447C54.9935 55.8836 56.297 55.3436 57.6562 55.3436L61.875 55.3436Z" fill="#ED7D31" stroke="white"/>
</svg>
